<svg width="179" height="180" viewBox="0 0 179 180" fill="none" xmlns="http://www.w3.org/2000/svg">
<path d="M43.5683 67.3847C41.0669 64.8833 41.0669 60.8277 43.5683 58.3262L55.2345 46.66C57.7359 44.1586 61.7915 44.1586 64.293 46.66L76.0626 58.4297C78.5641 60.9311 78.5641 64.9867 76.0626 67.4882L64.3964 79.1544C61.895 81.6558 57.8394 81.6558 55.338 79.1544L43.5683 67.3847Z" fill="#FF7F39"/>
<path d="M99.6699 67.3847C97.1684 64.8833 97.1684 60.8277 99.6699 58.3262L111.336 46.66C113.837 44.1586 117.893 44.1586 120.395 46.66L132.164 58.4297C134.666 60.9311 134.666 64.9867 132.164 67.4882L120.498 79.1544C117.997 81.6558 113.941 81.6558 111.44 79.1544L99.6699 67.3847Z" fill="#FF7F39"/>
<path d="M43.5683 121.756C41.0669 119.254 41.0669 115.199 43.5683 112.697L55.2345 101.031C57.7359 98.5297 61.7915 98.5297 64.293 101.031L76.0626 112.801C78.5641 115.302 78.5641 119.358 76.0626 121.859L64.3964 133.525C61.895 136.027 57.8394 136.027 55.338 133.525L43.5683 121.756Z" fill="#FF7F39"/>
<path d="M99.6699 121.756C97.1684 119.254 97.1684 115.199 99.6699 112.697L111.336 101.031C113.837 98.5297 117.893 98.5297 120.395 101.031L132.164 112.801C134.666 115.302 134.666 119.358 132.164 121.859L120.498 133.525C117.997 136.027 113.941 136.027 111.44 133.525L99.6699 121.756Z" fill="#FF7F39"/>
<path d="M4.47656 18.9425V4.52539H18.8041" stroke="#FF7F39" stroke-width="8.95387"/>
<path d="M18.8133 174.658H4.47656L4.47656 160.25" stroke="#FF7F39" stroke-width="8.95387"/>
<path d="M173.331 160.241L173.266 174.658L158.938 174.593" stroke="#FF7F39" stroke-width="8.95387"/>
<path d="M159.726 4.47769L174.062 4.54297L173.998 18.9507" stroke="#FF7F39" stroke-width="8.95387"/>
</svg>
