<svg width="188" height="82" viewBox="0 0 188 82" fill="none" xmlns="http://www.w3.org/2000/svg">
<path d="M9.28302 0.376953V16.3611H5.5206V0.376953H0V40.2821H5.5206V22.7435H9.28302V40.2821H14.8036V0.376953H9.28302Z" fill="white"/>
<path d="M24.2308 40.7106H23.156C18.7583 40.7106 16.4141 38.083 16.4141 33.1483V25.1562H21.8866V32.1292C21.8866 33.9525 22.4234 34.9188 23.694 34.9188C24.9645 34.9188 25.5014 33.9525 25.5014 31.4858V30.5735C25.5014 27.731 25.2575 26.7119 23.2544 23.8682L19.7369 18.9334C17.3916 15.6072 16.7082 13.0336 16.7082 9.06399V7.7772C16.706 2.46798 19.1486 0 23.4971 0H24.5238C29.0669 0 30.8251 2.19908 30.8251 6.92016V13.4634H25.4991V7.7244C25.4991 6.38359 25.2553 5.36448 23.9367 5.36448C22.618 5.36448 22.3239 6.27677 22.3239 8.15415V8.90437C22.3239 11.1575 22.7142 12.3915 24.5708 15.0191L28.0894 20.0066C30.5813 23.5465 31.362 25.5847 31.362 30.0897V31.3765C31.362 37.2235 29.0658 40.7094 24.2297 40.7094" fill="white"/>
<path d="M45.4852 0.376953V6.16995H38.4492V16.6288H43.9709V22.6894H38.4492V34.2214H45.7783V40.2821H32.9297V0.376953H45.4852Z" fill="white"/>
<path d="M60.6734 32.7738H56.6671L55.9345 40.2833H51L55.4458 0.376953H61.9931L66.7319 40.2821H61.407L60.6745 32.7725L60.6734 32.7738ZM60.0862 26.8199L58.6199 12.0698L57.204 26.8199H60.0862Z" fill="white"/>
<path d="M73.13 40.2821H67.6094V0.376953H76.5502C80.2141 0.376953 82.0708 2.09349 82.0708 6.54567V13.6255C82.0708 16.9505 80.6548 18.2385 79.6762 18.721C80.8975 19.3116 82.0708 20.3848 82.0708 23.0652V37.0639C82.0708 38.6736 82.3638 39.4238 82.6076 40.0144V40.2821H77.1351C76.8913 39.8536 76.5982 39.1562 76.5982 37.0111V24.9966C76.5982 23.226 76.3052 22.4746 74.547 22.4746H73.1289V40.2821H73.13ZM73.13 16.7896H74.5962C76.1117 16.7896 76.5994 15.7165 76.5994 13.9472V8.36903C76.5994 6.6525 76.2582 5.79423 74.5962 5.79423H73.13V16.7896Z" fill="white"/>
<path d="M93.2066 6.16995V40.2821H87.7341V6.16995H83.0938V0.376953H97.8482V6.16995H93.2066Z" fill="white"/>
<path d="M112.715 32.7738H108.707L107.974 40.2833H103.039L107.486 0.376953H114.033L118.772 40.2821H113.447L112.715 32.7725V32.7738ZM112.127 26.8199L110.661 12.0698L109.245 26.8199H112.127Z" fill="white"/>
<path d="M124.639 0.376953L129.379 21.7784V0.376953H134.411V40.2821H129.916L124.639 17.3262V40.2821H119.656V0.376953H124.639Z" fill="white"/>
<path d="M136.453 0.376953H144.905C149.645 0.376953 151.11 3.32748 151.11 8.04733V32.344C151.11 37.2247 149.449 40.2821 144.905 40.2821H136.453V0.376953ZM141.975 34.4903H143.295C144.957 34.4903 145.444 33.5252 145.444 31.3789V8.90437C145.444 6.59847 144.906 5.79423 143.538 5.79423H141.975V34.4903Z" fill="white"/>
<path d="M0 41.0938H8.45202C13.1908 41.0938 14.656 44.0443 14.656 48.7641V73.0608C14.656 77.9415 12.9951 80.9989 8.45202 80.9989H0V41.0938ZM5.5206 75.2059H6.84035C8.50123 75.2059 8.98999 74.2408 8.98999 72.0945V49.6212C8.98999 47.3153 8.45314 46.511 7.08417 46.511H5.5206V75.2071V75.2059Z" fill="white"/>
<path d="M29.1661 41.0938V46.8855H22.13V57.3456H27.6517V63.4062H22.13V74.937H29.4591V80.9989H16.6094V41.0938H29.1661Z" fill="white"/>
<path d="M38.2464 81.4254H37.1716C32.7739 81.4254 30.4297 78.7978 30.4297 73.8631V65.871H35.9022V72.844C35.9022 74.6674 36.4402 75.6337 37.7096 75.6337C38.979 75.6337 39.5181 74.6686 39.5181 72.2006V71.2883C39.5181 68.4458 39.2743 67.4267 37.2712 64.583L33.7537 59.6483C31.4083 56.3233 30.725 53.7485 30.725 49.7801V48.492C30.725 43.1816 33.1665 40.7148 37.515 40.7148H38.5417C43.0859 40.7148 44.8441 42.9139 44.8441 47.6338V54.177H39.5192V48.438C39.5192 47.0972 39.2754 46.0781 37.9556 46.0781C36.6359 46.0781 36.344 46.9904 36.344 48.8678V49.618C36.344 51.8711 36.7343 53.1051 38.5909 55.7339L42.1084 60.7214C44.6003 64.2613 45.3821 66.2996 45.3821 70.8045V72.0926C45.3821 77.9383 43.0859 81.4242 38.2487 81.4242" fill="white"/>
<path d="M52.4815 41.0938H46.9609V80.9989H52.4815V41.0938Z" fill="white"/>
<path d="M59.6596 81.533C56.4363 81.533 54.3828 78.3688 54.3828 74.2383V49.2982C54.3828 44.8461 55.9464 40.7168 61.174 40.7168H62.2488C68.1608 40.7168 68.8442 44.9541 68.8442 49.674V53.7492H63.4701V49.2442C63.4701 47.4737 63.0798 46.5086 61.7108 46.5086C60.5387 46.5086 60.0007 47.4737 60.0007 49.2442V72.5758C60.0007 74.4532 60.6852 75.4183 61.8081 75.4183C63.2252 75.4183 63.8604 74.3452 63.8604 72.8435V62.8672H61.3697V56.7537H69.088V80.9964H65.9609C65.9128 80.7815 65.4721 78.7973 65.0326 77.0808C64.6422 78.4216 62.7856 81.533 60.0007 81.533H59.6585H59.6596Z" fill="white"/>
<path d="M75.9681 41.0938L80.7069 62.494V41.0938H85.7388V80.9989H81.2438L75.9681 58.043V80.9989H70.9844V41.0938H75.9681Z" fill="white"/>
<path d="M100.153 81.4254H99.0779C94.6802 81.4254 92.3359 78.7978 92.3359 73.8631V65.871H97.8084V72.844C97.8084 74.6674 98.3453 75.6337 99.6158 75.6337C100.886 75.6337 101.423 74.6686 101.423 72.2006V71.2883C101.423 68.4458 101.179 67.4267 99.1763 64.583L95.6588 59.6483C93.3135 56.3233 92.6301 53.7485 92.6301 49.7801V48.492C92.6301 43.1816 95.0728 40.7148 99.4201 40.7148H100.447C104.99 40.7148 106.748 42.9139 106.748 47.6338V54.177H101.423V48.438C101.423 47.0972 101.179 46.0781 99.8597 46.0781C98.5399 46.0781 98.2469 46.9904 98.2469 48.8678V49.618C98.2469 51.8711 98.6372 53.1051 100.494 55.7339L104.012 60.7214C106.503 64.2613 107.285 66.2996 107.285 70.8045V72.0926C107.285 77.9383 104.99 81.4242 100.153 81.4242" fill="white"/>
<path d="M117.881 72.8988V63.6199H123.304V72.8447C123.304 77.1361 122.034 81.4802 116.708 81.4802H115.486C109.917 81.4802 108.695 77.082 108.695 73.0596V48.7089C108.695 44.6324 110.307 40.7168 115.291 40.7168H116.56C122.619 40.7168 123.303 45.115 123.303 49.0306V56.1644H117.88V49.1386C117.88 47.4221 117.391 46.5098 116.023 46.5098C114.655 46.5098 114.313 47.3681 114.313 49.1386V72.846C114.313 74.6165 114.85 75.5816 116.071 75.5816C117.391 75.5816 117.88 74.5085 117.88 72.9" fill="white"/>
<path d="M134.353 63.459H130.591V80.9989H125.07V41.0938H130.591V57.0767H134.353V41.0938H139.874V80.9989H134.353V63.459Z" fill="white"/>
<path d="M156.877 72.0933C156.877 77.6726 155.167 81.4802 149.842 81.4802H148.914C143.637 81.4802 141.781 77.6726 141.781 72.0933V49.8876C141.781 44.3635 143.686 40.7168 148.865 40.7168H149.794C155.168 40.7168 156.878 44.3635 156.878 49.8348V72.0933H156.877ZM151.259 49.5671C151.259 47.4749 150.624 46.5098 149.354 46.5098C147.937 46.5098 147.4 47.5289 147.4 49.5671V72.5243C147.4 74.2396 147.84 75.5804 149.402 75.5804C150.869 75.5804 151.259 74.2396 151.259 72.5243V49.5671Z" fill="white"/>
<path d="M173.729 72.0933C173.729 77.6726 172.019 81.4802 166.693 81.4802H165.765C160.488 81.4802 158.633 77.6726 158.633 72.0933V49.8876C158.633 44.3635 160.538 40.7168 165.717 40.7168H166.645C172.018 40.7168 173.729 44.3635 173.729 49.8348V72.0933ZM168.112 49.5671C168.112 47.4749 167.476 46.5098 166.206 46.5098C164.789 46.5098 164.252 47.5289 164.252 49.5671V72.5243C164.252 74.2396 164.691 75.5804 166.255 75.5804C167.72 75.5804 168.112 74.2396 168.112 72.5243V49.5671Z" fill="white"/>
<path d="M180.861 40.9141V74.7881H187.656V80.982H175.297V40.9141H180.861Z" fill="white"/>
</svg>
