<svg width="175" height="33" viewBox="0 0 175 33" fill="none" xmlns="http://www.w3.org/2000/svg">
<path d="M0 2.47735C0 1.10915 1.10915 0 2.47735 0H172.249C173.617 0 174.726 1.10915 174.726 2.47735V30.3408C174.726 31.709 173.617 32.8182 172.249 32.8182H2.47734C1.10914 32.8182 0 31.709 0 30.3408V2.47735Z" fill="#FF7F39"/>
<path d="M153.255 16.6862C153.255 16.9388 153.382 17.065 153.634 17.065H155.647C155.899 17.065 156.026 17.1913 156.026 17.4439V22.2265C156.026 22.3212 155.986 22.408 155.907 22.4869C155.844 22.5501 155.757 22.5816 155.647 22.5816H153.634C153.524 22.5816 153.429 22.5501 153.35 22.4869C153.287 22.408 153.255 22.3212 153.255 22.2265V20.1903C153.255 20.0956 153.216 20.0167 153.137 19.9535C153.074 19.8746 152.987 19.8352 152.877 19.8352H150.864C150.612 19.8352 150.485 19.7089 150.485 19.4563V17.4439C150.485 17.3334 150.446 17.2466 150.367 17.1834C150.304 17.1045 150.225 17.065 150.13 17.065H148.094C147.999 17.065 147.913 17.1045 147.834 17.1834C147.77 17.2466 147.739 17.3334 147.739 17.4439V22.2265C147.739 22.3212 147.77 22.408 147.834 22.4869C147.913 22.5501 147.999 22.5816 148.094 22.5816H152.877C153.129 22.5816 153.255 22.7079 153.255 22.9604V24.9729C153.255 25.2255 153.129 25.3518 152.877 25.3518H145.348C145.095 25.3518 144.969 25.2255 144.969 24.9729V9.15714C144.969 8.90459 145.095 8.77832 145.348 8.77832H147.36C147.613 8.77832 147.739 8.90459 147.739 9.15714V13.9398C147.739 14.0345 147.77 14.1213 147.834 14.2002C147.913 14.2633 147.999 14.2949 148.094 14.2949H152.877C153.129 14.2949 153.255 14.4212 153.255 14.6737V16.6862Z" fill="black"/>
<path d="M141.816 8.77832C142.069 8.77832 142.195 8.90459 142.195 9.15714V24.9729C142.195 25.2255 142.069 25.3518 141.816 25.3518H123.23C122.978 25.3518 122.852 25.2255 122.852 24.9729V9.15714C122.852 8.90459 122.978 8.77832 123.23 8.77832H125.243C125.495 8.77832 125.622 8.90459 125.622 9.15714V22.2265C125.622 22.3212 125.653 22.408 125.716 22.4869C125.795 22.5501 125.882 22.5816 125.977 22.5816H130.759C130.87 22.5816 130.957 22.5501 131.02 22.4869C131.099 22.408 131.138 22.3212 131.138 22.2265V9.15714C131.138 8.90459 131.265 8.77832 131.517 8.77832H133.53C133.782 8.77832 133.908 8.90459 133.908 9.15714V22.2265C133.908 22.3212 133.94 22.408 134.003 22.4869C134.082 22.5501 134.169 22.5816 134.264 22.5816H139.046C139.157 22.5816 139.243 22.5501 139.307 22.4869C139.386 22.408 139.425 22.3212 139.425 22.2265V9.15714C139.425 8.90459 139.551 8.77832 139.804 8.77832H141.816Z" fill="black"/>
<path d="M109.363 25.3518C109.111 25.3518 108.984 25.2255 108.984 24.9729V9.15714C108.984 8.90459 109.111 8.77832 109.363 8.77832H111.376C111.628 8.77832 111.755 8.90459 111.755 9.15714V19.4563C111.755 19.5668 111.786 19.6615 111.849 19.7405C111.928 19.8036 112.015 19.8352 112.11 19.8352H114.146C114.241 19.8352 114.319 19.8746 114.383 19.9535C114.462 20.0167 114.501 20.0956 114.501 20.1903V22.2265C114.501 22.3212 114.462 22.408 114.383 22.4869C114.319 22.5501 114.241 22.5816 114.146 22.5816H112.11C112.015 22.5816 111.928 22.6211 111.849 22.7C111.786 22.7631 111.755 22.85 111.755 22.9604V24.9729C111.755 25.2255 111.628 25.3518 111.376 25.3518H109.363ZM119.662 8.77832C119.915 8.77832 120.041 8.90459 120.041 9.15714V24.9729C120.041 25.2255 119.915 25.3518 119.662 25.3518H117.65C117.397 25.3518 117.271 25.2255 117.271 24.9729V20.1903C117.271 20.0956 117.232 20.0167 117.153 19.9535C117.09 19.8746 117.003 19.8352 116.892 19.8352H114.88C114.627 19.8352 114.501 19.7089 114.501 19.4563V17.4439C114.501 17.1913 114.627 17.065 114.88 17.065H116.892C117.145 17.065 117.271 16.9388 117.271 16.6862V9.15714C117.271 8.90459 117.397 8.77832 117.65 8.77832H119.662Z" fill="black"/>
<path d="M95.5194 25.3518C95.2669 25.3518 95.1406 25.2255 95.1406 24.9729V9.15714C95.1406 8.90459 95.2669 8.77832 95.5194 8.77832H103.049C103.301 8.77832 103.427 8.90459 103.427 9.15714V11.1696C103.427 11.4222 103.301 11.5485 103.049 11.5485H98.2659C98.1712 11.5485 98.0844 11.5879 98.0055 11.6668C97.9423 11.73 97.9108 11.8089 97.9108 11.9036V16.6862C97.9108 16.7967 97.9423 16.8914 98.0055 16.9703C98.0844 17.0335 98.1712 17.065 98.2659 17.065H103.049C103.301 17.065 103.427 17.1913 103.427 17.4439V19.4563C103.427 19.7089 103.301 19.8352 103.049 19.8352H98.2659C98.1712 19.8352 98.0844 19.8746 98.0055 19.9535C97.9423 20.0167 97.9108 20.0956 97.9108 20.1903V24.9729C97.9108 25.2255 97.7845 25.3518 97.5319 25.3518H95.5194ZM105.819 11.5485C105.929 11.5485 106.016 11.5879 106.079 11.6668C106.158 11.73 106.197 11.8089 106.197 11.9036V16.6862C106.197 16.9388 106.071 17.065 105.819 17.065H103.806C103.554 17.065 103.427 16.9388 103.427 16.6862V11.9036C103.427 11.8089 103.459 11.73 103.522 11.6668C103.601 11.5879 103.696 11.5485 103.806 11.5485H105.819Z" fill="black"/>
<path d="M89.5758 11.1696C89.5758 11.4222 89.4495 11.5485 89.197 11.5485H84.4143C84.3196 11.5485 84.2328 11.5169 84.1539 11.4537C84.0908 11.3748 84.0592 11.2801 84.0592 11.1696V9.15714C84.0592 9.04665 84.0908 8.95984 84.1539 8.8967C84.2328 8.81778 84.3196 8.77832 84.4143 8.77832H89.197C89.4495 8.77832 89.5758 8.90459 89.5758 9.15714V11.1696ZM91.9671 11.5485C92.0776 11.5485 92.1644 11.5879 92.2275 11.6668C92.3064 11.73 92.3459 11.8089 92.3459 11.9036V22.2265C92.3459 22.3212 92.3064 22.408 92.2275 22.4869C92.1644 22.5501 92.0776 22.5816 91.9671 22.5816H89.9546C89.8441 22.5816 89.7494 22.5501 89.6705 22.4869C89.6073 22.408 89.5758 22.3212 89.5758 22.2265V11.9036C89.5758 11.8089 89.6073 11.73 89.6705 11.6668C89.7494 11.5879 89.8441 11.5485 89.9546 11.5485H91.9671ZM81.2891 22.2265V11.9036C81.2891 11.8089 81.3206 11.73 81.3838 11.6668C81.4627 11.5879 81.5574 11.5485 81.6679 11.5485H83.6804C83.7909 11.5485 83.8777 11.5879 83.9408 11.6668C84.0197 11.73 84.0592 11.8089 84.0592 11.9036V22.2265C84.0592 22.3212 84.0197 22.408 83.9408 22.4869C83.8777 22.5501 83.7909 22.5816 83.6804 22.5816H81.6679C81.5574 22.5816 81.4627 22.5501 81.3838 22.4869C81.3206 22.408 81.2891 22.3212 81.2891 22.2265ZM84.0592 22.9604C84.0592 22.85 84.0908 22.7631 84.1539 22.7C84.2328 22.6211 84.3196 22.5816 84.4143 22.5816H89.197C89.4495 22.5816 89.5758 22.7079 89.5758 22.9604V24.9729C89.5758 25.2255 89.4495 25.3518 89.197 25.3518H84.4143C84.3196 25.3518 84.2328 25.3202 84.1539 25.257C84.0908 25.1781 84.0592 25.0834 84.0592 24.9729V22.9604Z" fill="black"/>
<path d="M75.732 11.1696C75.732 11.4222 75.6058 11.5485 75.3532 11.5485H70.5706C70.4759 11.5485 70.3891 11.5169 70.3102 11.4537C70.247 11.3748 70.2154 11.2801 70.2154 11.1696V9.15714C70.2154 9.04665 70.247 8.95984 70.3102 8.8967C70.3891 8.81778 70.4759 8.77832 70.5706 8.77832H75.3532C75.6058 8.77832 75.732 8.90459 75.732 9.15714V11.1696ZM67.8241 25.3518C67.5716 25.3518 67.4453 25.2255 67.4453 24.9729V11.9036C67.4453 11.8089 67.4769 11.73 67.54 11.6668C67.6189 11.5879 67.7136 11.5485 67.8241 11.5485H69.8366C69.9471 11.5485 70.0339 11.5879 70.0971 11.6668C70.176 11.73 70.2154 11.8089 70.2154 11.9036V13.9398C70.2154 14.0345 70.247 14.1213 70.3102 14.2002C70.3891 14.2633 70.4759 14.2949 70.5706 14.2949H75.3532C75.6058 14.2949 75.732 14.4212 75.732 14.6737V16.6862C75.732 16.9388 75.8583 17.065 76.1109 17.065H78.1233C78.3759 17.065 78.5022 17.1913 78.5022 17.4439V22.2265C78.5022 22.3212 78.4627 22.408 78.3838 22.4869C78.3206 22.5501 78.2338 22.5816 78.1233 22.5816H76.1109C76.0004 22.5816 75.9057 22.5501 75.8267 22.4869C75.7636 22.408 75.732 22.3212 75.732 22.2265V20.1903C75.732 20.0956 75.6926 20.0167 75.6136 19.9535C75.5505 19.8746 75.4637 19.8352 75.3532 19.8352H73.3407C73.0882 19.8352 72.9619 19.7089 72.9619 19.4563V17.4439C72.9619 17.3334 72.9224 17.2466 72.8435 17.1834C72.7804 17.1045 72.7015 17.065 72.6068 17.065H70.5706C70.4759 17.065 70.3891 17.1045 70.3102 17.1834C70.247 17.2466 70.2154 17.3334 70.2154 17.4439V22.2265C70.2154 22.3212 70.247 22.408 70.3102 22.4869C70.3891 22.5501 70.4759 22.5816 70.5706 22.5816H75.3532C75.6058 22.5816 75.732 22.7079 75.732 22.9604V24.9729C75.732 25.2255 75.6058 25.3518 75.3532 25.3518H67.8241ZM78.5022 13.9398C78.5022 14.0345 78.4627 14.1213 78.3838 14.2002C78.3206 14.2633 78.2338 14.2949 78.1233 14.2949H76.1109C76.0004 14.2949 75.9057 14.2633 75.8267 14.2002C75.7636 14.1213 75.732 14.0345 75.732 13.9398V11.9036C75.732 11.8089 75.7636 11.73 75.8267 11.6668C75.9057 11.5879 76.0004 11.5485 76.1109 11.5485H78.1233C78.2338 11.5485 78.3206 11.5879 78.3838 11.6668C78.4627 11.73 78.5022 11.8089 78.5022 11.9036V13.9398Z" fill="black"/>
<path d="M61.8727 11.1696C61.8727 11.4222 61.7464 11.5485 61.4938 11.5485H56.7112C56.6165 11.5485 56.5297 11.5169 56.4508 11.4537C56.3876 11.3748 56.3561 11.2801 56.3561 11.1696V9.15714C56.3561 9.04665 56.3876 8.95984 56.4508 8.8967C56.5297 8.81778 56.6165 8.77832 56.7112 8.77832H61.4938C61.7464 8.77832 61.8727 8.90459 61.8727 9.15714V11.1696ZM64.264 11.5485C64.3745 11.5485 64.4613 11.5879 64.5244 11.6668C64.6033 11.73 64.6428 11.8089 64.6428 11.9036V22.2265C64.6428 22.3212 64.6033 22.408 64.5244 22.4869C64.4613 22.5501 64.3745 22.5816 64.264 22.5816H62.2515C62.141 22.5816 62.0463 22.5501 61.9674 22.4869C61.9042 22.408 61.8727 22.3212 61.8727 22.2265V11.9036C61.8727 11.8089 61.9042 11.73 61.9674 11.6668C62.0463 11.5879 62.141 11.5485 62.2515 11.5485H64.264ZM53.5859 22.2265V11.9036C53.5859 11.8089 53.6175 11.73 53.6806 11.6668C53.7596 11.5879 53.8543 11.5485 53.9648 11.5485H55.9772C56.0877 11.5485 56.1745 11.5879 56.2377 11.6668C56.3166 11.73 56.3561 11.8089 56.3561 11.9036V22.2265C56.3561 22.3212 56.3166 22.408 56.2377 22.4869C56.1745 22.5501 56.0877 22.5816 55.9772 22.5816H53.9648C53.8543 22.5816 53.7596 22.5501 53.6806 22.4869C53.6175 22.408 53.5859 22.3212 53.5859 22.2265ZM56.3561 22.9604C56.3561 22.85 56.3876 22.7631 56.4508 22.7C56.5297 22.6211 56.6165 22.5816 56.7112 22.5816H61.4938C61.7464 22.5816 61.8727 22.7079 61.8727 22.9604V24.9729C61.8727 25.2255 61.7464 25.3518 61.4938 25.3518H56.7112C56.6165 25.3518 56.5297 25.3202 56.4508 25.257C56.3876 25.1781 56.3561 25.0834 56.3561 24.9729V22.9604Z" fill="black"/>
<path d="M23.0706 11.5485C22.9759 11.5485 22.8891 11.5169 22.8101 11.4537C22.747 11.3748 22.7154 11.2801 22.7154 11.1696V9.15714C22.7154 9.04665 22.747 8.95984 22.8101 8.8967C22.8891 8.81778 22.9759 8.77832 23.0706 8.77832H30.6233C30.8759 8.77832 31.0022 8.90459 31.0022 9.15714V11.1696C31.0022 11.4222 30.8759 11.5485 30.6233 11.5485H23.0706ZM22.3366 11.5485C22.4471 11.5485 22.5339 11.5879 22.5971 11.6668C22.676 11.73 22.7154 11.8089 22.7154 11.9036V13.9398C22.7154 14.0345 22.747 14.1213 22.8101 14.2002C22.8891 14.2633 22.9759 14.2949 23.0706 14.2949H27.8532C28.1058 14.2949 28.232 14.4212 28.232 14.6737V16.6862C28.232 16.9388 28.1058 17.065 27.8532 17.065H23.0706C22.9759 17.065 22.8891 17.1045 22.8101 17.1834C22.747 17.2466 22.7154 17.3334 22.7154 17.4439V22.2265C22.7154 22.3212 22.676 22.408 22.5971 22.4869C22.5339 22.5501 22.4471 22.5816 22.3366 22.5816H20.3241C20.2136 22.5816 20.1189 22.5501 20.04 22.4869C19.9769 22.408 19.9453 22.3212 19.9453 22.2265V11.9036C19.9453 11.8089 19.9769 11.73 20.04 11.6668C20.1189 11.5879 20.2136 11.5485 20.3241 11.5485H22.3366ZM23.0706 25.3518C22.9759 25.3518 22.8891 25.3202 22.8101 25.257C22.747 25.1781 22.7154 25.0834 22.7154 24.9729V22.9604C22.7154 22.85 22.747 22.7631 22.8101 22.7C22.8891 22.6211 22.9759 22.5816 23.0706 22.5816H30.6233C30.8759 22.5816 31.0022 22.7079 31.0022 22.9604V24.9729C31.0022 25.2255 30.8759 25.3518 30.6233 25.3518H23.0706Z" fill="black"/>
<path d="M6.48038 17.065C6.22784 17.065 6.10156 16.9388 6.10156 16.6862V9.15714C6.10156 8.90459 6.22784 8.77832 6.48038 8.77832H8.49287C8.74542 8.77832 8.87169 8.90459 8.87169 9.15714V16.6862C8.87169 16.9388 8.74542 17.065 8.49287 17.065H6.48038ZM16.7796 8.77832C17.0321 8.77832 17.1584 8.90459 17.1584 9.15714V24.9729C17.1584 25.2255 17.0321 25.3518 16.7796 25.3518H14.7671C14.5146 25.3518 14.3883 25.2255 14.3883 24.9729V20.1903C14.3883 20.0956 14.3488 20.0167 14.2699 19.9535C14.2068 19.8746 14.1199 19.8352 14.0095 19.8352H9.22684C9.13213 19.8352 9.04532 19.8036 8.9664 19.7405C8.90326 19.6615 8.87169 19.5668 8.87169 19.4563V17.4439C8.87169 17.3334 8.90326 17.2466 8.9664 17.1834C9.04532 17.1045 9.13213 17.065 9.22684 17.065H14.0095C14.262 17.065 14.3883 16.9388 14.3883 16.6862V9.15714C14.3883 8.90459 14.5146 8.77832 14.7671 8.77832H16.7796Z" fill="black"/>
<path d="M144.797 24.9719V9.15606C144.797 9.00302 144.835 8.85629 144.943 8.74907C145.05 8.64186 145.197 8.60352 145.35 8.60352V8.77726C145.097 8.77726 144.971 8.90356 144.971 9.15606V24.9719L144.972 25.0178C144.987 25.2398 145.113 25.3507 145.35 25.3507H152.879L152.925 25.3493C153.132 25.3354 153.242 25.225 153.256 25.0178L153.258 24.9719V22.9594C153.257 22.7227 153.146 22.5969 152.925 22.5821L152.879 22.5806V22.4068C152.967 22.4068 153.052 22.4196 153.13 22.4508C153.1 22.3804 153.084 22.3051 153.084 22.2255V20.1894C153.084 20.1514 153.071 20.121 153.03 20.0883L153.015 20.0762L153.003 20.0612C152.977 20.0277 152.942 20.0081 152.879 20.0081H150.866C150.713 20.0081 150.566 19.9696 150.459 19.8624C150.352 19.7551 150.313 19.6084 150.313 19.4554V17.4428C150.313 17.3795 150.294 17.3449 150.26 17.3182L150.245 17.3062L150.233 17.291C150.2 17.2502 150.17 17.2379 150.132 17.2379H148.096C148.056 17.2379 148.011 17.2528 147.958 17.3054C147.935 17.3286 147.915 17.3669 147.915 17.4428V22.2255C147.915 22.2725 147.928 22.3167 147.96 22.3616C148.005 22.3934 148.049 22.4068 148.096 22.4068V22.5806C148.001 22.5806 147.915 22.549 147.836 22.4859C147.78 22.4169 147.749 22.3418 147.742 22.2607L147.741 22.2255V17.4428C147.741 17.3462 147.765 17.2676 147.813 17.2072L147.836 17.1824C147.915 17.1035 148.001 17.064 148.096 17.064H150.132C150.227 17.064 150.306 17.1035 150.369 17.1824C150.448 17.2455 150.487 17.3323 150.487 17.4428V19.4554L150.489 19.5012C150.503 19.7084 150.613 19.8189 150.82 19.8327L150.866 19.8342H152.879C152.989 19.8342 153.076 19.8737 153.139 19.9526C153.218 20.0157 153.258 20.0947 153.258 20.1894V22.2255L153.259 22.2607C153.266 22.3418 153.297 22.4169 153.352 22.4859L153.382 22.5082C153.445 22.5496 153.516 22.5732 153.596 22.5791L153.636 22.5806H155.649C155.745 22.5806 155.824 22.5565 155.884 22.5082L155.909 22.4859C155.978 22.4169 156.017 22.3418 156.026 22.2607L156.028 22.2255V17.4428C156.028 17.1903 155.901 17.064 155.649 17.064V16.8901C155.802 16.8901 155.949 16.9286 156.056 17.0358C156.163 17.143 156.201 17.2898 156.201 17.4428V22.2255C156.201 22.3745 156.137 22.5035 156.032 22.6088C155.929 22.7119 155.794 22.7545 155.649 22.7545H153.636C153.548 22.7545 153.464 22.7385 153.386 22.7061C153.418 22.7841 153.431 22.8707 153.431 22.9594V24.9719C153.431 25.125 153.393 25.2717 153.286 25.3789C153.178 25.4862 153.032 25.5246 152.879 25.5246H145.35C145.197 25.5246 145.05 25.4862 144.943 25.3789C144.835 25.2717 144.797 25.125 144.797 24.9719ZM152.879 22.4068V22.5806H148.096V22.4068H152.879ZM155.649 16.8901V17.064H153.636V16.8901H155.649ZM153.258 16.6852V14.6728C153.258 14.436 153.147 14.3101 152.925 14.2953L152.879 14.2938V14.1201C153.032 14.1201 153.178 14.1584 153.286 14.2657C153.393 14.3729 153.431 14.5197 153.431 14.6728V16.6852C153.431 16.7846 153.456 16.8273 153.475 16.8463C153.494 16.8654 153.537 16.8901 153.636 16.8901V17.064L153.59 17.0625C153.383 17.0487 153.273 16.9383 153.259 16.7311L153.258 16.6852ZM152.879 14.1201V14.2938H148.096V14.1201H152.879ZM147.741 13.9388V9.15606C147.741 8.91936 147.63 8.79356 147.408 8.77875L147.362 8.77726V8.60352C147.515 8.60353 147.662 8.64185 147.769 8.74907C147.876 8.85629 147.915 9.00302 147.915 9.15606V13.9388C147.915 13.9858 147.928 14.0299 147.96 14.0748C148.005 14.1066 148.049 14.1201 148.096 14.1201V14.2938C148.001 14.2938 147.915 14.2623 147.836 14.1992C147.78 14.1301 147.749 14.0551 147.742 13.9739L147.741 13.9388ZM147.362 8.60352V8.77726H145.35V8.60352H147.362Z" fill="black"/>
<path d="M122.664 24.9719V9.15606C122.664 9.00303 122.702 8.85629 122.81 8.74907C122.917 8.64183 123.064 8.60352 123.217 8.60352V8.77726L123.171 8.77875C122.949 8.79352 122.838 8.91932 122.838 9.15606V24.9719L122.839 25.0178C122.853 25.225 122.964 25.3355 123.171 25.3493L123.217 25.3507H141.803L141.849 25.3493C142.056 25.3355 142.166 25.225 142.18 25.0178L142.181 24.9719V9.15606C142.181 8.91934 142.07 8.79354 141.849 8.77875L141.803 8.77726V8.60352C141.956 8.60352 142.102 8.64186 142.21 8.74907C142.317 8.85629 142.355 9.00302 142.355 9.15606V24.9719C142.355 25.125 142.317 25.2717 142.21 25.3789C142.102 25.4862 141.956 25.5246 141.803 25.5246H123.217C123.064 25.5246 122.917 25.4862 122.81 25.3789C122.702 25.2717 122.664 25.125 122.664 24.9719ZM130.746 22.4068V22.5806H125.963V22.4068H130.746ZM130.951 22.2255V9.15606C130.951 9.00302 130.989 8.85629 131.096 8.74907C131.204 8.64183 131.35 8.60352 131.504 8.60352V8.77726L131.458 8.77875C131.236 8.79356 131.125 8.91937 131.125 9.15606V22.2255L131.123 22.2607C131.114 22.3418 131.075 22.4169 131.006 22.4859L130.982 22.5082C130.921 22.5565 130.842 22.5806 130.746 22.5806V22.4068C130.822 22.4068 130.86 22.3861 130.883 22.3629C130.936 22.3104 130.951 22.2659 130.951 22.2255ZM139.032 22.4068V22.5806H134.25V22.4068H139.032ZM139.238 22.2255V9.15606C139.238 9.00302 139.276 8.85629 139.383 8.74907C139.49 8.64185 139.637 8.60353 139.79 8.60352V8.77726C139.538 8.77728 139.411 8.90358 139.411 9.15606V22.2255L139.41 22.2607C139.401 22.3418 139.362 22.4169 139.293 22.4859L139.268 22.5082C139.208 22.5565 139.129 22.5806 139.032 22.5806V22.4068C139.108 22.4068 139.147 22.3861 139.17 22.3629C139.223 22.3104 139.238 22.2659 139.238 22.2255ZM133.895 22.2255V9.15606C133.895 8.90356 133.768 8.77726 133.516 8.77726V8.60352C133.669 8.60352 133.816 8.64187 133.923 8.74907C134.03 8.85629 134.069 9.00302 134.069 9.15606V22.2255C134.069 22.2725 134.082 22.3167 134.114 22.3616C134.159 22.3934 134.203 22.4068 134.25 22.4068V22.5806L134.215 22.5791C134.134 22.5722 134.059 22.5411 133.99 22.4859C133.934 22.4169 133.903 22.3418 133.896 22.2607L133.895 22.2255ZM125.608 22.2255V9.15606C125.608 8.90356 125.482 8.77726 125.229 8.77726V8.60352C125.382 8.60352 125.529 8.64183 125.636 8.74907C125.744 8.85629 125.782 9.00303 125.782 9.15606V22.2255C125.782 22.2725 125.795 22.3167 125.827 22.3616C125.872 22.3934 125.916 22.4068 125.963 22.4068V22.5806L125.928 22.5791C125.847 22.5722 125.772 22.5411 125.703 22.4859C125.648 22.4169 125.616 22.3418 125.609 22.2607L125.608 22.2255ZM141.803 8.60352V8.77726H139.79V8.60352H141.803ZM133.516 8.60352V8.77726H131.504V8.60352H133.516ZM125.229 8.60352V8.77726H123.217V8.60352H125.229Z" fill="black"/>
<path d="M117.107 24.9719V20.1894C117.107 20.1514 117.095 20.121 117.054 20.0883L117.039 20.0762L117.027 20.0612C117 20.0277 116.965 20.0081 116.902 20.0081H114.89C114.796 20.0081 114.705 19.9935 114.624 19.9581C114.663 20.0264 114.685 20.1041 114.685 20.1894V22.2255C114.685 22.3744 114.621 22.5035 114.515 22.6088C114.418 22.7066 114.293 22.7545 114.156 22.7545H112.119C112.079 22.7545 112.034 22.7694 111.982 22.822C111.959 22.8452 111.938 22.8835 111.938 22.9594V24.9719C111.938 25.125 111.9 25.2717 111.793 25.3789C111.685 25.4862 111.539 25.5246 111.386 25.5246H109.373C109.22 25.5246 109.073 25.4862 108.966 25.3789C108.859 25.2717 108.82 25.125 108.82 24.9719V9.15606C108.82 9.00302 108.859 8.85629 108.966 8.74907C109.073 8.64186 109.22 8.60352 109.373 8.60352V8.77726C109.12 8.77726 108.994 8.90356 108.994 9.15606V24.9719L108.996 25.0178C109.01 25.2398 109.136 25.3507 109.373 25.3507H111.386L111.431 25.3493C111.639 25.3354 111.749 25.225 111.763 25.0178L111.764 24.9719V22.9594C111.764 22.8627 111.788 22.7842 111.837 22.7238L111.859 22.699C111.938 22.6201 112.025 22.5806 112.119 22.5806H114.156C114.238 22.5806 114.309 22.5565 114.368 22.5082L114.392 22.4859C114.461 22.4169 114.5 22.3418 114.509 22.2607L114.511 22.2255V20.1894C114.511 20.0947 114.471 20.0157 114.392 19.9526C114.337 19.8835 114.27 19.8446 114.19 19.8359L114.156 19.8342V19.6603C114.241 19.6603 114.318 19.6814 114.387 19.7207C114.351 19.6396 114.337 19.5487 114.337 19.4554V17.4428C114.337 17.2898 114.375 17.143 114.483 17.0358C114.59 16.9286 114.737 16.8901 114.89 16.8901V17.064C114.637 17.064 114.511 17.1903 114.511 17.4428V19.4554L114.512 19.5012C114.526 19.7084 114.637 19.8189 114.844 19.8327L114.89 19.8342H116.902C117.013 19.8342 117.099 19.8737 117.163 19.9526C117.241 20.0157 117.281 20.0947 117.281 20.1894V24.9719L117.282 25.0178C117.296 25.225 117.407 25.3355 117.614 25.3493L117.66 25.3507H119.672C119.909 25.3507 120.035 25.2398 120.05 25.0178L120.051 24.9719V9.15606C120.051 8.90356 119.925 8.77726 119.672 8.77726V8.60352C119.825 8.60352 119.972 8.64183 120.079 8.74907C120.187 8.85629 120.225 9.00302 120.225 9.15606V24.9719C120.225 25.125 120.187 25.2717 120.079 25.3789C119.972 25.4862 119.825 25.5246 119.672 25.5246H117.66C117.507 25.5246 117.36 25.4862 117.253 25.3789C117.145 25.2717 117.107 25.125 117.107 24.9719ZM114.156 19.6603V19.8342H112.119V19.6603H114.156ZM111.764 19.4554V9.15606C111.764 8.91936 111.653 8.79356 111.431 8.77875L111.386 8.77726V8.60352C111.539 8.60353 111.685 8.64185 111.793 8.74907C111.9 8.85629 111.938 9.00302 111.938 9.15606V19.4554C111.938 19.522 111.954 19.5732 111.984 19.6155C112.028 19.6471 112.072 19.6603 112.119 19.6603V19.8342L112.084 19.8327C112.003 19.8258 111.928 19.7947 111.859 19.7395C111.804 19.6704 111.773 19.5892 111.766 19.496L111.764 19.4554ZM116.902 16.8901V17.064H114.89V16.8901H116.902ZM117.107 16.6852V9.15606C117.107 9.00303 117.145 8.85629 117.253 8.74907C117.36 8.64183 117.507 8.60352 117.66 8.60352V8.77726L117.614 8.77875C117.392 8.79353 117.281 8.91933 117.281 9.15606V16.6852L117.279 16.7311C117.266 16.9382 117.155 17.0487 116.948 17.0625L116.902 17.064V16.8901C117.002 16.8901 117.044 16.8654 117.063 16.8463C117.082 16.8273 117.107 16.7846 117.107 16.6852ZM119.672 8.60352V8.77726H117.66V8.60352H119.672ZM111.386 8.60352V8.77726H109.373V8.60352H111.386Z" fill="black"/>
<path d="M94.9688 24.9719V9.15606C94.9688 9.00302 95.0072 8.85629 95.1145 8.74907C95.2217 8.64185 95.3684 8.60352 95.5214 8.60352V8.77726C95.2689 8.77728 95.1427 8.90358 95.1426 9.15606V24.9719L95.1441 25.0178C95.1589 25.2398 95.2847 25.3507 95.5214 25.3507H97.534L97.5799 25.3493C97.787 25.3355 97.8975 25.225 97.9113 25.0178L97.9128 24.9719V20.1894C97.9128 20.1065 97.937 20.0356 97.9854 19.9769L98.0075 19.9526C98.0765 19.8835 98.1517 19.8446 98.2329 19.8359L98.2679 19.8342H103.051L103.096 19.8327C103.304 19.8189 103.414 19.7084 103.428 19.5012L103.429 19.4554V17.4428C103.429 17.2061 103.318 17.0803 103.096 17.0655L103.051 17.064V16.8901C103.137 16.8901 103.221 16.9025 103.298 16.9324C103.268 16.856 103.255 16.7716 103.255 16.6852V11.9026C103.255 11.8213 103.272 11.7448 103.306 11.6756C103.228 11.708 103.14 11.7213 103.051 11.7213H98.2679C98.2275 11.7213 98.183 11.7363 98.1305 11.7888C98.1021 11.8172 98.0867 11.8509 98.0867 11.9026V16.6852C98.0867 16.7519 98.1029 16.803 98.132 16.8453C98.1768 16.8769 98.2209 16.8901 98.2679 16.8901V17.064C98.1732 17.064 98.0864 17.0325 98.0075 16.9693C97.9522 16.9003 97.9212 16.8191 97.9143 16.7259L97.9128 16.6852V11.9026C97.9128 11.8079 97.9443 11.729 98.0075 11.6658C98.0864 11.5869 98.1732 11.5474 98.2679 11.5474H103.051L103.096 11.5459C103.304 11.5321 103.414 11.4217 103.428 11.2145L103.429 11.1686V9.15606C103.429 8.91935 103.318 8.79354 103.096 8.77875L103.051 8.77726V8.60352C103.204 8.60352 103.35 8.64186 103.458 8.74907C103.565 8.85629 103.603 9.00302 103.603 9.15606V11.1686C103.603 11.2612 103.589 11.3513 103.554 11.4318C103.631 11.3934 103.717 11.3735 103.808 11.3735V11.5474C103.698 11.5474 103.603 11.5869 103.524 11.6658C103.461 11.729 103.429 11.8079 103.429 11.9026V16.6852L103.431 16.7311C103.446 16.953 103.571 17.064 103.808 17.064H105.821L105.867 17.0625C106.074 17.0487 106.184 16.9382 106.198 16.7311L106.2 16.6852V11.9026C106.2 11.8079 106.16 11.729 106.081 11.6658C106.026 11.5968 105.952 11.558 105.861 11.5494L105.821 11.5474V11.3735C105.972 11.3735 106.106 11.4282 106.204 11.5421C106.312 11.6345 106.373 11.7575 106.373 11.9026V16.6852C106.373 16.8383 106.335 16.985 106.228 17.0922C106.121 17.1994 105.974 17.2379 105.821 17.2379H103.808C103.722 17.2379 103.638 17.2257 103.561 17.1958C103.591 17.2721 103.603 17.3565 103.603 17.4428V19.4554C103.603 19.6084 103.565 19.7551 103.458 19.8624C103.35 19.9696 103.204 20.0081 103.051 20.0081H98.2679C98.2275 20.0081 98.183 20.0229 98.1305 20.0754C98.1021 20.1038 98.0867 20.1377 98.0867 20.1894V24.9719C98.0867 25.125 98.0482 25.2717 97.941 25.3789C97.8338 25.4862 97.6871 25.5246 97.534 25.5246H95.5214C95.3684 25.5246 95.2217 25.4862 95.1145 25.3789C95.0072 25.2717 94.9688 25.125 94.9688 24.9719ZM103.051 16.8901V17.064H98.2679V16.8901H103.051ZM105.821 11.3735V11.5474H103.808V11.3735H105.821ZM103.051 8.60352V8.77726H95.5214V8.60352H103.051Z" fill="black"/>
<path d="M89.396 11.9026C89.396 11.8214 89.4128 11.7448 89.4466 11.6756C89.368 11.708 89.2806 11.7213 89.1911 11.7213H84.4085C84.3215 11.7213 84.2395 11.7023 84.1637 11.6664C84.2049 11.7359 84.2272 11.8153 84.2272 11.9026V22.2255C84.2272 22.3148 84.204 22.3968 84.1629 22.4709C84.2371 22.4299 84.3192 22.4068 84.4085 22.4068V22.5806L84.3733 22.5825C84.2922 22.5911 84.217 22.6299 84.1479 22.699C84.0848 22.7621 84.0533 22.8489 84.0533 22.9594V24.9719L84.0548 25.0126C84.0617 25.1058 84.0927 25.187 84.1479 25.2561C84.217 25.3113 84.2922 25.3424 84.3733 25.3493L84.4085 25.3507H89.1911C89.4278 25.3507 89.5536 25.2398 89.5684 25.0178L89.5699 24.9719V22.9594C89.5698 22.7069 89.4436 22.5806 89.1911 22.5806V22.4068C89.2791 22.4068 89.3649 22.4196 89.4424 22.4508C89.4123 22.3804 89.396 22.3051 89.396 22.2255V11.9026ZM89.1911 22.4068V22.5806H84.4085V22.4068H89.1911ZM91.9612 11.3735V11.5474H89.9487V11.3735H91.9612ZM83.6745 11.3735V11.5474H81.6619V11.3735H83.6745ZM89.1911 8.60352V8.77726H84.4085V8.60352H89.1911ZM89.5699 22.2255L89.5713 22.2607C89.5783 22.3418 89.6093 22.4169 89.6645 22.4859L89.6949 22.5082C89.7674 22.5565 89.852 22.5806 89.9487 22.5806H91.9612L92.0016 22.5791C92.08 22.5732 92.1451 22.5496 92.1968 22.5082L92.2216 22.4859C92.2907 22.4169 92.3294 22.3418 92.3381 22.2607L92.34 22.2255V11.9026C92.34 11.8079 92.3005 11.729 92.2216 11.6658C92.1664 11.5968 92.093 11.558 92.0016 11.5494L91.9612 11.5474V11.3735C92.1123 11.3735 92.246 11.4282 92.3445 11.5421C92.4525 11.6345 92.5139 11.7575 92.5139 11.9026V22.2255C92.5139 22.3745 92.4498 22.5035 92.3446 22.6088C92.2415 22.7119 92.1062 22.7545 91.9612 22.7545H89.9487C89.8603 22.7545 89.7764 22.7386 89.6989 22.7063C89.7306 22.7842 89.7438 22.8707 89.7438 22.9594V24.9719C89.7438 25.125 89.7053 25.2717 89.5981 25.3789C89.4908 25.4862 89.3441 25.5246 89.1911 25.5246H84.4085C84.2716 25.5246 84.1469 25.4779 84.0393 25.3918L84.0243 25.3797L84.0122 25.3647C83.922 25.252 83.8794 25.118 83.8794 24.9719V22.9594C83.8794 22.8653 83.8974 22.7753 83.9381 22.6956C83.8584 22.7363 83.7686 22.7545 83.6745 22.7545H81.6619C81.5159 22.7545 81.382 22.7118 81.2693 22.6217L81.2542 22.6097L81.2422 22.5945C81.1562 22.487 81.1094 22.3624 81.1094 22.2255V11.9026C81.1094 11.7649 81.1571 11.6407 81.2549 11.5428C81.3661 11.4317 81.5048 11.3735 81.6619 11.3735V11.5474C81.5515 11.5474 81.4568 11.5869 81.3779 11.6658L81.3557 11.6903C81.3074 11.749 81.2831 11.8198 81.2831 11.9026V22.2255L81.2846 22.2607C81.2915 22.3418 81.3227 22.4169 81.3779 22.4859C81.4568 22.549 81.5515 22.5806 81.6619 22.5806H83.6745C83.7711 22.5806 83.8497 22.5565 83.9101 22.5082L83.9349 22.4859C84.0039 22.4169 84.0429 22.3418 84.0515 22.2607L84.0533 22.2255V11.9026C84.0533 11.8079 84.0138 11.729 83.9349 11.6658C83.8717 11.5869 83.785 11.5474 83.6745 11.5474V11.3735C83.7707 11.3735 83.8599 11.3958 83.9376 11.4413C83.8984 11.3576 83.8794 11.2658 83.8794 11.1686V9.15606C83.8794 9.0111 83.922 8.87591 84.0251 8.77281C84.1304 8.66755 84.2595 8.60352 84.4085 8.60352V8.77726L84.3733 8.77919C84.2922 8.78782 84.217 8.8266 84.1479 8.89567C84.0848 8.95879 84.0533 9.04562 84.0533 9.15606V11.1686C84.0533 11.2791 84.0848 11.3738 84.1479 11.4528L84.1779 11.4749C84.2386 11.5163 84.3037 11.54 84.3733 11.5459L84.4085 11.5474H89.1911C89.4436 11.5474 89.5699 11.4212 89.5699 11.1686V9.15606C89.5698 8.90356 89.4436 8.77726 89.1911 8.77726V8.60352C89.3441 8.60352 89.4908 8.64186 89.5981 8.74907C89.7053 8.85629 89.7437 9.00302 89.7438 9.15606V11.1686C89.7438 11.2611 89.7295 11.3512 89.6948 11.4317C89.772 11.3933 89.8572 11.3735 89.9487 11.3735V11.5474C89.8382 11.5474 89.7434 11.5869 89.6645 11.6658C89.6014 11.729 89.5699 11.8079 89.5699 11.9026V22.2255Z" fill="black"/>
<path d="M67.2812 24.9719V11.9026C67.2812 11.7649 67.3289 11.6407 67.4268 11.5428C67.538 11.4317 67.6768 11.3735 67.8339 11.3735V11.5474L67.7931 11.5494C67.7 11.558 67.6188 11.5968 67.5498 11.6658L67.5276 11.6903C67.4792 11.749 67.4551 11.8198 67.4551 11.9026V24.9719L67.4566 25.0178C67.4704 25.225 67.5809 25.3355 67.7881 25.3493L67.8339 25.3507H75.3629C75.5997 25.3507 75.7255 25.2398 75.7403 25.0178L75.7417 24.9719V22.9594C75.7417 22.7069 75.6155 22.5806 75.3629 22.5806V22.4068C75.4509 22.4068 75.5368 22.4196 75.6143 22.4508C75.5841 22.3804 75.568 22.3051 75.568 22.2255V20.1894C75.568 20.1515 75.5557 20.121 75.5149 20.0883L75.4997 20.0762L75.4877 20.0612C75.4609 20.0277 75.4262 20.0081 75.3629 20.0081H73.3505C73.1975 20.0081 73.0506 19.9696 72.9434 19.8624C72.8362 19.7551 72.7978 19.6084 72.7978 19.4554V17.4428C72.7978 17.3795 72.7782 17.3449 72.7447 17.3182L72.7296 17.3062L72.7176 17.291C72.6849 17.2501 72.6545 17.2379 72.6165 17.2379H70.5804C70.5399 17.2379 70.4954 17.2528 70.4428 17.3054C70.4197 17.3286 70.3991 17.3669 70.3991 17.4428V22.2255C70.3991 22.2725 70.4123 22.3167 70.444 22.3616C70.489 22.3934 70.5332 22.4068 70.5804 22.4068V22.5806L70.5452 22.5791C70.4641 22.5722 70.389 22.5411 70.32 22.4859C70.2647 22.4169 70.2336 22.3418 70.2266 22.2607L70.2252 22.2255V17.4428C70.2252 17.3461 70.2494 17.2676 70.2977 17.2072L70.32 17.1824C70.389 17.1134 70.4641 17.0746 70.5452 17.0659L70.5804 17.064H72.6165C72.7112 17.064 72.7902 17.1035 72.8533 17.1824C72.9322 17.2455 72.9717 17.3323 72.9717 17.4428V19.4554L72.9732 19.5012C72.987 19.7084 73.0975 19.8189 73.3047 19.8327L73.3505 19.8342H75.3629C75.4734 19.8342 75.5603 19.8736 75.6235 19.9526C75.7024 20.0157 75.7417 20.0947 75.7417 20.1894V22.2255L75.7432 22.2607C75.7501 22.3418 75.7813 22.4169 75.8366 22.4859L75.8668 22.5082C75.929 22.5496 76 22.5732 76.0799 22.5791L76.1207 22.5806H78.1331C78.2297 22.5806 78.3083 22.5565 78.3687 22.5082L78.3935 22.4859C78.4625 22.4169 78.5015 22.3418 78.5101 22.2607L78.5119 22.2255V17.4428C78.5119 17.1903 78.3856 17.064 78.1331 17.064V16.8901C78.2862 16.8901 78.4329 16.9286 78.5401 17.0358C78.6473 17.143 78.6858 17.2898 78.6858 17.4428V22.2255C78.6858 22.3745 78.6217 22.5035 78.5165 22.6088C78.4134 22.7119 78.2781 22.7545 78.1331 22.7545H76.1207C76.0323 22.7545 75.9483 22.7386 75.8708 22.7063C75.9025 22.7842 75.9156 22.8707 75.9156 22.9594V24.9719C75.9156 25.125 75.8773 25.2717 75.7701 25.3789C75.6628 25.4862 75.516 25.5246 75.3629 25.5246H67.8339C67.6809 25.5246 67.534 25.4862 67.4268 25.3789C67.3196 25.2717 67.2813 25.125 67.2812 24.9719ZM75.3629 22.4068V22.5806H70.5804V22.4068H75.3629ZM78.1331 16.8901V17.064H76.1207V16.8901H78.1331ZM75.7417 16.6852V14.6728C75.7417 14.4202 75.6155 14.2938 75.3629 14.2938V14.1201C75.4509 14.1201 75.5368 14.1329 75.6143 14.164C75.5841 14.0937 75.568 14.0184 75.568 13.9388V11.9026C75.568 11.8214 75.5847 11.7448 75.6184 11.6756C75.5399 11.708 75.4525 11.7213 75.3629 11.7213H70.5804C70.4934 11.7213 70.4114 11.7023 70.3355 11.6664C70.3768 11.7359 70.3991 11.8153 70.3991 11.9026V13.9388C70.3991 13.9858 70.4123 14.03 70.444 14.0748C70.489 14.1067 70.5332 14.1201 70.5804 14.1201V14.2938L70.5452 14.2924C70.4641 14.2855 70.389 14.2544 70.32 14.1992C70.2647 14.1301 70.2336 14.0551 70.2266 13.9739L70.2252 13.9388V11.9026C70.2252 11.8079 70.1858 11.729 70.1069 11.6658C70.0438 11.5869 69.9568 11.5474 69.8464 11.5474V11.3735C69.9426 11.3735 70.032 11.3958 70.1096 11.4413C70.0704 11.3576 70.0514 11.2658 70.0514 11.1686V9.15606C70.0514 9.01111 70.0939 8.87591 70.197 8.77281C70.3022 8.66755 70.4314 8.60352 70.5804 8.60352V8.77726L70.5452 8.77919C70.4641 8.78783 70.389 8.82664 70.32 8.89567L70.2977 8.92044C70.2494 8.98086 70.2252 9.05941 70.2252 9.15606V11.1686C70.2252 11.2791 70.2568 11.3738 70.32 11.4528L70.3499 11.4749C70.4106 11.5163 70.4757 11.54 70.5452 11.5459L70.5804 11.5474H75.3629C75.6155 11.5474 75.7417 11.4212 75.7417 11.1686V9.15606C75.7417 8.90356 75.6155 8.77726 75.3629 8.77726V8.60352C75.516 8.60352 75.6628 8.64183 75.7701 8.74907C75.8773 8.85629 75.9156 9.00303 75.9156 9.15606V11.1686C75.9156 11.2611 75.9014 11.3512 75.8667 11.4317C75.9439 11.3933 76.0292 11.3735 76.1207 11.3735V11.5474L76.0799 11.5494C75.9867 11.558 75.9056 11.5968 75.8366 11.6658L75.8143 11.6903C75.766 11.749 75.7417 11.8198 75.7417 11.9026V13.9388L75.7432 13.9739C75.7501 14.0551 75.7813 14.1301 75.8366 14.1992L75.8668 14.2214C75.929 14.2629 76 14.2864 76.0799 14.2924L76.1207 14.2938H78.1331C78.2436 14.2938 78.3304 14.2623 78.3935 14.1992C78.4625 14.1301 78.5015 14.0551 78.5101 13.9739L78.5119 13.9388V11.9026C78.5119 11.8079 78.4724 11.729 78.3935 11.6658C78.3304 11.5869 78.2436 11.5474 78.1331 11.5474V11.3735C78.2842 11.3735 78.4179 11.4282 78.5164 11.5421C78.6244 11.6345 78.6858 11.7575 78.6858 11.9026V13.9388C78.6858 14.0877 78.6218 14.2169 78.5165 14.3222C78.4134 14.4253 78.2781 14.4677 78.1331 14.4677H76.1207C76.0323 14.4677 75.9483 14.4518 75.8708 14.4195C75.9025 14.4975 75.9156 14.5841 75.9156 14.6728V16.6852C75.9156 16.7846 75.9404 16.8273 75.9594 16.8463C75.9784 16.8654 76.0212 16.8901 76.1207 16.8901V17.064L76.0747 17.0625C75.8528 17.0477 75.7417 16.9219 75.7417 16.6852ZM75.3629 14.1201V14.2938H70.5804V14.1201H75.3629ZM78.1331 11.3735V11.5474H76.1207V11.3735H78.1331ZM69.8464 11.3735V11.5474H67.8339V11.3735H69.8464ZM75.3629 8.60352V8.77726H70.5804V8.60352H75.3629Z" fill="black"/>
<path d="M61.7008 11.9026C61.7008 11.8214 61.7175 11.7448 61.7513 11.6756C61.6727 11.708 61.5854 11.7213 61.4959 11.7213H56.7132C56.6262 11.7213 56.5443 11.7022 56.4685 11.6664C56.5097 11.7359 56.5319 11.8153 56.5319 11.9026V22.2255C56.5319 22.3148 56.5087 22.3968 56.4676 22.4709C56.5418 22.4298 56.6239 22.4068 56.7132 22.4068V22.5806C56.6185 22.5806 56.5317 22.6201 56.4528 22.699L56.4305 22.7238C56.3822 22.7842 56.3581 22.8627 56.3581 22.9594V24.9719L56.3596 25.0126C56.3665 25.1058 56.3975 25.187 56.4528 25.2561C56.5317 25.3192 56.6185 25.3507 56.7132 25.3507H61.4959L61.5417 25.3493C61.7489 25.3354 61.8594 25.225 61.8732 25.0178L61.8747 24.9719V22.9594C61.8747 22.7227 61.7637 22.5969 61.5417 22.5821L61.4959 22.5806V22.4068C61.5838 22.4068 61.6696 22.4196 61.7471 22.4508C61.717 22.3804 61.7008 22.3051 61.7008 22.2255V11.9026ZM61.4959 22.4068V22.5806H56.7132V22.4068H61.4959ZM64.2659 11.3735V11.5474H62.2535V11.3735H64.2659ZM55.9793 11.3735V11.5474H53.9668V11.3735H55.9793ZM61.4959 8.60352V8.77726H56.7132V8.60352H61.4959ZM61.8747 22.2255L61.8762 22.2607C61.8831 22.3418 61.9141 22.4169 61.9694 22.4859L61.9996 22.5082C62.0618 22.5496 62.1329 22.5732 62.2128 22.5791L62.2535 22.5806H64.2659C64.3626 22.5806 64.4413 22.5565 64.5017 22.5082L64.5265 22.4859C64.5955 22.4169 64.6343 22.3418 64.6429 22.2607L64.6447 22.2255V11.9026C64.6447 11.8079 64.6054 11.729 64.5265 11.6658C64.4633 11.5869 64.3764 11.5474 64.2659 11.5474V11.3735C64.4171 11.3735 64.5511 11.4282 64.6496 11.5424C64.7574 11.6347 64.8186 11.7576 64.8186 11.9026V22.2255C64.8186 22.3745 64.7545 22.5035 64.6493 22.6088C64.5462 22.7119 64.4109 22.7545 64.2659 22.7545H62.2535C62.1651 22.7545 62.0812 22.7385 62.0036 22.7061C62.0354 22.7841 62.0484 22.8707 62.0484 22.9594V24.9719C62.0484 25.125 62.0101 25.2717 61.9029 25.3789C61.7957 25.4862 61.6489 25.5246 61.4959 25.5246H56.7132C56.5763 25.5246 56.4517 25.4778 56.3442 25.3918L56.329 25.3797L56.317 25.3647C56.2269 25.252 56.1842 25.118 56.1842 24.9719V22.9594C56.1842 22.8653 56.2022 22.7753 56.243 22.6956C56.1632 22.7363 56.0734 22.7545 55.9793 22.7545H53.9668C53.8207 22.7545 53.6867 22.7118 53.574 22.6217L53.559 22.6097L53.5469 22.5945C53.4609 22.487 53.4141 22.3624 53.4141 22.2255V11.9026C53.4141 11.7649 53.4619 11.6407 53.5598 11.5428C53.6709 11.4317 53.8097 11.3735 53.9668 11.3735V11.5474L53.9261 11.5494C53.8329 11.558 53.7517 11.5968 53.6826 11.6658C53.6195 11.729 53.588 11.8079 53.588 11.9026V22.2255L53.5894 22.2607C53.5964 22.3418 53.6274 22.4169 53.6826 22.4859C53.7517 22.5412 53.8329 22.5722 53.9261 22.5791L53.9668 22.5806H55.9793L56.0195 22.5791C56.098 22.5732 56.1631 22.5496 56.2149 22.5082L56.2397 22.4859C56.3087 22.4169 56.3475 22.3418 56.3562 22.2607L56.3581 22.2255V11.9026C56.3581 11.8079 56.3186 11.729 56.2397 11.6658C56.1845 11.5968 56.111 11.558 56.0195 11.5494L55.9793 11.5474V11.3735C56.0756 11.3735 56.1648 11.3958 56.2424 11.4413C56.2032 11.3576 56.1842 11.2658 56.1842 11.1686V9.15606C56.1842 9.01112 56.2267 8.87591 56.3298 8.77281C56.435 8.66756 56.5642 8.60352 56.7132 8.60352V8.77726C56.6185 8.77727 56.5317 8.81677 56.4528 8.89567L56.4305 8.92044C56.3822 8.98085 56.3581 9.05942 56.3581 9.15606V11.1686L56.3596 11.2093C56.3665 11.3025 56.3975 11.3837 56.4528 11.4528L56.4828 11.4749C56.5535 11.5232 56.6303 11.5474 56.7132 11.5474H61.4959L61.5417 11.5459C61.7489 11.5321 61.8594 11.4216 61.8732 11.2145L61.8747 11.1686V9.15606C61.8747 8.91936 61.7637 8.79356 61.5417 8.77875L61.4959 8.77726V8.60352C61.6489 8.60353 61.7957 8.64185 61.9029 8.74907C62.0101 8.85629 62.0484 9.00302 62.0484 9.15606V11.1686C62.0484 11.2611 62.0342 11.3512 61.9995 11.4317C62.0767 11.3933 62.162 11.3735 62.2535 11.3735V11.5474L62.2128 11.5494C62.1196 11.558 62.0384 11.5968 61.9694 11.6658L61.9471 11.6903C61.8988 11.749 61.8747 11.8198 61.8747 11.9026V22.2255Z" fill="black"/>
<path d="M22.5514 24.9719V22.9594C22.5514 22.8653 22.5694 22.7753 22.6102 22.6956C22.5304 22.7363 22.4405 22.7545 22.3464 22.7545H20.3339C20.1879 22.7545 20.0539 22.7118 19.9412 22.6217L19.9261 22.6097L19.914 22.5945C19.828 22.487 19.7813 22.3624 19.7812 22.2255V11.9026C19.7812 11.7649 19.8291 11.6407 19.927 11.5428C20.0381 11.4317 20.1769 11.3735 20.3339 11.3735V11.5474L20.2933 11.5494C20.2 11.558 20.1189 11.5968 20.0498 11.6658C19.9867 11.729 19.9551 11.8079 19.9551 11.9026V22.2255L19.9566 22.2607C19.9635 22.3418 19.9946 22.4169 20.0498 22.4859C20.1189 22.5412 20.2 22.5722 20.2933 22.5791L20.3339 22.5806H22.3464C22.443 22.5806 22.5217 22.5565 22.5821 22.5082L22.6069 22.4859C22.6759 22.4169 22.7147 22.3418 22.7234 22.2607L22.7253 22.2255V17.4428C22.7253 17.3462 22.7494 17.2676 22.7977 17.2072L22.82 17.1824C22.8989 17.1035 22.9857 17.064 23.0804 17.064H27.8629C28.0997 17.064 28.2256 16.953 28.2404 16.7311L28.2419 16.6852V14.6728C28.2419 14.4202 28.1155 14.2938 27.8629 14.2938V14.1201C28.016 14.1201 28.1628 14.1584 28.2701 14.2657C28.3773 14.3729 28.4156 14.5197 28.4156 14.6728V16.6852C28.4156 16.8383 28.3773 16.985 28.2701 17.0922C28.1628 17.1994 28.016 17.2379 27.8629 17.2379H23.0804C23.0399 17.2379 22.9954 17.2528 22.9428 17.3054C22.9197 17.3286 22.8991 17.3669 22.8991 17.4428V22.2255C22.899 22.3148 22.8759 22.3968 22.8348 22.4709C22.909 22.4298 22.9911 22.4068 23.0804 22.4068V22.5806C22.9857 22.5806 22.8989 22.6201 22.82 22.699L22.7977 22.7238C22.7494 22.7842 22.7253 22.8627 22.7253 22.9594V24.9719L22.7268 25.0126C22.7337 25.1058 22.7647 25.187 22.82 25.2561C22.8989 25.3192 22.9857 25.3507 23.0804 25.3507H30.6331C30.8699 25.3507 30.9956 25.2398 31.0104 25.0178L31.0119 24.9719V22.9594C31.0119 22.7069 30.8856 22.5806 30.6331 22.5806V22.4068C30.7862 22.4068 30.933 22.4452 31.0402 22.5524C31.1474 22.6596 31.1858 22.8063 31.1858 22.9594V24.9719C31.1858 25.125 31.1474 25.2717 31.0402 25.3789C30.933 25.4862 30.7862 25.5246 30.6331 25.5246H23.0804C22.9435 25.5246 22.8189 25.4778 22.7114 25.3918L22.6962 25.3797L22.6842 25.3647C22.5941 25.252 22.5514 25.118 22.5514 24.9719ZM30.6331 22.4068V22.5806H23.0804V22.4068H30.6331ZM27.8629 14.1201V14.2938H23.0804V14.1201H27.8629ZM22.7253 13.9388V11.9026C22.7253 11.8079 22.6858 11.729 22.6069 11.6658C22.5438 11.5869 22.4568 11.5474 22.3464 11.5474V11.3735C22.4426 11.3735 22.532 11.3958 22.6096 11.4413C22.5704 11.3576 22.5514 11.2658 22.5514 11.1686V9.15606C22.5514 9.01112 22.5939 8.87591 22.697 8.77281C22.8022 8.66756 22.9314 8.60352 23.0804 8.60352V8.77726C22.9857 8.77727 22.8989 8.81677 22.82 8.89567L22.7977 8.92044C22.7494 8.98085 22.7253 9.05942 22.7253 9.15606V11.1686L22.7268 11.2093C22.7337 11.3025 22.7647 11.3837 22.82 11.4528L22.8499 11.4749C22.9207 11.5232 22.9975 11.5474 23.0804 11.5474H30.6331C30.8856 11.5474 31.0119 11.4212 31.0119 11.1686V9.15606C31.0119 8.90356 30.8856 8.77726 30.6331 8.77726V8.60352C30.7862 8.60352 30.933 8.64183 31.0402 8.74907C31.1474 8.85629 31.1858 9.00303 31.1858 9.15606V11.1686C31.1858 11.3217 31.1474 11.4684 31.0402 11.5756C30.933 11.6829 30.7862 11.7213 30.6331 11.7213H23.0804C22.9933 11.7213 22.9114 11.7023 22.8355 11.6664C22.8768 11.7359 22.8991 11.8153 22.8991 11.9026V13.9388C22.8991 13.9857 22.9123 14.0299 22.9439 14.0747C22.9889 14.1066 23.0332 14.1201 23.0804 14.1201V14.2938C22.9857 14.2938 22.8989 14.2623 22.82 14.1992C22.7647 14.1301 22.7337 14.0551 22.7268 13.9739L22.7253 13.9388ZM22.3464 11.3735V11.5474H20.3339V11.3735H22.3464ZM30.6331 8.60352V8.77726H23.0804V8.60352H30.6331Z" fill="black"/>
<path d="M14.2164 24.9719V20.1894C14.2164 20.1514 14.2042 20.121 14.1633 20.0883L14.1482 20.0762L14.1362 20.0612C14.1094 20.0277 14.0748 20.0081 14.0115 20.0081H9.2288C9.0919 20.008 8.9673 19.9613 8.8598 19.8753L8.84466 19.8631L8.83264 19.8481C8.74251 19.7354 8.69985 19.6014 8.69985 19.4554V17.4428C8.69985 17.3535 8.71602 17.2679 8.75252 17.1912C8.67338 17.2242 8.58533 17.2379 8.49494 17.2379H6.48238C6.32932 17.2379 6.18263 17.1994 6.07539 17.0922C5.96816 16.985 5.92969 16.8383 5.92969 16.6852V9.15606C5.9297 9.00302 5.96817 8.85629 6.07539 8.74907C6.18262 8.64186 6.32933 8.60352 6.48238 8.60352V8.77726C6.22987 8.77727 6.10361 8.90357 6.10358 9.15606V16.6852C6.10358 16.9377 6.22985 17.064 6.48238 17.064H8.49494L8.54079 17.0625C8.74795 17.0487 8.85846 16.9382 8.87226 16.7311L8.87374 16.6852V9.15606C8.87372 8.91935 8.76272 8.79355 8.54079 8.77875L8.49494 8.77726V8.60352C8.64799 8.60352 8.79471 8.64185 8.90193 8.74907C9.00916 8.85629 9.04748 9.00302 9.04749 9.15606V16.6852C9.04749 16.7766 9.03357 16.8656 8.99971 16.9455C9.06949 16.9099 9.14611 16.8901 9.2288 16.8901V17.064C9.13412 17.064 9.04731 17.1035 8.96841 17.1824C8.90528 17.2455 8.87375 17.3323 8.87374 17.4428V19.4554L8.87523 19.496C8.88213 19.5893 8.91316 19.6704 8.96841 19.7395C9.03744 19.7947 9.11253 19.8258 9.19364 19.8327L9.2288 19.8342H14.0115C14.122 19.8342 14.2088 19.8737 14.2719 19.9526C14.3508 20.0157 14.3903 20.0947 14.3903 20.1894V24.9719L14.3918 25.0178C14.4056 25.225 14.5161 25.3355 14.7233 25.3493L14.7691 25.3507H16.7815C17.0183 25.3507 17.1442 25.2398 17.159 25.0178L17.1605 24.9719V9.15606C17.1605 8.90356 17.0341 8.77726 16.7815 8.77726V8.60352C16.9346 8.60352 17.0814 8.64183 17.1887 8.74907C17.2959 8.85629 17.3342 9.00302 17.3342 9.15606V24.9719C17.3342 25.125 17.2959 25.2717 17.1887 25.3789C17.0814 25.4862 16.9346 25.5246 16.7815 25.5246H14.7691C14.6161 25.5246 14.4694 25.4862 14.3621 25.3789C14.2549 25.2717 14.2164 25.125 14.2164 24.9719ZM14.0115 16.8901V17.064H9.2288V16.8901H14.0115ZM14.2164 16.6852V9.15606C14.2164 9.00302 14.2549 8.85629 14.3621 8.74907C14.4694 8.64186 14.6161 8.60352 14.7691 8.60352V8.77726L14.7233 8.77875C14.5013 8.79353 14.3903 8.91933 14.3903 9.15606V16.6852L14.3888 16.7311C14.375 16.9382 14.2645 17.0487 14.0574 17.0625L14.0115 17.064V16.8901C14.111 16.8901 14.1536 16.8654 14.1727 16.8463C14.1917 16.8273 14.2164 16.7846 14.2164 16.6852ZM16.7815 8.60352V8.77726H14.7691V8.60352H16.7815ZM8.49494 8.60352V8.77726H6.48238V8.60352H8.49494Z" fill="black"/>
<path d="M160.227 11.5699C160.132 11.5699 160.045 11.5384 159.966 11.4752C159.903 11.3963 159.872 11.3016 159.872 11.1911V9.17863C159.872 9.06814 159.903 8.98132 159.966 8.91819C160.045 8.83927 160.132 8.7998 160.227 8.7998H165.009C165.262 8.7998 165.388 8.92608 165.388 9.17863V11.1911C165.388 11.4437 165.262 11.5699 165.009 11.5699H160.227ZM157.48 14.3164C157.37 14.3164 157.275 14.2848 157.196 14.2217C157.133 14.1428 157.102 14.056 157.102 13.9612V11.9251C157.102 11.8304 157.133 11.7515 157.196 11.6883C157.275 11.6094 157.37 11.5699 157.48 11.5699H159.493C159.603 11.5699 159.69 11.6094 159.753 11.6883C159.832 11.7515 159.872 11.8304 159.872 11.9251V13.9612C159.872 14.056 159.832 14.1428 159.753 14.2217C159.69 14.2848 159.603 14.3164 159.493 14.3164H157.48ZM167.78 11.5699C167.89 11.5699 167.977 11.6094 168.04 11.6883C168.119 11.7515 168.158 11.8304 168.158 11.9251V16.7077C168.158 16.9602 168.032 17.0865 167.78 17.0865H165.767C165.515 17.0865 165.388 16.9602 165.388 16.7077V11.9251C165.388 11.8304 165.42 11.7515 165.483 11.6883C165.562 11.6094 165.657 11.5699 165.767 11.5699H167.78ZM159.872 17.4653C159.872 17.3549 159.903 17.268 159.966 17.2049C160.045 17.126 160.132 17.0865 160.227 17.0865H165.009C165.262 17.0865 165.388 17.2128 165.388 17.4653V19.4778C165.388 19.7304 165.262 19.8567 165.009 19.8567H160.227C160.132 19.8567 160.045 19.8251 159.966 19.7619C159.903 19.683 159.872 19.5883 159.872 19.4778V17.4653ZM160.227 25.3732C160.132 25.3732 160.045 25.3417 159.966 25.2785C159.903 25.1996 159.872 25.1049 159.872 24.9944V22.9819C159.872 22.8714 159.903 22.7846 159.966 22.7215C160.045 22.6426 160.132 22.6031 160.227 22.6031H162.263C162.358 22.6031 162.437 22.6426 162.5 22.7215C162.579 22.7846 162.618 22.8714 162.618 22.9819V24.9944C162.618 25.1049 162.579 25.1996 162.5 25.2785C162.437 25.3417 162.358 25.3732 162.263 25.3732H160.227Z" fill="black"/>
<path d="M159.7 24.9944V22.9818C159.7 22.8369 159.742 22.7017 159.846 22.5986C159.951 22.4934 160.08 22.4293 160.229 22.4293V22.603C160.134 22.6031 160.047 22.6425 159.968 22.7215C159.905 22.7846 159.874 22.8714 159.874 22.9818V24.9944L159.875 25.0351C159.882 25.1283 159.913 25.2095 159.968 25.2785C160.047 25.3417 160.134 25.3732 160.229 25.3732H162.265C162.348 25.3732 162.419 25.349 162.477 25.3007L162.502 25.2785C162.571 25.2095 162.61 25.1283 162.618 25.0351L162.62 24.9944V22.9818C162.62 22.8714 162.581 22.7846 162.502 22.7215C162.439 22.6425 162.36 22.603 162.265 22.603V22.4293C162.41 22.4293 162.533 22.4905 162.625 22.5984C162.739 22.6969 162.794 22.8307 162.794 22.9818V24.9944C162.794 25.1515 162.736 25.2903 162.625 25.4014C162.527 25.4993 162.403 25.5471 162.265 25.5471H160.229C160.092 25.5471 159.967 25.5003 159.86 25.4143L159.845 25.4021L159.833 25.3872C159.743 25.2745 159.7 25.1404 159.7 24.9944ZM162.265 22.4293V22.603H160.229V22.4293H162.265ZM159.7 19.4778V17.4653C159.7 17.3203 159.742 17.1851 159.846 17.082C159.951 16.9768 160.08 16.9126 160.229 16.9126V17.0865C160.134 17.0865 160.047 17.126 159.968 17.2049C159.905 17.268 159.874 17.3548 159.874 17.4653V19.4778L159.875 19.5185C159.882 19.6117 159.913 19.6929 159.968 19.762C160.037 19.8172 160.113 19.8482 160.194 19.8551L160.229 19.8566H165.012L165.057 19.8551C165.265 19.8413 165.375 19.7308 165.389 19.5237L165.39 19.4778V17.4653C165.39 17.2285 165.279 17.1028 165.057 17.0879L165.012 17.0865V16.9126C165.098 16.9126 165.182 16.9249 165.259 16.9549C165.229 16.8785 165.216 16.7941 165.216 16.7077V11.9251C165.216 11.8438 165.233 11.7673 165.267 11.6981C165.188 11.7304 165.101 11.7438 165.012 11.7438H160.229C160.142 11.7438 160.06 11.7247 159.984 11.6889C160.025 11.7584 160.047 11.8377 160.047 11.9251V13.9612C160.047 14.1102 159.983 14.2394 159.878 14.3446C159.775 14.4477 159.64 14.4902 159.495 14.4902H157.482C157.336 14.4902 157.202 14.4475 157.09 14.3574L157.075 14.3454L157.062 14.3303C156.976 14.2227 156.93 14.0982 156.93 13.9612V11.9251C156.93 11.7874 156.978 11.6632 157.075 11.5653C157.187 11.4542 157.325 11.396 157.482 11.396V11.5699C157.372 11.5699 157.277 11.6094 157.198 11.6883C157.135 11.7514 157.104 11.8304 157.104 11.9251V13.9612L157.105 13.9964C157.112 14.0775 157.143 14.1526 157.198 14.2216C157.277 14.2848 157.372 14.3163 157.482 14.3163H159.495L159.535 14.3148C159.614 14.3089 159.679 14.2853 159.731 14.2439L159.755 14.2216C159.824 14.1526 159.863 14.0775 159.872 13.9964L159.874 13.9612V11.9251C159.874 11.8304 159.834 11.7514 159.755 11.6883C159.7 11.6192 159.627 11.5804 159.535 11.5718L159.495 11.5699V11.396C159.591 11.396 159.68 11.4182 159.758 11.4636C159.719 11.3799 159.7 11.2882 159.7 11.1911V9.17852C159.7 9.03356 159.742 8.89837 159.846 8.79527C159.951 8.69003 160.08 8.62599 160.229 8.62598V8.79972C160.134 8.79974 160.047 8.83923 159.968 8.91813C159.905 8.98125 159.874 9.06807 159.874 9.17852V11.1911L159.875 11.2317C159.882 11.325 159.913 11.4062 159.968 11.4752L159.998 11.4973C160.069 11.5457 160.146 11.5699 160.229 11.5699H165.012L165.057 11.5684C165.265 11.5546 165.375 11.4441 165.389 11.2369L165.39 11.1911V9.17852C165.39 8.94181 165.279 8.81601 165.057 8.80121L165.012 8.79972V8.62598C165.165 8.62598 165.311 8.66431 165.419 8.77153C165.526 8.87875 165.564 9.02548 165.564 9.17852V11.1911C165.564 11.2836 165.55 11.3736 165.515 11.4542C165.592 11.4157 165.678 11.396 165.769 11.396V11.5699L165.728 11.5718C165.635 11.5804 165.554 11.6192 165.485 11.6883C165.422 11.7514 165.39 11.8304 165.39 11.9251V16.7077L165.392 16.7535C165.406 16.9607 165.516 17.0712 165.723 17.085L165.769 17.0865H167.782C168.018 17.0865 168.144 16.9755 168.159 16.7535L168.16 16.7077V11.9251C168.16 11.8304 168.121 11.7514 168.042 11.6883C167.979 11.6094 167.892 11.5699 167.782 11.5699V11.396C167.933 11.396 168.066 11.4506 168.165 11.5645C168.273 11.6569 168.334 11.7799 168.334 11.9251V16.7077C168.334 16.8607 168.296 17.0074 168.189 17.1147C168.081 17.2219 167.935 17.2604 167.782 17.2604H165.769C165.683 17.2604 165.598 17.2481 165.522 17.2181C165.552 17.2945 165.564 17.3788 165.564 17.4653V19.4778C165.564 19.6309 165.526 19.7776 165.419 19.8848C165.311 19.992 165.165 20.0305 165.012 20.0305H160.229C160.092 20.0305 159.967 19.9837 159.86 19.8977L159.845 19.8856L159.833 19.8706C159.743 19.7579 159.7 19.6239 159.7 19.4778ZM165.012 16.9126V17.0865H160.229V16.9126H165.012ZM167.782 11.396V11.5699H165.769V11.396H167.782ZM159.495 11.396V11.5699H157.482V11.396H159.495ZM165.012 8.62598V8.79972H160.229V8.62598H165.012Z" fill="black"/>
<path d="M22.9927 5.5698C22.7551 5.33223 22.7551 4.94706 22.9927 4.7095L24.1006 3.60153C24.3382 3.36397 24.7233 3.36397 24.9609 3.60153L26.0787 4.71932C26.3163 4.95689 26.3163 5.34206 26.0787 5.57962L24.9707 6.68759C24.7332 6.92515 24.348 6.92515 24.1104 6.68759L22.9927 5.5698Z" fill="black"/>
<path d="M25.9558 5.45674L26.0787 5.57956L24.9707 6.68753L24.8479 6.5647L25.9558 5.45674ZM25.9558 4.84228L24.838 3.72445C24.6683 3.55477 24.3933 3.55478 24.2236 3.72445L23.1156 4.83242C22.9459 5.00211 22.9459 5.27719 23.1156 5.44688L24.2334 6.5647C24.4031 6.73435 24.6782 6.73438 24.8479 6.5647L24.9707 6.68753L24.948 6.70914C24.717 6.91794 24.3642 6.91801 24.1331 6.70924L24.1105 6.68764L22.9927 5.56981C22.7625 5.33966 22.7553 4.97094 22.9711 4.73215L22.9927 4.70949L24.1006 3.60152L24.1233 3.57991C24.3621 3.36416 24.7308 3.37138 24.9609 3.60152L26.0788 4.71935L26.1003 4.74211C26.309 4.9732 26.3091 5.32583 26.1003 5.55691L26.0787 5.57956L25.9558 5.45674C26.1255 5.28706 26.1255 5.01197 25.9558 4.84228Z" fill="black"/>
<path d="M27.3911 5.5698C27.1535 5.33223 27.1535 4.94706 27.3911 4.7095L28.4991 3.60153C28.7366 3.36397 29.1218 3.36397 29.3594 3.60153L30.4771 4.71932C30.7147 4.95689 30.7147 5.34206 30.4771 5.57962L29.3692 6.68759C29.1316 6.92515 28.7464 6.92515 28.5089 6.68759L27.3911 5.5698Z" fill="black"/>
<path d="M30.3543 5.45674L30.4771 5.57956L29.3691 6.68753L29.2463 6.5647L30.3543 5.45674ZM30.3543 4.84228L29.2365 3.72445C29.0668 3.55477 28.7917 3.55478 28.622 3.72445L27.514 4.83242C27.3443 5.00211 27.3443 5.27719 27.514 5.44688L28.6319 6.5647C28.8016 6.73435 29.0766 6.73438 29.2463 6.5647L29.3691 6.68753L29.3465 6.70914C29.1154 6.91794 28.7627 6.91801 28.5316 6.70924L28.5089 6.68764L27.3911 5.56981C27.161 5.33966 27.1537 4.97094 27.3695 4.73215L27.3911 4.70949L28.4991 3.60152L28.5217 3.57991C28.7605 3.36416 29.1292 3.37138 29.3594 3.60152L30.4772 4.71935L30.4987 4.74211C30.7075 4.9732 30.7075 5.32583 30.4987 5.55691L30.4771 5.57956L30.3543 5.45674C30.5239 5.28706 30.5239 5.01197 30.3543 4.84228Z" fill="black"/>
<path d="M44.6719 9.11694C44.6719 8.8652 44.8759 8.66113 45.1277 8.66113H51.3571C51.6088 8.66113 51.8129 8.86521 51.8129 9.11694V11.244C51.8129 11.4958 51.6088 11.6999 51.3571 11.6999H45.1277C44.8759 11.6999 44.6719 11.4958 44.6719 11.244V9.11694Z" fill="black"/>
<path d="M44.5208 11.3955C44.7725 11.3955 44.9766 11.5996 44.9766 11.8513L44.9766 25.0697C44.9766 25.3215 44.7725 25.5256 44.5208 25.5256L42.3937 25.5256C42.1419 25.5256 41.9378 25.3215 41.9378 25.0697L41.9378 11.8513C41.9378 11.5996 42.1419 11.3955 42.3937 11.3955L44.5208 11.3955Z" fill="black"/>
</svg>
