<svg width="604" height="114" viewBox="0 0 604 114" fill="none" xmlns="http://www.w3.org/2000/svg">
<path d="M0 8.55399C0 3.82975 3.82975 0 8.55399 0H594.755C599.479 0 603.309 3.82975 603.309 8.55399V104.763C603.309 109.487 599.479 113.317 594.755 113.317H8.55395C3.82971 113.317 0 109.487 0 104.763V8.55399Z" fill="#FF7F39"/>
<path d="M529.16 57.6165C529.16 58.4885 529.596 58.9245 530.468 58.9245H537.417C538.289 58.9245 538.725 59.3605 538.725 60.2326V76.7464C538.725 77.0734 538.589 77.3731 538.316 77.6456C538.098 77.8636 537.798 77.9726 537.417 77.9726H530.468C530.086 77.9726 529.759 77.8636 529.487 77.6456C529.269 77.3731 529.16 77.0734 529.16 76.7464V69.7157C529.16 69.3887 529.024 69.1162 528.751 68.8982C528.533 68.6257 528.233 68.4895 527.852 68.4895H520.903C520.031 68.4895 519.595 68.0534 519.595 67.1814V60.2326C519.595 59.8511 519.459 59.5513 519.186 59.3333C518.968 59.0608 518.696 58.9245 518.369 58.9245H511.338C511.011 58.9245 510.711 59.0608 510.439 59.3333C510.221 59.5513 510.112 59.8511 510.112 60.2326V76.7464C510.112 77.0734 510.221 77.3731 510.439 77.6456C510.711 77.8636 511.011 77.9726 511.338 77.9726H527.852C528.724 77.9726 529.16 78.4086 529.16 79.2807V86.2295C529.16 87.1015 528.724 87.5376 527.852 87.5376H501.855C500.983 87.5376 500.547 87.1015 500.547 86.2295V31.6195C500.547 30.7475 500.983 30.3115 501.855 30.3115H508.804C509.676 30.3115 510.112 30.7475 510.112 31.6195V48.1333C510.112 48.4604 510.221 48.7601 510.439 49.0326C510.711 49.2506 511.011 49.3596 511.338 49.3596H527.852C528.724 49.3596 529.16 49.7956 529.16 50.6676V57.6165Z" fill="black"/>
<path d="M489.639 30.3115C490.511 30.3115 490.947 30.7475 490.947 31.6195V86.2295C490.947 87.1015 490.511 87.5376 489.639 87.5376H425.464C424.592 87.5376 424.156 87.1015 424.156 86.2295V31.6195C424.156 30.7475 424.592 30.3115 425.464 30.3115H432.413C433.285 30.3115 433.721 30.7475 433.721 31.6195V76.7464C433.721 77.0734 433.83 77.3731 434.048 77.6456C434.321 77.8636 434.62 77.9726 434.947 77.9726H451.461C451.843 77.9726 452.143 77.8636 452.361 77.6456C452.633 77.3731 452.769 77.0734 452.769 76.7464V31.6195C452.769 30.7475 453.205 30.3115 454.077 30.3115H461.026C461.898 30.3115 462.334 30.7475 462.334 31.6195V76.7464C462.334 77.0734 462.443 77.3731 462.661 77.6456C462.934 77.8636 463.233 77.9726 463.56 77.9726H480.074C480.456 77.9726 480.756 77.8636 480.974 77.6456C481.246 77.3731 481.382 77.0734 481.382 76.7464V31.6195C481.382 30.7475 481.818 30.3115 482.69 30.3115H489.639Z" fill="black"/>
<path d="M377.636 87.5376C376.764 87.5376 376.328 87.1015 376.328 86.2295V31.6195C376.328 30.7475 376.764 30.3115 377.636 30.3115H384.585C385.457 30.3115 385.893 30.7475 385.893 31.6195V67.1814C385.893 67.5629 386.002 67.8899 386.22 68.1625C386.493 68.3805 386.792 68.4895 387.119 68.4895H394.15C394.477 68.4895 394.749 68.6257 394.967 68.8982C395.24 69.1162 395.376 69.3887 395.376 69.7157V76.7464C395.376 77.0734 395.24 77.3731 394.967 77.6456C394.749 77.8636 394.477 77.9726 394.15 77.9726H387.119C386.792 77.9726 386.493 78.1089 386.22 78.3814C386.002 78.5994 385.893 78.8991 385.893 79.2807V86.2295C385.893 87.1015 385.457 87.5376 384.585 87.5376H377.636ZM413.198 30.3115C414.07 30.3115 414.506 30.7475 414.506 31.6195V86.2295C414.506 87.1015 414.07 87.5376 413.198 87.5376H406.249C405.377 87.5376 404.941 87.1015 404.941 86.2295V69.7157C404.941 69.3887 404.805 69.1162 404.532 68.8982C404.314 68.6257 404.015 68.4895 403.633 68.4895H396.684C395.812 68.4895 395.376 68.0534 395.376 67.1814V60.2326C395.376 59.3605 395.812 58.9245 396.684 58.9245H403.633C404.505 58.9245 404.941 58.4885 404.941 57.6165V31.6195C404.941 30.7475 405.377 30.3115 406.249 30.3115H413.198Z" fill="black"/>
<path d="M329.808 87.5376C328.936 87.5376 328.5 87.1015 328.5 86.2295V31.6195C328.5 30.7475 328.936 30.3115 329.808 30.3115H355.805C356.677 30.3115 357.113 30.7475 357.113 31.6195V38.5684C357.113 39.4404 356.677 39.8764 355.805 39.8764H339.291C338.964 39.8764 338.664 40.0127 338.392 40.2852C338.174 40.5032 338.065 40.7757 338.065 41.1027V57.6165C338.065 57.998 338.174 58.325 338.392 58.5975C338.664 58.8155 338.964 58.9245 339.291 58.9245H355.805C356.677 58.9245 357.113 59.3605 357.113 60.2326V67.1814C357.113 68.0534 356.677 68.4895 355.805 68.4895H339.291C338.964 68.4895 338.664 68.6257 338.392 68.8982C338.174 69.1162 338.065 69.3887 338.065 69.7157V86.2295C338.065 87.1015 337.629 87.5376 336.757 87.5376H329.808ZM365.37 39.8764C365.751 39.8764 366.051 40.0127 366.269 40.2852C366.542 40.5032 366.678 40.7757 366.678 41.1027V57.6165C366.678 58.4885 366.242 58.9245 365.37 58.9245H358.421C357.549 58.9245 357.113 58.4885 357.113 57.6165V41.1027C357.113 40.7757 357.222 40.5032 357.44 40.2852C357.713 40.0127 358.04 39.8764 358.421 39.8764H365.37Z" fill="black"/>
<path d="M309.308 38.5684C309.308 39.4404 308.872 39.8764 308 39.8764H291.486C291.159 39.8764 290.86 39.7674 290.587 39.5494C290.369 39.2769 290.26 38.9499 290.26 38.5684V31.6195C290.26 31.238 290.369 30.9383 290.587 30.7203C290.86 30.4478 291.159 30.3115 291.486 30.3115H308C308.872 30.3115 309.308 30.7475 309.308 31.6195V38.5684ZM317.565 39.8764C317.947 39.8764 318.246 40.0127 318.465 40.2852C318.737 40.5032 318.873 40.7757 318.873 41.1027V76.7464C318.873 77.0734 318.737 77.3731 318.465 77.6456C318.246 77.8636 317.947 77.9726 317.565 77.9726H310.616C310.235 77.9726 309.908 77.8636 309.635 77.6456C309.417 77.3731 309.308 77.0734 309.308 76.7464V41.1027C309.308 40.7757 309.417 40.5032 309.635 40.2852C309.908 40.0127 310.235 39.8764 310.616 39.8764H317.565ZM280.695 76.7464V41.1027C280.695 40.7757 280.804 40.5032 281.022 40.2852C281.295 40.0127 281.622 39.8764 282.003 39.8764H288.952C289.334 39.8764 289.633 40.0127 289.851 40.2852C290.124 40.5032 290.26 40.7757 290.26 41.1027V76.7464C290.26 77.0734 290.124 77.3731 289.851 77.6456C289.633 77.8636 289.334 77.9726 288.952 77.9726H282.003C281.622 77.9726 281.295 77.8636 281.022 77.6456C280.804 77.3731 280.695 77.0734 280.695 76.7464ZM290.26 79.2807C290.26 78.8991 290.369 78.5994 290.587 78.3814C290.86 78.1089 291.159 77.9726 291.486 77.9726H308C308.872 77.9726 309.308 78.4086 309.308 79.2807V86.2295C309.308 87.1015 308.872 87.5376 308 87.5376H291.486C291.159 87.5376 290.86 87.4286 290.587 87.2105C290.369 86.938 290.26 86.611 290.26 86.2295V79.2807Z" fill="black"/>
<path d="M261.48 38.5684C261.48 39.4404 261.044 39.8764 260.172 39.8764H243.658C243.331 39.8764 243.032 39.7674 242.759 39.5494C242.541 39.2769 242.432 38.9499 242.432 38.5684V31.6195C242.432 31.238 242.541 30.9383 242.759 30.7203C243.032 30.4478 243.331 30.3115 243.658 30.3115H260.172C261.044 30.3115 261.48 30.7475 261.48 31.6195V38.5684ZM234.175 87.5376C233.303 87.5376 232.867 87.1015 232.867 86.2295V41.1027C232.867 40.7757 232.976 40.5032 233.194 40.2852C233.467 40.0127 233.794 39.8764 234.175 39.8764H241.124C241.506 39.8764 241.805 40.0127 242.023 40.2852C242.296 40.5032 242.432 40.7757 242.432 41.1027V48.1333C242.432 48.4604 242.541 48.7601 242.759 49.0326C243.032 49.2506 243.331 49.3596 243.658 49.3596H260.172C261.044 49.3596 261.48 49.7956 261.48 50.6676V57.6165C261.48 58.4885 261.916 58.9245 262.788 58.9245H269.737C270.609 58.9245 271.045 59.3605 271.045 60.2326V76.7464C271.045 77.0734 270.909 77.3731 270.636 77.6456C270.418 77.8636 270.119 77.9726 269.737 77.9726H262.788C262.407 77.9726 262.08 77.8636 261.807 77.6456C261.589 77.3731 261.48 77.0734 261.48 76.7464V69.7157C261.48 69.3887 261.344 69.1162 261.071 68.8982C260.853 68.6257 260.554 68.4895 260.172 68.4895H253.223C252.351 68.4895 251.915 68.0534 251.915 67.1814V60.2326C251.915 59.8511 251.779 59.5513 251.507 59.3333C251.289 59.0608 251.016 58.9245 250.689 58.9245H243.658C243.331 58.9245 243.032 59.0608 242.759 59.3333C242.541 59.5513 242.432 59.8511 242.432 60.2326V76.7464C242.432 77.0734 242.541 77.3731 242.759 77.6456C243.032 77.8636 243.331 77.9726 243.658 77.9726H260.172C261.044 77.9726 261.48 78.4086 261.48 79.2807V86.2295C261.48 87.1015 261.044 87.5376 260.172 87.5376H234.175ZM271.045 48.1333C271.045 48.4604 270.909 48.7601 270.636 49.0326C270.418 49.2506 270.119 49.3596 269.737 49.3596H262.788C262.407 49.3596 262.08 49.2506 261.807 49.0326C261.589 48.7601 261.48 48.4604 261.48 48.1333V41.1027C261.48 40.7757 261.589 40.5032 261.807 40.2852C262.08 40.0127 262.407 39.8764 262.788 39.8764H269.737C270.119 39.8764 270.418 40.0127 270.636 40.2852C270.909 40.5032 271.045 40.7757 271.045 41.1027V48.1333Z" fill="black"/>
<path d="M213.644 38.5684C213.644 39.4404 213.208 39.8764 212.336 39.8764H195.822C195.495 39.8764 195.196 39.7674 194.923 39.5494C194.705 39.2769 194.596 38.9499 194.596 38.5684V31.6195C194.596 31.238 194.705 30.9383 194.923 30.7203C195.196 30.4478 195.495 30.3115 195.822 30.3115H212.336C213.208 30.3115 213.644 30.7475 213.644 31.6195V38.5684ZM221.901 39.8764C222.283 39.8764 222.582 40.0127 222.8 40.2852C223.073 40.5032 223.209 40.7757 223.209 41.1027V76.7464C223.209 77.0734 223.073 77.3731 222.8 77.6456C222.582 77.8636 222.283 77.9726 221.901 77.9726H214.952C214.571 77.9726 214.244 77.8636 213.971 77.6456C213.753 77.3731 213.644 77.0734 213.644 76.7464V41.1027C213.644 40.7757 213.753 40.5032 213.971 40.2852C214.244 40.0127 214.571 39.8764 214.952 39.8764H221.901ZM185.031 76.7464V41.1027C185.031 40.7757 185.14 40.5032 185.358 40.2852C185.631 40.0127 185.958 39.8764 186.339 39.8764H193.288C193.67 39.8764 193.969 40.0127 194.187 40.2852C194.46 40.5032 194.596 40.7757 194.596 41.1027V76.7464C194.596 77.0734 194.46 77.3731 194.187 77.6456C193.969 77.8636 193.67 77.9726 193.288 77.9726H186.339C185.958 77.9726 185.631 77.8636 185.358 77.6456C185.14 77.3731 185.031 77.0734 185.031 76.7464ZM194.596 79.2807C194.596 78.8991 194.705 78.5994 194.923 78.3814C195.196 78.1089 195.495 77.9726 195.822 77.9726H212.336C213.208 77.9726 213.644 78.4086 213.644 79.2807V86.2295C213.644 87.1015 213.208 87.5376 212.336 87.5376H195.822C195.495 87.5376 195.196 87.4286 194.923 87.2105C194.705 86.938 194.596 86.611 194.596 86.2295V79.2807Z" fill="black"/>
<path d="M79.6662 39.8764C79.3392 39.8764 79.0394 39.7674 78.7669 39.5494C78.5489 39.2769 78.4399 38.9499 78.4399 38.5684V31.6195C78.4399 31.238 78.5489 30.9383 78.7669 30.7203C79.0394 30.4478 79.3392 30.3115 79.6662 30.3115H105.745C106.617 30.3115 107.053 30.7475 107.053 31.6195V38.5684C107.053 39.4404 106.617 39.8764 105.745 39.8764H79.6662ZM77.1319 39.8764C77.5134 39.8764 77.8132 40.0127 78.0312 40.2852C78.3037 40.5032 78.4399 40.7757 78.4399 41.1027V48.1333C78.4399 48.4604 78.5489 48.7601 78.7669 49.0326C79.0394 49.2506 79.3392 49.3596 79.6662 49.3596H96.18C97.052 49.3596 97.488 49.7956 97.488 50.6676V57.6165C97.488 58.4885 97.052 58.9245 96.18 58.9245H79.6662C79.3392 58.9245 79.0394 59.0608 78.7669 59.3333C78.5489 59.5513 78.4399 59.8511 78.4399 60.2326V76.7464C78.4399 77.0734 78.3037 77.3731 78.0312 77.6456C77.8132 77.8636 77.5134 77.9726 77.1319 77.9726H70.183C69.8015 77.9726 69.4745 77.8636 69.202 77.6456C68.984 77.3731 68.875 77.0734 68.875 76.7464V41.1027C68.875 40.7757 68.984 40.5032 69.202 40.2852C69.4745 40.0127 69.8015 39.8764 70.183 39.8764H77.1319ZM79.6662 87.5376C79.3392 87.5376 79.0394 87.4286 78.7669 87.2105C78.5489 86.938 78.4399 86.611 78.4399 86.2295V79.2807C78.4399 78.8991 78.5489 78.5994 78.7669 78.3814C79.0394 78.1089 79.3392 77.9726 79.6662 77.9726H105.745C106.617 77.9726 107.053 78.4086 107.053 79.2807V86.2295C107.053 87.1015 106.617 87.5376 105.745 87.5376H79.6662Z" fill="black"/>
<path d="M22.3705 58.9245C21.4985 58.9245 21.0625 58.4885 21.0625 57.6165V31.6195C21.0625 30.7475 21.4985 30.3115 22.3705 30.3115H29.3194C30.1914 30.3115 30.6274 30.7475 30.6274 31.6195V57.6165C30.6274 58.4885 30.1914 58.9245 29.3194 58.9245H22.3705ZM57.9324 30.3115C58.8044 30.3115 59.2404 30.7475 59.2404 31.6195V86.2295C59.2404 87.1015 58.8044 87.5376 57.9324 87.5376H50.9835C50.1115 87.5376 49.6755 87.1015 49.6755 86.2295V69.7157C49.6755 69.3887 49.5393 69.1162 49.2668 68.8982C49.0487 68.6257 48.749 68.4895 48.3675 68.4895H31.8537C31.5267 68.4895 31.2269 68.3805 30.9544 68.1625C30.7364 67.8899 30.6274 67.5629 30.6274 67.1814V60.2326C30.6274 59.8511 30.7364 59.5513 30.9544 59.3333C31.2269 59.0608 31.5267 58.9245 31.8537 58.9245H48.3675C49.2395 58.9245 49.6755 58.4885 49.6755 57.6165V31.6195C49.6755 30.7475 50.1115 30.3115 50.9835 30.3115H57.9324Z" fill="black"/>
<path d="M499.953 86.2281V31.6178C499.953 31.0894 500.086 30.5828 500.456 30.2125C500.826 29.8424 501.333 29.71 501.862 29.71V30.3099C500.99 30.3099 500.554 30.746 500.554 31.6178V86.2281L500.559 86.3864C500.61 87.1529 501.044 87.5361 501.862 87.5361H527.859L528.017 87.531C528.732 87.4832 529.114 87.1017 529.162 86.3864L529.167 86.2281V79.279C529.167 78.4617 528.783 78.0273 528.017 77.9762L527.859 77.9711V77.3711C528.162 77.3712 528.459 77.4153 528.726 77.5228C528.622 77.2799 528.566 77.02 528.566 76.7451V69.7145C528.566 69.5835 528.524 69.4785 528.383 69.3656L528.331 69.3236L528.289 69.2719C528.197 69.1563 528.077 69.0885 527.859 69.0885H520.91C520.381 69.0885 519.875 68.9556 519.504 68.5854C519.134 68.2151 519.001 67.7086 519.001 67.1801V60.2309C519.001 60.0125 518.933 59.8931 518.818 59.8006L518.766 59.7591L518.724 59.7068C518.611 59.5657 518.506 59.5234 518.375 59.5234H511.345C511.205 59.5235 511.051 59.575 510.87 59.7565C510.79 59.8365 510.719 59.9689 510.719 60.2309V76.7451C510.719 76.9074 510.765 77.0598 510.874 77.2149C511.029 77.3247 511.182 77.3711 511.345 77.3711V77.9711C511.018 77.971 510.718 77.8622 510.445 77.6442C510.255 77.4058 510.148 77.1466 510.124 76.8665L510.119 76.7451V60.2309C510.119 59.8972 510.202 59.626 510.369 59.4174L510.445 59.3318C510.718 59.0594 511.018 58.923 511.345 58.923H518.375C518.702 58.923 518.975 59.0593 519.193 59.3318C519.465 59.5498 519.602 59.8495 519.602 60.2309V67.1801L519.607 67.3384C519.654 68.0537 520.036 68.4352 520.751 68.4829L520.91 68.488H527.859C528.24 68.4881 528.54 68.6244 528.758 68.8968C529.03 69.1148 529.167 69.3875 529.167 69.7145V76.7451L529.172 76.8665C529.196 77.1466 529.303 77.4058 529.494 77.6442L529.598 77.7211C529.813 77.8642 530.058 77.9455 530.334 77.9659L530.475 77.9711H537.423C537.757 77.9711 538.029 77.888 538.237 77.7211L538.323 77.6442C538.561 77.4059 538.695 77.1465 538.725 76.8665L538.731 76.7451V60.2309C538.731 59.359 538.295 58.923 537.423 58.923V58.3226C537.952 58.3226 538.459 58.4554 538.829 58.8257C539.199 59.1959 539.332 59.7025 539.332 60.2309V76.7451C539.332 77.2594 539.11 77.705 538.747 78.0684C538.391 78.4245 537.924 78.5715 537.423 78.5715H530.475C530.169 78.5715 529.88 78.5162 529.612 78.4045C529.721 78.6739 529.767 78.9726 529.767 79.279V86.2281C529.767 86.7566 529.634 87.2632 529.264 87.6334C528.894 88.0037 528.387 88.1365 527.859 88.1365H501.862C501.333 88.1365 500.827 88.0037 500.456 87.6334C500.086 87.2632 499.953 86.7567 499.953 86.2281ZM527.859 77.3711V77.9711H511.345V77.3711H527.859ZM537.423 58.3226V58.923H530.475V58.3226H537.423ZM529.167 57.615V50.6664C529.167 49.849 528.783 49.4142 528.017 49.3631L527.859 49.358V48.758C528.387 48.7581 528.894 48.8904 529.264 49.2606C529.634 49.6309 529.767 50.1379 529.767 50.6664V57.615C529.767 57.9581 529.852 58.1056 529.918 58.1714C529.983 58.2371 530.131 58.3226 530.475 58.3226V58.923L530.316 58.9179C529.601 58.8702 529.219 58.4888 529.172 57.7733L529.167 57.615ZM527.859 48.758V49.358H511.345V48.758H527.859ZM510.119 48.132V31.6178C510.119 30.8005 509.735 30.3661 508.969 30.315L508.811 30.3099V29.71C509.339 29.71 509.846 29.8423 510.216 30.2125C510.586 30.5828 510.718 31.0894 510.719 31.6178V48.132C510.719 48.2944 510.765 48.4467 510.874 48.6018C511.03 48.7116 511.182 48.758 511.345 48.758V49.358C511.018 49.3579 510.718 49.2491 510.445 49.0311C510.255 48.7927 510.148 48.5335 510.124 48.2534L510.119 48.132ZM508.811 29.71V30.3099H501.862V29.71H508.811Z" fill="black"/>
<path d="M423.547 86.2281V31.6178C423.547 31.0894 423.679 30.5828 424.049 30.2125C424.42 29.8423 424.927 29.71 425.455 29.71V30.3099L425.297 30.315C424.53 30.366 424.147 30.8004 424.147 31.6178V86.2281L424.152 86.3864C424.2 87.1018 424.582 87.4833 425.297 87.531L425.455 87.5361H489.63L489.788 87.531C490.504 87.4833 490.885 87.1018 490.933 86.3864L490.938 86.2281V31.6178C490.938 30.8005 490.555 30.3661 489.788 30.315L489.63 30.3099V29.71C490.159 29.71 490.665 29.8424 491.035 30.2125C491.406 30.5828 491.538 31.0894 491.538 31.6178V86.2281C491.538 86.7567 491.406 87.2632 491.035 87.6334C490.665 88.0037 490.159 88.1365 489.63 88.1365H425.455C424.927 88.1365 424.42 88.0037 424.049 87.6334C423.679 87.2632 423.547 86.7566 423.547 86.2281ZM451.452 77.3711V77.9711H434.938V77.3711H451.452ZM452.16 76.7451V31.6178C452.16 31.0894 452.292 30.5828 452.663 30.2125C453.033 29.8423 453.54 29.71 454.068 29.71V30.3099L453.91 30.315C453.143 30.3662 452.76 30.8006 452.76 31.6178V76.7451L452.754 76.8665C452.724 77.1465 452.59 77.4059 452.352 77.6442L452.266 77.7211C452.057 77.888 451.786 77.9711 451.452 77.9711V77.3711C451.714 77.3711 451.847 77.2995 451.927 77.2195C452.108 77.038 452.16 76.8846 452.16 76.7451ZM480.065 77.3711V77.9711H463.551V77.3711H480.065ZM480.773 76.7451V31.6178C480.773 31.0894 480.905 30.5828 481.276 30.2125C481.646 29.8423 482.153 29.71 482.681 29.71V30.3099C481.809 30.31 481.373 30.7461 481.373 31.6178V76.7451L481.367 76.8665C481.337 77.1466 481.203 77.4058 480.964 77.6442L480.879 77.7211C480.67 77.8878 480.399 77.9711 480.065 77.9711V77.3711C480.327 77.3711 480.46 77.2995 480.54 77.2195C480.721 77.0381 480.773 76.8846 480.773 76.7451ZM462.325 76.7451V31.6178C462.325 30.746 461.889 30.3099 461.017 30.3099V29.71C461.545 29.71 462.052 29.8424 462.422 30.2125C462.792 30.5828 462.925 31.0894 462.925 31.6178V76.7451C462.925 76.9074 462.971 77.0599 463.081 77.2149C463.236 77.3248 463.389 77.3711 463.551 77.3711V77.9711L463.43 77.9659C463.15 77.9421 462.891 77.8349 462.652 77.6442C462.462 77.4058 462.354 77.1466 462.33 76.8665L462.325 76.7451ZM433.712 76.7451V31.6178C433.712 30.746 433.276 30.3099 432.404 30.3099V29.71C432.932 29.71 433.439 29.8423 433.81 30.2125C434.18 30.5828 434.312 31.0894 434.312 31.6178V76.7451C434.312 76.9074 434.358 77.0599 434.467 77.2149C434.623 77.3248 434.776 77.3711 434.938 77.3711V77.9711L434.817 77.9659C434.537 77.9421 434.278 77.8349 434.039 77.6442C433.848 77.4058 433.741 77.1466 433.717 76.8665L433.712 76.7451ZM489.63 29.71V30.3099H482.681V29.71H489.63ZM461.017 29.71V30.3099H454.068V29.71H461.017ZM432.404 29.71V30.3099H425.455V29.71H432.404Z" fill="black"/>
<path d="M404.34 86.2281V69.7145C404.34 69.5835 404.297 69.4785 404.156 69.3656L404.104 69.3236L404.062 69.2719C403.97 69.1563 403.851 69.0885 403.632 69.0885H396.683C396.361 69.0885 396.047 69.0383 395.766 68.9158C395.902 69.1516 395.976 69.42 395.976 69.7145V76.7451C395.975 77.2593 395.754 77.705 395.391 78.0684C395.053 78.4063 394.624 78.5715 394.149 78.5715H387.118C386.978 78.5715 386.825 78.6231 386.643 78.8046C386.563 78.8846 386.492 79.017 386.492 79.279V86.2281C386.492 86.7566 386.36 87.2632 385.989 87.6334C385.619 88.0037 385.113 88.1365 384.584 88.1365H377.635C377.106 88.1365 376.6 88.0037 376.23 87.6334C375.859 87.2632 375.727 86.7567 375.727 86.2281V31.6178C375.727 31.0894 375.859 30.5828 376.23 30.2125C376.6 29.8424 377.106 29.71 377.635 29.71V30.3099C376.763 30.3099 376.327 30.746 376.327 31.6178V86.2281L376.332 86.3864C376.383 87.1529 376.817 87.5361 377.635 87.5361H384.584L384.742 87.531C385.458 87.4832 385.839 87.1017 385.887 86.3864L385.892 86.2281V79.279C385.892 78.9453 385.975 78.6741 386.142 78.4655L386.219 78.3799C386.491 78.1074 386.791 77.9711 387.118 77.9711H394.149C394.435 77.9711 394.679 77.8878 394.882 77.7211L394.966 77.6442C395.205 77.4058 395.339 77.1466 395.368 76.8665L395.375 76.7451V69.7145C395.375 69.3875 395.239 69.1148 394.966 68.8968C394.776 68.6584 394.543 68.524 394.269 68.4942L394.149 68.488V67.8876C394.443 67.8876 394.711 67.9604 394.947 68.0961C394.824 67.8161 394.775 67.5022 394.775 67.1801V60.2309C394.775 59.7025 394.907 59.1959 395.278 58.8257C395.648 58.4554 396.155 58.3226 396.683 58.3226V58.923C395.811 58.923 395.375 59.359 395.375 60.2309V67.1801L395.38 67.3384C395.428 68.0537 395.809 68.4352 396.525 68.4829L396.683 68.488H403.632C404.014 68.4881 404.313 68.6244 404.531 68.8968C404.804 69.1148 404.94 69.3875 404.94 69.7145V86.2281L404.945 86.3864C404.993 87.1018 405.374 87.4833 406.09 87.531L406.248 87.5361H413.197C414.014 87.5361 414.449 87.1529 414.5 86.3864L414.505 86.2281V31.6178C414.505 30.746 414.069 30.3099 413.197 30.3099V29.71C413.725 29.71 414.232 29.8423 414.602 30.2125C414.973 30.5828 415.105 31.0894 415.105 31.6178V86.2281C415.105 86.7566 414.973 87.2632 414.602 87.6334C414.232 88.0037 413.725 88.1365 413.197 88.1365H406.248C405.72 88.1365 405.213 88.0037 404.842 87.6334C404.472 87.2632 404.34 86.7566 404.34 86.2281ZM394.149 67.8876V68.488H387.118V67.8876H394.149ZM385.892 67.1801V31.6178C385.892 30.8005 385.509 30.3661 384.742 30.315L384.584 30.3099V29.71C385.113 29.71 385.619 29.8423 385.989 30.2125C386.36 30.5828 386.492 31.0894 386.492 31.6178V67.1801C386.492 67.4102 386.549 67.5868 386.649 67.7329C386.804 67.842 386.956 67.8876 387.118 67.8876V68.488L386.997 68.4829C386.717 68.459 386.457 68.3518 386.219 68.1612C386.028 67.9227 385.921 67.6423 385.897 67.3204L385.892 67.1801ZM403.632 58.3226V58.923H396.683V58.3226H403.632ZM404.34 57.615V31.6178C404.34 31.0894 404.472 30.5828 404.842 30.2125C405.213 29.8423 405.72 29.71 406.248 29.71V30.3099L406.09 30.315C405.323 30.366 404.94 30.8004 404.94 31.6178V57.615L404.935 57.7733C404.887 58.4887 404.506 58.8701 403.79 58.9179L403.632 58.923V58.3226C403.975 58.3225 404.123 58.2371 404.189 58.1714C404.254 58.1056 404.34 57.9583 404.34 57.615ZM413.197 29.71V30.3099H406.248V29.71H413.197ZM384.584 29.71V30.3099H377.635V29.71H384.584Z" fill="black"/>
<path d="M327.898 86.2281V31.6178C327.898 31.0894 328.031 30.5828 328.402 30.2125C328.772 29.8423 329.278 29.71 329.807 29.71V30.3099C328.935 30.3099 328.499 30.746 328.499 31.6178V86.2281L328.504 86.3864C328.555 87.1528 328.989 87.5361 329.807 87.5361H336.756L336.914 87.531C337.63 87.4833 338.011 87.1018 338.059 86.3864L338.064 86.2281V69.7145C338.064 69.4283 338.147 69.1836 338.314 68.9809L338.391 68.8968C338.629 68.6583 338.889 68.5239 339.169 68.4942L339.29 68.488H355.804L355.962 68.4829C356.678 68.4352 357.059 68.0537 357.107 67.3384L357.112 67.1801V60.2309C357.112 59.4135 356.729 58.9792 355.962 58.9281L355.804 58.923V58.3226C356.102 58.3226 356.393 58.3653 356.657 58.4686C356.554 58.2048 356.512 57.9133 356.512 57.615V41.1014C356.512 40.8207 356.57 40.5565 356.686 40.3176C356.415 40.4294 356.113 40.4753 355.804 40.4754H339.29C339.15 40.4754 338.997 40.527 338.815 40.7085C338.717 40.8065 338.664 40.9229 338.664 41.1014V57.615C338.664 57.8452 338.72 58.0218 338.821 58.1678C338.975 58.277 339.128 58.3225 339.29 58.3226V58.923C338.963 58.9229 338.663 58.8141 338.391 58.5961C338.2 58.3577 338.093 58.0774 338.069 57.7554L338.064 57.615V41.1014C338.064 40.7744 338.173 40.5017 338.391 40.2837C338.663 40.0113 338.963 39.875 339.29 39.8749H355.804L355.962 39.8698C356.678 39.8221 357.059 39.4406 357.107 38.7253L357.112 38.567V31.6178C357.112 30.8005 356.729 30.3661 355.962 30.315L355.804 30.3099V29.71C356.332 29.71 356.839 29.8423 357.209 30.2125C357.58 30.5828 357.712 31.0894 357.712 31.6178V38.567C357.712 38.8865 357.663 39.1976 357.543 39.4758C357.81 39.3431 358.104 39.2745 358.42 39.2745V39.8749C358.038 39.8749 357.711 40.0113 357.439 40.2837C357.221 40.5017 357.112 40.7744 357.112 41.1014V57.615L357.117 57.7733C357.168 58.5398 357.602 58.923 358.42 58.923H365.369L365.527 58.9179C366.243 58.8701 366.624 58.4887 366.672 57.7733L366.677 57.615V41.1014C366.677 40.7744 366.541 40.5017 366.268 40.2837C366.077 40.0453 365.824 39.9113 365.508 39.8816L365.369 39.8749V39.2745C365.891 39.2745 366.352 39.4631 366.692 39.8565C367.065 40.1754 367.277 40.6002 367.277 41.1014V57.615C367.277 58.1435 367.145 58.6501 366.774 59.0203C366.404 59.3906 365.898 59.5234 365.369 59.5234H358.42C358.122 59.5234 357.831 59.4812 357.567 59.3779C357.67 59.6416 357.712 59.9328 357.712 60.2309V67.1801C357.712 67.7086 357.58 68.2151 357.209 68.5854C356.839 68.9556 356.333 69.0884 355.804 69.0885H339.29C339.15 69.0885 338.997 69.1397 338.815 69.321C338.717 69.4191 338.664 69.536 338.664 69.7145V86.2281C338.664 86.7566 338.531 87.2632 338.161 87.6334C337.791 88.0037 337.284 88.1365 336.756 88.1365H329.807C329.278 88.1365 328.772 88.0037 328.402 87.6334C328.031 87.2632 327.898 86.7566 327.898 86.2281ZM355.804 58.3226V58.923H339.29V58.3226H355.804ZM365.369 39.2745V39.8749H358.42V39.2745H365.369ZM355.804 29.71V30.3099H329.807V29.71H355.804Z" fill="black"/>
<path d="M308.691 41.1014C308.691 40.8208 308.749 40.5565 308.865 40.3176C308.594 40.4294 308.292 40.4754 307.983 40.4754H291.47C291.169 40.4754 290.886 40.4095 290.624 40.2858C290.767 40.5258 290.844 40.7998 290.844 41.1014V76.7451C290.843 77.0532 290.763 77.3365 290.622 77.5925C290.878 77.4506 291.161 77.3711 291.47 77.3711V77.9711L291.348 77.9777C291.068 78.0075 290.808 78.1414 290.57 78.3799C290.352 78.5979 290.243 78.8977 290.243 79.279V86.2281L290.248 86.3685C290.272 86.6904 290.379 86.9708 290.57 87.2092C290.808 87.4 291.068 87.5071 291.348 87.531L291.47 87.5361H307.983C308.801 87.5361 309.235 87.1529 309.286 86.3864L309.291 86.2281V79.279C309.291 78.4071 308.855 77.9711 307.983 77.9711V77.3711C308.287 77.3711 308.583 77.4152 308.851 77.5228C308.747 77.2799 308.691 77.02 308.691 76.7451V41.1014ZM307.983 77.3711V77.9711H291.47V77.3711H307.983ZM317.548 39.2745V39.8749H310.599V39.2745H317.548ZM288.935 39.2745V39.8749H281.986V39.2745H288.935ZM307.983 29.71V30.3099H291.47V29.71H307.983ZM309.291 76.7451L309.296 76.8665C309.32 77.1465 309.427 77.4059 309.618 77.6442L309.723 77.7211C309.973 77.8879 310.265 77.971 310.599 77.9711H317.548L317.688 77.9659C317.958 77.9455 318.183 77.864 318.362 77.7211L318.447 77.6442C318.686 77.4058 318.82 77.1466 318.85 76.8665L318.856 76.7451V41.1014C318.856 40.7744 318.72 40.5017 318.447 40.2837C318.257 40.0454 318.003 39.9114 317.688 39.8816L317.548 39.8749V39.2745C318.07 39.2745 318.532 39.4631 318.872 39.8565C319.245 40.1754 319.457 40.6002 319.457 41.1014V76.7451C319.457 77.2593 319.235 77.705 318.872 78.0684C318.516 78.4244 318.049 78.5715 317.548 78.5715H310.599C310.294 78.5715 310.004 78.5166 309.737 78.405C309.846 78.6742 309.892 78.9728 309.892 79.279V86.2281C309.892 86.7567 309.759 87.2632 309.388 87.6334C309.018 88.0037 308.512 88.1365 307.983 88.1365H291.47C290.997 88.1365 290.566 87.975 290.195 87.678L290.143 87.636L290.101 87.5843C289.79 87.1952 289.643 86.7324 289.643 86.2281V79.279C289.643 78.9542 289.705 78.6435 289.846 78.3681C289.57 78.5087 289.26 78.5715 288.935 78.5715H281.986C281.482 78.5715 281.019 78.4241 280.63 78.113L280.578 78.0715L280.537 78.0192C280.24 77.648 280.078 77.2178 280.078 76.7451V41.1014C280.078 40.6259 280.243 40.197 280.581 39.859C280.964 39.4754 281.444 39.2745 281.986 39.2745V39.8749C281.605 39.875 281.278 40.0114 281.005 40.2837L280.929 40.3683C280.762 40.5709 280.678 40.8153 280.678 41.1014V76.7451L280.683 76.8665C280.707 77.1466 280.815 77.4058 281.005 77.6442C281.278 77.8621 281.605 77.971 281.986 77.9711H288.935C289.269 77.9711 289.54 77.8879 289.749 77.7211L289.834 77.6442C290.073 77.4058 290.207 77.1466 290.237 76.8665L290.243 76.7451V41.1014C290.243 40.7744 290.107 40.5017 289.834 40.2837C289.616 40.0113 289.317 39.8749 288.935 39.8749V39.2745C289.267 39.2745 289.576 39.3515 289.843 39.5086C289.708 39.2194 289.643 38.9024 289.643 38.567V31.6178C289.643 31.1173 289.79 30.6505 290.146 30.2945C290.509 29.9311 290.955 29.71 291.47 29.71V30.3099L291.348 30.3165C291.068 30.3463 290.808 30.4803 290.57 30.7187C290.352 30.9367 290.243 31.2365 290.243 31.6178V38.567C290.243 38.9484 290.352 39.2756 290.57 39.5481L290.673 39.6244C290.883 39.7676 291.108 39.8494 291.348 39.8698L291.47 39.8749H307.983C308.855 39.8749 309.291 39.439 309.291 38.567V31.6178C309.291 30.746 308.855 30.3099 307.983 30.3099V29.71C308.512 29.71 309.018 29.8424 309.388 30.2125C309.759 30.5828 309.892 31.0894 309.892 31.6178V38.567C309.892 38.8862 309.842 39.1972 309.723 39.4753C309.989 39.3428 310.283 39.2745 310.599 39.2745V39.8749C310.218 39.875 309.89 40.0113 309.618 40.2837C309.4 40.5017 309.291 40.7745 309.291 41.1014V76.7451Z" fill="black"/>
<path d="M232.266 86.2281V41.1014C232.266 40.6259 232.43 40.197 232.768 39.859C233.152 39.4753 233.632 39.2745 234.174 39.2745V39.8749L234.033 39.8816C233.711 39.9114 233.431 40.0454 233.193 40.2837L233.116 40.3683C232.949 40.5709 232.866 40.8154 232.866 41.1014V86.2281L232.871 86.3864C232.919 87.1018 233.3 87.4833 234.016 87.531L234.174 87.5361H260.171C260.988 87.5361 261.422 87.1529 261.474 86.3864L261.479 86.2281V79.279C261.479 78.4071 261.043 77.9711 260.171 77.9711V77.3711C260.474 77.3711 260.771 77.4152 261.039 77.5228C260.934 77.2799 260.879 77.02 260.879 76.7451V69.7145C260.879 69.5836 260.836 69.4785 260.695 69.3656L260.643 69.3236L260.602 69.2719C260.509 69.1563 260.389 69.0885 260.171 69.0885H253.222C252.694 69.0885 252.187 68.9556 251.816 68.5854C251.446 68.2151 251.314 67.7085 251.314 67.1801V60.2309C251.314 60.0125 251.246 59.893 251.13 59.8006L251.078 59.7591L251.037 59.7068C250.924 59.5657 250.819 59.5234 250.688 59.5234H243.657C243.517 59.5234 243.364 59.575 243.182 59.7565C243.102 59.8365 243.031 59.9689 243.031 60.2309V76.7451C243.031 76.9074 243.077 77.0599 243.186 77.2149C243.342 77.3248 243.494 77.3711 243.657 77.3711V77.9711L243.536 77.9659C243.256 77.9421 242.996 77.8349 242.758 77.6442C242.567 77.4058 242.46 77.1466 242.436 76.8665L242.431 76.7451V60.2309C242.431 59.8972 242.514 59.626 242.681 59.4174L242.758 59.3318C242.996 59.0935 243.256 58.9595 243.536 58.9297L243.657 58.923H250.688C251.015 58.923 251.287 59.0593 251.505 59.3318C251.778 59.5498 251.914 59.8495 251.914 60.2309V67.1801L251.919 67.3384C251.967 68.0538 252.348 68.4353 253.064 68.4829L253.222 68.488H260.171C260.552 68.488 260.852 68.6243 261.07 68.8968C261.343 69.1148 261.479 69.3876 261.479 69.7145V76.7451L261.484 76.8665C261.508 77.1466 261.615 77.4058 261.806 77.6442L261.911 77.7211C262.125 77.8641 262.37 77.9455 262.646 77.9659L262.787 77.9711H269.736C270.069 77.9711 270.341 77.8878 270.549 77.7211L270.635 77.6442C270.873 77.4058 271.008 77.1466 271.038 76.8665L271.044 76.7451V60.2309C271.044 59.359 270.608 58.923 269.736 58.923V58.3226C270.264 58.3226 270.771 58.4554 271.141 58.8257C271.511 59.1959 271.644 59.7025 271.644 60.2309V76.7451C271.644 77.2593 271.423 77.705 271.06 78.0684C270.704 78.4245 270.236 78.5715 269.736 78.5715H262.787C262.482 78.5715 262.192 78.5166 261.924 78.405C262.034 78.6743 262.079 78.9728 262.079 79.279V86.2281C262.079 86.7566 261.947 87.2632 261.577 87.6334C261.206 88.0037 260.699 88.1365 260.171 88.1365H234.174C233.645 88.1365 233.138 88.0037 232.768 87.6334C232.398 87.2632 232.266 86.7566 232.266 86.2281ZM260.171 77.3711V77.9711H243.657V77.3711H260.171ZM269.736 58.3226V58.923H262.787V58.3226H269.736ZM261.479 57.615V50.6664C261.479 49.7944 261.043 49.358 260.171 49.358V48.758C260.474 48.758 260.771 48.8021 261.039 48.9097C260.934 48.6668 260.879 48.4069 260.879 48.132V41.1014C260.879 40.8208 260.936 40.5565 261.053 40.3176C260.782 40.4294 260.48 40.4754 260.171 40.4754H243.657C243.357 40.4754 243.074 40.4096 242.812 40.2858C242.954 40.5258 243.031 40.7997 243.031 41.1014V48.132C243.031 48.2943 243.077 48.4468 243.186 48.6018C243.342 48.7117 243.494 48.758 243.657 48.758V49.358L243.536 49.3528C243.256 49.329 242.996 49.2218 242.758 49.0311C242.567 48.7927 242.46 48.5335 242.436 48.2534L242.431 48.132V41.1014C242.431 40.7745 242.295 40.5017 242.022 40.2837C241.804 40.0112 241.504 39.8749 241.123 39.8749V39.2745C241.455 39.2745 241.763 39.3514 242.031 39.5086C241.896 39.2194 241.831 38.9025 241.831 38.567V31.6178C241.831 31.1173 241.977 30.6505 242.333 30.2945C242.697 29.9311 243.143 29.71 243.657 29.71V30.3099L243.536 30.3165C243.256 30.3464 242.996 30.4804 242.758 30.7187L242.681 30.8043C242.514 31.0129 242.431 31.2841 242.431 31.6178V38.567C242.431 38.9485 242.54 39.2755 242.758 39.5481L242.861 39.6244C243.071 39.7674 243.296 39.8493 243.536 39.8698L243.657 39.8749H260.171C261.043 39.8749 261.479 39.439 261.479 38.567V31.6178C261.479 30.746 261.043 30.3099 260.171 30.3099V29.71C260.699 29.71 261.206 29.8423 261.577 30.2125C261.947 30.5828 262.079 31.0894 262.079 31.6178V38.567C262.079 38.8863 262.03 39.1972 261.91 39.4753C262.177 39.3427 262.471 39.2745 262.787 39.2745V39.8749L262.646 39.8816C262.324 39.9114 262.044 40.0454 261.806 40.2837L261.729 40.3683C261.562 40.5709 261.479 40.8154 261.479 41.1014V48.132L261.484 48.2534C261.508 48.5335 261.615 48.7927 261.806 49.0311L261.911 49.108C262.125 49.251 262.37 49.3324 262.646 49.3528L262.787 49.358H269.736C270.117 49.358 270.417 49.2491 270.635 49.0311C270.873 48.7927 271.008 48.5335 271.038 48.2534L271.044 48.132V41.1014C271.044 40.7744 270.907 40.5017 270.635 40.2837C270.417 40.0113 270.117 39.8749 269.736 39.8749V39.2745C270.257 39.2745 270.719 39.4631 271.059 39.8565C271.432 40.1754 271.644 40.6002 271.644 41.1014V48.132C271.644 48.6463 271.423 49.0924 271.06 49.4558C270.704 49.8118 270.236 49.9584 269.736 49.9584H262.787C262.482 49.9584 262.192 49.9035 261.924 49.7919C262.034 50.0612 262.079 50.3601 262.079 50.6664V57.615C262.079 57.9582 262.165 58.1056 262.23 58.1714C262.296 58.2371 262.444 58.3226 262.787 58.3226V58.923L262.628 58.9179C261.862 58.8667 261.479 58.4325 261.479 57.615ZM260.171 48.758V49.358H243.657V48.758H260.171ZM269.736 39.2745V39.8749H262.787V39.2745H269.736ZM241.123 39.2745V39.8749H234.174V39.2745H241.123ZM260.171 29.71V30.3099H243.657V29.71H260.171Z" fill="black"/>
<path d="M213.058 41.1014C213.058 40.8208 213.116 40.5565 213.233 40.3176C212.961 40.4293 212.66 40.4753 212.351 40.4754H195.837C195.536 40.4753 195.254 40.4095 194.992 40.2858C195.134 40.5257 195.211 40.7998 195.211 41.1014V76.7451C195.211 77.0533 195.131 77.3365 194.989 77.5925C195.245 77.4506 195.528 77.3712 195.837 77.3711V77.9711C195.51 77.9711 195.21 78.1074 194.938 78.3799L194.861 78.4655C194.694 78.6741 194.611 78.9453 194.611 79.279V86.2281L194.616 86.3685C194.64 86.6904 194.747 86.9708 194.938 87.2092C195.21 87.4272 195.51 87.5361 195.837 87.5361H212.351L212.509 87.531C213.224 87.4832 213.606 87.1017 213.654 86.3864L213.659 86.2281V79.279C213.659 78.4617 213.275 78.0273 212.509 77.9762L212.351 77.9711V77.3711C212.655 77.3712 212.951 77.4153 213.218 77.5228C213.114 77.2799 213.058 77.02 213.058 76.7451V41.1014ZM212.351 77.3711V77.9711H195.837V77.3711H212.351ZM221.915 39.2745V39.8749H214.967V39.2745H221.915ZM193.303 39.2745V39.8749H186.354V39.2745H193.303ZM212.351 29.71V30.3099H195.837V29.71H212.351ZM213.659 76.7451L213.664 76.8665C213.688 77.1466 213.795 77.4058 213.986 77.6442L214.09 77.7211C214.305 77.8642 214.55 77.9455 214.826 77.9659L214.967 77.9711H221.915C222.249 77.9711 222.521 77.888 222.729 77.7211L222.815 77.6442C223.053 77.4059 223.187 77.1465 223.217 76.8665L223.223 76.7451V41.1014C223.223 40.7745 223.087 40.5017 222.815 40.2837C222.597 40.0112 222.297 39.8749 221.915 39.8749V39.2745C222.438 39.2745 222.9 39.4633 223.24 39.8575C223.613 40.1763 223.824 40.6007 223.824 41.1014V76.7451C223.824 77.2594 223.603 77.705 223.239 78.0684C222.883 78.4245 222.416 78.5715 221.915 78.5715H214.967C214.661 78.5715 214.372 78.5162 214.104 78.4045C214.214 78.6739 214.259 78.9726 214.259 79.279V86.2281C214.259 86.7566 214.126 87.2632 213.756 87.6334C213.386 88.0037 212.879 88.1365 212.351 88.1365H195.837C195.364 88.1365 194.934 87.975 194.563 87.678L194.51 87.636L194.469 87.5843C194.158 87.1952 194.01 86.7324 194.01 86.2281V79.279C194.01 78.9541 194.072 78.6435 194.213 78.3681C193.938 78.5088 193.628 78.5715 193.303 78.5715H186.354C185.849 78.5715 185.387 78.4242 184.998 78.113L184.946 78.0715L184.904 78.0192C184.607 77.648 184.445 77.2178 184.445 76.7451V41.1014C184.445 40.6259 184.61 40.197 184.948 39.859C185.332 39.4754 185.811 39.2745 186.354 39.2745V39.8749L186.213 39.8816C185.891 39.9114 185.611 40.0453 185.373 40.2837C185.155 40.5017 185.046 40.7744 185.046 41.1014V76.7451L185.051 76.8665C185.075 77.1466 185.182 77.4058 185.373 77.6442C185.611 77.835 185.891 77.9421 186.213 77.9659L186.354 77.9711H193.303L193.442 77.9659C193.713 77.9455 193.938 77.8641 194.116 77.7211L194.202 77.6442C194.44 77.4059 194.574 77.1466 194.604 76.8665L194.611 76.7451V41.1014C194.611 40.7744 194.474 40.5017 194.202 40.2837C194.011 40.0453 193.758 39.9114 193.442 39.8816L193.303 39.8749V39.2745C193.635 39.2745 193.943 39.3515 194.211 39.5086C194.076 39.2194 194.01 38.9024 194.01 38.567V31.6178C194.01 31.1174 194.157 30.6505 194.513 30.2945C194.876 29.9311 195.322 29.71 195.837 29.71V30.3099C195.51 30.3099 195.21 30.4463 194.938 30.7187L194.861 30.8043C194.694 31.0129 194.611 31.2841 194.611 31.6178V38.567L194.616 38.7073C194.64 39.0293 194.747 39.3096 194.938 39.5481L195.041 39.6244C195.286 39.7913 195.551 39.8749 195.837 39.8749H212.351L212.509 39.8698C213.224 39.8221 213.606 39.4406 213.654 38.7253L213.659 38.567V31.6178C213.659 30.8005 213.275 30.3661 212.509 30.315L212.351 30.3099V29.71C212.879 29.71 213.386 29.8423 213.756 30.2125C214.126 30.5828 214.259 31.0894 214.259 31.6178V38.567C214.259 38.8863 214.21 39.1972 214.09 39.4753C214.356 39.3427 214.651 39.2745 214.967 39.2745V39.8749L214.826 39.8816C214.504 39.9113 214.224 40.0453 213.986 40.2837L213.909 40.3683C213.742 40.5709 213.659 40.8154 213.659 41.1014V76.7451Z" fill="black"/>
<path d="M77.8463 86.2281V79.279C77.8463 78.9541 77.9084 78.6436 78.0492 78.3681C77.7737 78.5088 77.4632 78.5715 77.1382 78.5715H70.1896C69.6854 78.5715 69.2226 78.4242 68.8335 78.113L68.7813 78.0715L68.7398 78.0192C68.4428 77.648 68.2813 77.2178 68.2812 76.7451V41.1014C68.2812 40.6259 68.4464 40.197 68.7843 39.859C69.1681 39.4754 69.6472 39.2745 70.1896 39.2745V39.8749L70.0493 39.8816C69.7273 39.9113 69.447 40.0453 69.2086 40.2837C68.9906 40.5017 68.8817 40.7744 68.8817 41.1014V76.7451L68.8868 76.8665C68.9107 77.1466 69.0179 77.4058 69.2086 77.6442C69.447 77.835 69.7273 77.9421 70.0493 77.9659L70.1896 77.9711H77.1382C77.4721 77.9711 77.7437 77.888 77.9523 77.7211L78.0379 77.6442C78.2762 77.4059 78.4102 77.1466 78.4401 76.8665L78.4467 76.7451V60.2309C78.4467 59.8972 78.5299 59.626 78.6967 59.4174L78.7736 59.3318C79.046 59.0594 79.3457 58.923 79.6727 58.923H96.1863C97.0039 58.923 97.4386 58.5398 97.4897 57.7733L97.4948 57.615V50.6664C97.4948 49.7944 97.0583 49.358 96.1863 49.358V48.758C96.7149 48.758 97.2219 48.8903 97.5921 49.2606C97.9624 49.6309 98.0947 50.1379 98.0947 50.6664V57.615C98.0947 58.1435 97.9623 58.6501 97.5921 59.0203C97.2219 59.3906 96.7149 59.5234 96.1863 59.5234H79.6727C79.5331 59.5234 79.3793 59.575 79.1978 59.7565C79.1179 59.8365 79.0467 59.9689 79.0466 60.2309V76.7451C79.0466 77.0533 78.9666 77.3365 78.8248 77.5925C79.0809 77.4506 79.3644 77.3712 79.6727 77.3711V77.9711C79.3457 77.9711 79.046 78.1074 78.7736 78.3799L78.6967 78.4655C78.5299 78.6741 78.4467 78.9453 78.4467 79.279V86.2281L78.4518 86.3685C78.4757 86.6904 78.5828 86.9708 78.7736 87.2092C79.046 87.4272 79.3458 87.5361 79.6727 87.5361H105.751C106.569 87.5361 107.003 87.1529 107.054 86.3864L107.059 86.2281V79.279C107.059 78.4071 106.623 77.9711 105.751 77.9711V77.3711C106.28 77.3711 106.787 77.5034 107.157 77.8737C107.527 78.244 107.66 78.7506 107.66 79.279V86.2281C107.66 86.7566 107.527 87.2632 107.157 87.6334C106.787 88.0037 106.28 88.1365 105.751 88.1365H79.6727C79.1999 88.1365 78.7698 87.9749 78.3986 87.678L78.3463 87.636L78.3048 87.5843C77.9936 87.1952 77.8463 86.7324 77.8463 86.2281ZM105.751 77.3711V77.9711H79.6727V77.3711H105.751ZM96.1863 48.758V49.358H79.6727V48.758H96.1863ZM78.4467 48.132V41.1014C78.4467 40.7744 78.3103 40.5017 78.0379 40.2837C77.8199 40.0112 77.5198 39.8749 77.1382 39.8749V39.2745C77.4707 39.2745 77.7791 39.3514 78.0471 39.5086C77.9118 39.2194 77.8463 38.9025 77.8463 38.567V31.6178C77.8463 31.1174 77.993 30.6505 78.3489 30.2945C78.7123 29.9311 79.1583 29.71 79.6727 29.71V30.3099C79.3458 30.3099 79.046 30.4463 78.7736 30.7187L78.6967 30.8043C78.5298 31.0129 78.4468 31.2841 78.4467 31.6178V38.567L78.4518 38.7073C78.4757 39.0293 78.5828 39.3096 78.7736 39.5481L78.8771 39.6244C79.1215 39.7913 79.3866 39.8749 79.6727 39.8749H105.751C106.623 39.8749 107.059 39.439 107.059 38.567V31.6178C107.059 30.746 106.623 30.3099 105.751 30.3099V29.71C106.28 29.71 106.787 29.8423 107.157 30.2125C107.527 30.5828 107.66 31.0894 107.66 31.6178V38.567C107.66 39.0954 107.527 39.602 107.157 39.9723C106.787 40.3425 106.28 40.4754 105.751 40.4754H79.6727C79.3722 40.4753 79.0892 40.4096 78.8274 40.2858C78.9697 40.5258 79.0466 40.7997 79.0466 41.1014V48.132C79.0467 48.2941 79.0923 48.4465 79.2014 48.6013C79.3569 48.7115 79.5098 48.758 79.6727 48.758V49.358C79.3457 49.358 79.0461 49.2491 78.7736 49.0311C78.5829 48.7927 78.4757 48.5335 78.4518 48.2534L78.4467 48.132ZM77.1382 39.2745V39.8749H70.1896V39.2745H77.1382ZM105.751 29.71V30.3099H79.6727V29.71H105.751Z" fill="black"/>
<path d="M49.0819 86.2281V69.7145C49.0819 69.5835 49.0395 69.4785 48.8984 69.3656L48.8462 69.3236L48.8047 69.2719C48.7122 69.1563 48.5928 69.0885 48.3743 69.0885H31.8602C31.3875 69.0884 30.9573 68.9269 30.5861 68.6299L30.5338 68.5879L30.4923 68.5362C30.1811 68.1471 30.0338 67.6843 30.0338 67.1801V60.2309C30.0338 59.9225 30.0896 59.6269 30.2156 59.362C29.9424 59.4762 29.6383 59.5234 29.3263 59.5234H22.3771C21.8486 59.5234 21.3421 59.3906 20.9718 59.0203C20.6016 58.6501 20.4688 58.1436 20.4688 57.615V31.6178C20.4688 31.0894 20.6016 30.5828 20.9718 30.2125C21.3421 29.8423 21.8487 29.71 22.3771 29.71V30.3099C21.5053 30.3099 21.0693 30.746 21.0692 31.6178V57.615C21.0692 58.487 21.5052 58.923 22.3771 58.923H29.3263L29.4846 58.9179C30.1999 58.8702 30.5814 58.4887 30.6291 57.7733L30.6342 57.615V31.6178C30.6341 30.8005 30.2509 30.3661 29.4846 30.315L29.3263 30.3099V29.71C29.8547 29.71 30.3613 29.8423 30.7316 30.2125C31.1018 30.5828 31.2341 31.0894 31.2341 31.6178V57.615C31.2341 57.9306 31.1861 58.238 31.0692 58.5136C31.3101 58.3908 31.5746 58.3226 31.8602 58.3226V58.923C31.5333 58.923 31.2335 59.0594 30.9611 59.3318C30.7431 59.5498 30.6342 59.8495 30.6342 60.2309V67.1801L30.6393 67.3204C30.6632 67.6424 30.7703 67.9227 30.9611 68.1612C31.1994 68.3518 31.4587 68.459 31.7388 68.4829L31.8602 68.488H48.3743C48.7558 68.4881 49.0555 68.6244 49.2735 68.8968C49.5459 69.1148 49.6823 69.3875 49.6823 69.7145V86.2281L49.6874 86.3864C49.7351 87.1018 50.1165 87.4833 50.8319 87.531L50.9902 87.5361H57.9389C58.7564 87.5361 59.1911 87.1529 59.2422 86.3864L59.2473 86.2281V31.6178C59.2472 30.746 58.8108 30.3099 57.9389 30.3099V29.71C58.4674 29.71 58.9744 29.8423 59.3447 30.2125C59.7149 30.5828 59.8472 31.0894 59.8472 31.6178V86.2281C59.8472 86.7566 59.7149 87.2632 59.3447 87.6334C58.9744 88.0037 58.4674 88.1365 57.9389 88.1365H50.9902C50.4617 88.1365 49.9552 88.0037 49.585 87.6334C49.2147 87.2632 49.0819 86.7567 49.0819 86.2281ZM48.3743 58.3226V58.923H31.8602V58.3226H48.3743ZM49.0819 57.615V31.6178C49.0819 31.0894 49.2147 30.5828 49.585 30.2125C49.9552 29.8424 50.4618 29.71 50.9902 29.71V30.3099L50.8319 30.315C50.0655 30.3661 49.6824 30.8004 49.6823 31.6178V57.615L49.6772 57.7733C49.6295 58.4887 49.248 58.8702 48.5326 58.9179L48.3743 58.923V58.3226C48.7177 58.3225 48.865 58.2371 48.9307 58.1714C48.9964 58.1056 49.0819 57.9584 49.0819 57.615ZM57.9389 29.71V30.3099H50.9902V29.71H57.9389ZM29.3263 29.71V30.3099H22.3771V29.71H29.3263Z" fill="black"/>
<path d="M553.237 39.9497C552.909 39.9497 552.61 39.8407 552.337 39.6227C552.119 39.3502 552.01 39.0232 552.01 38.6417V31.6928C552.01 31.3113 552.119 31.0115 552.337 30.7935C552.61 30.521 552.909 30.3848 553.237 30.3848H569.75C570.622 30.3848 571.058 30.8208 571.058 31.6928V38.6417C571.058 39.5137 570.622 39.9497 569.75 39.9497H553.237ZM543.753 49.4329C543.372 49.4329 543.045 49.3239 542.772 49.1059C542.554 48.8333 542.445 48.5336 542.445 48.2066V41.176C542.445 40.849 542.554 40.5765 542.772 40.3584C543.045 40.0859 543.372 39.9497 543.753 39.9497H550.702C551.084 39.9497 551.383 40.0859 551.601 40.3584C551.874 40.5765 552.01 40.849 552.01 41.176V48.2066C552.01 48.5336 551.874 48.8333 551.601 49.1059C551.383 49.3239 551.084 49.4329 550.702 49.4329H543.753ZM579.315 39.9497C579.697 39.9497 579.996 40.0859 580.214 40.3584C580.487 40.5765 580.623 40.849 580.623 41.176V57.6898C580.623 58.5618 580.187 58.9978 579.315 58.9978H572.366C571.494 58.9978 571.058 58.5618 571.058 57.6898V41.176C571.058 40.849 571.167 40.5765 571.385 40.3584C571.658 40.0859 571.985 39.9497 572.366 39.9497H579.315ZM552.01 60.3058C552.01 59.9243 552.119 59.6245 552.337 59.4065C552.61 59.134 552.909 58.9978 553.237 58.9978H569.75C570.622 58.9978 571.058 59.4338 571.058 60.3058V67.2547C571.058 68.1267 570.622 68.5627 569.75 68.5627H553.237C552.909 68.5627 552.61 68.4537 552.337 68.2357C552.119 67.9632 552.01 67.6362 552.01 67.2547V60.3058ZM553.237 87.6108C552.909 87.6108 552.61 87.5018 552.337 87.2838C552.119 87.0113 552.01 86.6843 552.01 86.3028V79.3539C552.01 78.9724 552.119 78.6726 552.337 78.4546C552.61 78.1821 552.909 78.0459 553.237 78.0459H560.267C560.594 78.0459 560.867 78.1821 561.085 78.4546C561.357 78.6726 561.493 78.9724 561.493 79.3539V86.3028C561.493 86.6843 561.357 87.0113 561.085 87.2838C560.867 87.5018 560.594 87.6108 560.267 87.6108H553.237Z" fill="black"/>
<path d="M551.424 86.3024V79.3532C551.424 78.8527 551.571 78.3859 551.927 78.0299C552.291 77.6665 552.737 77.4454 553.251 77.4454V78.0453C552.924 78.0453 552.624 78.1817 552.352 78.4541C552.134 78.6721 552.025 78.9718 552.025 79.3532V86.3024L552.03 86.4427C552.054 86.7647 552.161 87.045 552.352 87.2835C552.624 87.5014 552.924 87.6103 553.251 87.6103H560.281C560.568 87.6103 560.812 87.5268 561.015 87.3598L561.099 87.2835C561.338 87.045 561.472 86.7647 561.502 86.4427L561.508 86.3024V79.3532C561.508 78.9718 561.372 78.6721 561.099 78.4541C560.881 78.1817 560.608 78.0453 560.281 78.0453V77.4454C560.782 77.4454 561.207 77.6567 561.526 78.0294C561.92 78.3694 562.108 78.8314 562.108 79.3532V86.3024C562.108 86.8448 561.907 87.3239 561.524 87.7077C561.186 88.0456 560.757 88.2108 560.281 88.2108H553.251C552.778 88.2107 552.348 88.0492 551.977 87.7522L551.924 87.7102L551.883 87.6585C551.572 87.2694 551.424 86.8066 551.424 86.3024ZM560.281 77.4454V78.0453H553.251V77.4454H560.281ZM551.424 67.2543V60.3052C551.424 59.8046 551.571 59.3379 551.927 58.9818C552.291 58.6184 552.737 58.3968 553.251 58.3968V58.9972C552.924 58.9973 552.624 59.1336 552.352 59.406C552.134 59.624 552.025 59.9237 552.025 60.3052V67.2543L552.03 67.3947C552.054 67.7166 552.161 67.9969 552.352 68.2354C552.59 68.426 552.849 68.5332 553.129 68.5571L553.251 68.5622H569.765L569.923 68.5571C570.639 68.5094 571.02 68.1279 571.068 67.4126L571.073 67.2543V60.3052C571.073 59.4878 570.69 59.0534 569.923 59.0023L569.765 58.9972V58.3968C570.063 58.3968 570.354 58.4395 570.618 58.5428C570.515 58.279 570.472 57.9876 570.472 57.6893V41.1756C570.472 40.895 570.53 40.6307 570.647 40.3918C570.375 40.5035 570.074 40.5496 569.765 40.5496H553.251C552.951 40.5495 552.668 40.4837 552.406 40.36C552.548 40.6 552.625 40.874 552.625 41.1756V48.2062C552.625 48.7206 552.404 49.1666 552.04 49.53C551.684 49.8859 551.217 50.0326 550.717 50.0326H543.768C543.264 50.0326 542.801 49.8853 542.412 49.5741L542.36 49.5326L542.318 49.4803C542.021 49.1091 541.859 48.6789 541.859 48.2062V41.1756C541.859 40.7001 542.025 40.2712 542.362 39.9332C542.746 39.5496 543.225 39.3487 543.768 39.3487V39.9491C543.386 39.9491 543.059 40.0855 542.787 40.358C542.569 40.576 542.46 40.8487 542.46 41.1756V48.2062L542.465 48.3276C542.489 48.6077 542.596 48.867 542.787 49.1053C543.059 49.3233 543.386 49.4322 543.768 49.4322H550.717L550.856 49.4271C551.127 49.4067 551.352 49.3253 551.53 49.1822L551.616 49.1053C551.854 48.8669 551.988 48.6077 552.018 48.3276L552.025 48.2062V41.1756C552.025 40.8486 551.889 40.576 551.616 40.358C551.425 40.1195 551.172 39.9856 550.856 39.9558L550.717 39.9491V39.3487C551.049 39.3487 551.357 39.4254 551.625 39.5823C551.49 39.2932 551.424 38.9764 551.424 38.6412V31.6921C551.424 31.1915 551.572 30.7247 551.927 30.3687C552.291 30.0054 552.737 29.7842 553.251 29.7842V30.3841C552.924 30.3842 552.624 30.5205 552.352 30.7929C552.134 31.0109 552.025 31.3107 552.025 31.6921V38.6412L552.03 38.7816C552.054 39.1035 552.161 39.3838 552.352 39.6223L552.455 39.6986C552.7 39.8655 552.965 39.9491 553.251 39.9491H569.765L569.923 39.944C570.639 39.8963 571.02 39.5148 571.068 38.7995L571.073 38.6412V31.6921C571.073 30.8747 570.69 30.4403 569.923 30.3892L569.765 30.3841V29.7842C570.293 29.7842 570.8 29.9166 571.17 30.2868C571.54 30.657 571.673 31.1636 571.673 31.6921V38.6412C571.673 38.9605 571.624 39.2714 571.504 39.5495C571.77 39.4169 572.065 39.3487 572.381 39.3487V39.9491L572.24 39.9558C571.919 39.9856 571.638 40.1195 571.4 40.358C571.182 40.576 571.073 40.8486 571.073 41.1756V57.6893L571.078 57.8476C571.126 58.563 571.507 58.9444 572.223 58.9921L572.381 58.9972H579.329C580.147 58.9972 580.582 58.6141 580.633 57.8476L580.638 57.6893V41.1756C580.638 40.8487 580.502 40.576 580.229 40.358C580.011 40.0855 579.711 39.9491 579.329 39.9491V39.3487C579.851 39.3487 580.313 39.5373 580.653 39.9307C581.026 40.2496 581.238 40.6745 581.238 41.1756V57.6893C581.238 58.2177 581.105 58.7243 580.735 59.0946C580.365 59.4648 579.858 59.5976 579.329 59.5976H572.381C572.082 59.5976 571.791 59.5552 571.527 59.4516C571.63 59.7155 571.673 60.0067 571.673 60.3052V67.2543C571.673 67.7828 571.54 68.2893 571.17 68.6596C570.8 69.0298 570.293 69.1626 569.765 69.1627H553.251C552.778 69.1626 552.348 69.0011 551.977 68.7041L551.924 68.6621L551.883 68.6104C551.572 68.2214 551.424 67.7585 551.424 67.2543ZM569.765 58.3968V58.9972H553.251V58.3968H569.765ZM579.329 39.3487V39.9491H572.381V39.3487H579.329ZM550.717 39.3487V39.9491H543.768V39.3487H550.717ZM569.765 29.7842V30.3841H553.251V29.7842H569.765Z" fill="black"/>
<path d="M79.4309 19.2317C78.6104 18.4112 78.6104 17.081 79.4309 16.2605L83.2575 12.4339C84.078 11.6134 85.4083 11.6134 86.2288 12.4339L90.0893 16.2944C90.9098 17.1149 90.9098 18.4452 90.0893 19.2656L86.2627 23.0922C85.4422 23.9127 84.1119 23.9127 83.2915 23.0922L79.4309 19.2317Z" fill="black"/>
<path d="M89.665 18.8412L90.0892 19.2654L86.2626 23.092L85.8384 22.6678L89.665 18.8412ZM89.665 16.7191L85.8043 12.8584C85.2183 12.2724 84.2682 12.2724 83.6821 12.8584L79.8555 16.685C79.2695 17.2711 79.2695 18.2211 79.8555 18.8072L83.7162 22.6678C84.3023 23.2537 85.2523 23.2538 85.8384 22.6678L86.2626 23.092L86.1843 23.1667C85.3862 23.8878 84.168 23.888 83.3699 23.167L83.2916 23.0924L79.431 19.2317C78.6361 18.4369 78.6111 17.1634 79.3563 16.3387L79.431 16.2604L83.2576 12.4338L83.3358 12.3592C84.1606 11.6141 85.434 11.639 86.2289 12.4338L90.0895 16.2945L90.1638 16.3731C90.8848 17.1712 90.8848 18.3891 90.1638 19.1872L90.0892 19.2654L89.665 18.8412C90.2509 18.2552 90.2508 17.3051 89.665 16.7191Z" fill="black"/>
<path d="M94.5637 19.2317C93.7433 18.4112 93.7433 17.081 94.5637 16.2605L98.3903 12.4339C99.2108 11.6134 100.541 11.6134 101.362 12.4339L105.222 16.2944C106.043 17.1149 106.043 18.4452 105.222 19.2656L101.396 23.0922C100.575 23.9127 99.2448 23.9127 98.4243 23.0922L94.5637 19.2317Z" fill="black"/>
<path d="M104.798 18.8412L105.222 19.2654L101.395 23.092L100.971 22.6678L104.798 18.8412ZM104.798 16.7191L100.937 12.8584C100.351 12.2724 99.401 12.2724 98.815 12.8584L94.9884 16.685C94.4023 17.2711 94.4023 18.2211 94.9884 18.8072L98.849 22.6678C99.4351 23.2537 100.385 23.2538 100.971 22.6678L101.395 23.092L101.317 23.1667C100.519 23.8878 99.3008 23.888 98.5027 23.167L98.4244 23.0924L94.5638 19.2317C93.7689 18.4369 93.7439 17.1634 94.4891 16.3387L94.5638 16.2604L98.3904 12.4338L98.4686 12.3592C99.2934 11.6141 100.567 11.639 101.362 12.4338L105.222 16.2945L105.297 16.3731C106.018 17.1712 106.018 18.3891 105.297 19.1872L105.222 19.2654L104.798 18.8412C105.384 18.2552 105.384 17.3051 104.798 16.7191Z" fill="black"/>
<path d="M154.227 31.4772C154.227 30.608 154.931 29.9033 155.8 29.9033H177.31C178.179 29.9033 178.884 30.608 178.884 31.4772V38.8218C178.884 39.691 178.179 40.3956 177.31 40.3956H155.8C154.931 40.3956 154.227 39.691 154.227 38.8218V31.4772Z" fill="black"/>
<path d="M153.707 39.3457C154.577 39.3457 155.281 40.0503 155.281 40.9196L155.281 86.5612C155.281 87.4304 154.577 88.135 153.707 88.135L146.363 88.135C145.494 88.135 144.789 87.4304 144.789 86.5612L144.789 40.9196C144.789 40.0503 145.494 39.3457 146.363 39.3457L153.707 39.3457Z" fill="black"/>
</svg>
