<svg width="759" height="143" viewBox="0 0 759 143" fill="none" xmlns="http://www.w3.org/2000/svg">
<path d="M0 10.7583C0 4.81665 4.81664 0 10.7583 0H748.018C753.959 0 758.776 4.81664 758.776 10.7583V131.76C758.776 137.701 753.959 142.518 748.018 142.518H10.7582C4.81659 142.518 0 137.701 0 131.76V10.7583Z" fill="#FF7F39"/>
<path d="M665.525 72.4623C665.525 73.5591 666.074 74.1074 667.17 74.1074H675.91C677.007 74.1074 677.555 74.6558 677.555 75.7525V96.5218C677.555 96.933 677.384 97.31 677.041 97.6527C676.767 97.9269 676.39 98.064 675.91 98.064H667.17C666.691 98.064 666.279 97.9269 665.937 97.6527C665.662 97.31 665.525 96.933 665.525 96.5218V87.6794C665.525 87.2681 665.354 86.9254 665.011 86.6512C664.737 86.3085 664.36 86.1371 663.88 86.1371H655.141C654.044 86.1371 653.496 85.5888 653.496 84.492V75.7525C653.496 75.2727 653.324 74.8957 652.982 74.6215C652.707 74.2788 652.365 74.1074 651.953 74.1074H643.111C642.7 74.1074 642.323 74.2788 641.98 74.6215C641.706 74.8957 641.569 75.2727 641.569 75.7525V96.5218C641.569 96.933 641.706 97.31 641.98 97.6527C642.323 97.9269 642.7 98.064 643.111 98.064H663.88C664.977 98.064 665.525 98.6124 665.525 99.7091V108.449C665.525 109.545 664.977 110.094 663.88 110.094H631.184C630.087 110.094 629.539 109.545 629.539 108.449V39.7662C629.539 38.6695 630.087 38.1211 631.184 38.1211H639.924C641.02 38.1211 641.569 38.6695 641.569 39.7662V60.5354C641.569 60.9467 641.706 61.3237 641.98 61.6664C642.323 61.9406 642.7 62.0777 643.111 62.0777H663.88C664.977 62.0777 665.525 62.6261 665.525 63.7228V72.4623Z" fill="black"/>
<path d="M615.81 38.1211C616.907 38.1211 617.455 38.6695 617.455 39.7662V108.449C617.455 109.545 616.907 110.094 615.81 110.094H535.098C534.001 110.094 533.453 109.545 533.453 108.449V39.7662C533.453 38.6695 534.001 38.1211 535.098 38.1211H543.838C544.934 38.1211 545.483 38.6695 545.483 39.7662V96.5218C545.483 96.933 545.62 97.31 545.894 97.6527C546.237 97.9269 546.614 98.064 547.025 98.064H567.794C568.274 98.064 568.651 97.9269 568.925 97.6527C569.268 97.31 569.439 96.933 569.439 96.5218V39.7662C569.439 38.6695 569.988 38.1211 571.085 38.1211H579.824C580.921 38.1211 581.469 38.6695 581.469 39.7662V96.5218C581.469 96.933 581.606 97.31 581.88 97.6527C582.223 97.9269 582.6 98.064 583.011 98.064H603.781C604.26 98.064 604.638 97.9269 604.912 97.6527C605.254 97.31 605.426 96.933 605.426 96.5218V39.7662C605.426 38.6695 605.974 38.1211 607.071 38.1211H615.81Z" fill="black"/>
<path d="M474.942 110.094C473.845 110.094 473.297 109.545 473.297 108.449V39.7662C473.297 38.6695 473.845 38.1211 474.942 38.1211H483.682C484.778 38.1211 485.327 38.6695 485.327 39.7662V84.492C485.327 84.9719 485.464 85.3831 485.738 85.7259C486.081 86 486.458 86.1371 486.869 86.1371H495.711C496.122 86.1371 496.465 86.3085 496.739 86.6512C497.082 86.9254 497.253 87.2681 497.253 87.6794V96.5218C497.253 96.933 497.082 97.31 496.739 97.6527C496.465 97.9269 496.122 98.064 495.711 98.064H486.869C486.458 98.064 486.081 98.2354 485.738 98.5781C485.464 98.8523 485.327 99.2293 485.327 99.7091V108.449C485.327 109.545 484.778 110.094 483.682 110.094H474.942ZM519.668 38.1211C520.765 38.1211 521.313 38.6695 521.313 39.7662V108.449C521.313 109.545 520.765 110.094 519.668 110.094H510.928C509.832 110.094 509.283 109.545 509.283 108.449V87.6794C509.283 87.2681 509.112 86.9254 508.769 86.6512C508.495 86.3085 508.118 86.1371 507.638 86.1371H498.899C497.802 86.1371 497.253 85.5888 497.253 84.492V75.7525C497.253 74.6558 497.802 74.1074 498.899 74.1074H507.638C508.735 74.1074 509.283 73.5591 509.283 72.4623V39.7662C509.283 38.6695 509.832 38.1211 510.928 38.1211H519.668Z" fill="black"/>
<path d="M414.801 110.094C413.705 110.094 413.156 109.545 413.156 108.449V39.7662C413.156 38.6695 413.705 38.1211 414.801 38.1211H447.497C448.594 38.1211 449.143 38.6695 449.143 39.7662V48.5057C449.143 49.6024 448.594 50.1508 447.497 50.1508H426.728C426.317 50.1508 425.94 50.3222 425.597 50.6649C425.323 50.9391 425.186 51.2818 425.186 51.6931V72.4623C425.186 72.9421 425.323 73.3534 425.597 73.6961C425.94 73.9703 426.317 74.1074 426.728 74.1074H447.497C448.594 74.1074 449.143 74.6558 449.143 75.7525V84.492C449.143 85.5888 448.594 86.1371 447.497 86.1371H426.728C426.317 86.1371 425.94 86.3085 425.597 86.6512C425.323 86.9254 425.186 87.2681 425.186 87.6794V108.449C425.186 109.545 424.638 110.094 423.541 110.094H414.801ZM459.527 50.1508C460.007 50.1508 460.384 50.3222 460.658 50.6649C461.001 50.9391 461.172 51.2818 461.172 51.6931V72.4623C461.172 73.5591 460.624 74.1074 459.527 74.1074H450.788C449.691 74.1074 449.143 73.5591 449.143 72.4623V51.6931C449.143 51.2818 449.28 50.9391 449.554 50.6649C449.897 50.3222 450.308 50.1508 450.788 50.1508H459.527Z" fill="black"/>
<path d="M389.01 48.5057C389.01 49.6024 388.461 50.1508 387.365 50.1508H366.595C366.184 50.1508 365.807 50.0137 365.464 49.7395C365.19 49.3968 365.053 48.9855 365.053 48.5057V39.7662C365.053 39.2864 365.19 38.9094 365.464 38.6352C365.807 38.2925 366.184 38.1211 366.595 38.1211H387.365C388.461 38.1211 389.01 38.6695 389.01 39.7662V48.5057ZM399.394 50.1508C399.874 50.1508 400.251 50.3222 400.525 50.6649C400.868 50.9391 401.039 51.2818 401.039 51.6931V96.5218C401.039 96.933 400.868 97.31 400.525 97.6527C400.251 97.9269 399.874 98.064 399.394 98.064H390.655C390.175 98.064 389.764 97.9269 389.421 97.6527C389.147 97.31 389.01 96.933 389.01 96.5218V51.6931C389.01 51.2818 389.147 50.9391 389.421 50.6649C389.764 50.3222 390.175 50.1508 390.655 50.1508H399.394ZM353.023 96.5218V51.6931C353.023 51.2818 353.161 50.9391 353.435 50.6649C353.777 50.3222 354.189 50.1508 354.669 50.1508H363.408C363.888 50.1508 364.265 50.3222 364.539 50.6649C364.882 50.9391 365.053 51.2818 365.053 51.6931V96.5218C365.053 96.933 364.882 97.31 364.539 97.6527C364.265 97.9269 363.888 98.064 363.408 98.064H354.669C354.189 98.064 353.777 97.9269 353.435 97.6527C353.161 97.31 353.023 96.933 353.023 96.5218ZM365.053 99.7091C365.053 99.2293 365.19 98.8523 365.464 98.5781C365.807 98.2354 366.184 98.064 366.595 98.064H387.365C388.461 98.064 389.01 98.6124 389.01 99.7091V108.449C389.01 109.545 388.461 110.094 387.365 110.094H366.595C366.184 110.094 365.807 109.957 365.464 109.682C365.19 109.34 365.053 108.928 365.053 108.449V99.7091Z" fill="black"/>
<path d="M328.861 48.5057C328.861 49.6024 328.313 50.1508 327.216 50.1508H306.447C306.036 50.1508 305.659 50.0137 305.316 49.7395C305.042 49.3968 304.905 48.9855 304.905 48.5057V39.7662C304.905 39.2864 305.042 38.9094 305.316 38.6352C305.659 38.2925 306.036 38.1211 306.447 38.1211H327.216C328.313 38.1211 328.861 38.6695 328.861 39.7662V48.5057ZM294.52 110.094C293.423 110.094 292.875 109.545 292.875 108.449V51.6931C292.875 51.2818 293.012 50.9391 293.286 50.6649C293.629 50.3222 294.04 50.1508 294.52 50.1508H303.26C303.739 50.1508 304.116 50.3222 304.391 50.6649C304.733 50.9391 304.905 51.2818 304.905 51.6931V60.5354C304.905 60.9467 305.042 61.3237 305.316 61.6664C305.659 61.9406 306.036 62.0777 306.447 62.0777H327.216C328.313 62.0777 328.861 62.6261 328.861 63.7228V72.4623C328.861 73.5591 329.41 74.1074 330.506 74.1074H339.246C340.343 74.1074 340.891 74.6558 340.891 75.7525V96.5218C340.891 96.933 340.72 97.31 340.377 97.6527C340.103 97.9269 339.726 98.064 339.246 98.064H330.506C330.027 98.064 329.615 97.9269 329.273 97.6527C328.998 97.31 328.861 96.933 328.861 96.5218V87.6794C328.861 87.2681 328.69 86.9254 328.347 86.6512C328.073 86.3085 327.696 86.1371 327.216 86.1371H318.477C317.38 86.1371 316.832 85.5888 316.832 84.492V75.7525C316.832 75.2727 316.66 74.8957 316.318 74.6215C316.043 74.2788 315.701 74.1074 315.289 74.1074H306.447C306.036 74.1074 305.659 74.2788 305.316 74.6215C305.042 74.8957 304.905 75.2727 304.905 75.7525V96.5218C304.905 96.933 305.042 97.31 305.316 97.6527C305.659 97.9269 306.036 98.064 306.447 98.064H327.216C328.313 98.064 328.861 98.6124 328.861 99.7091V108.449C328.861 109.545 328.313 110.094 327.216 110.094H294.52ZM340.891 60.5354C340.891 60.9467 340.72 61.3237 340.377 61.6664C340.103 61.9406 339.726 62.0777 339.246 62.0777H330.506C330.027 62.0777 329.615 61.9406 329.273 61.6664C328.998 61.3237 328.861 60.9467 328.861 60.5354V51.6931C328.861 51.2818 328.998 50.9391 329.273 50.6649C329.615 50.3222 330.027 50.1508 330.506 50.1508H339.246C339.726 50.1508 340.103 50.3222 340.377 50.6649C340.72 50.9391 340.891 51.2818 340.891 51.6931V60.5354Z" fill="black"/>
<path d="M268.705 48.5057C268.705 49.6024 268.157 50.1508 267.06 50.1508H246.291C245.879 50.1508 245.502 50.0137 245.16 49.7395C244.886 49.3968 244.748 48.9855 244.748 48.5057V39.7662C244.748 39.2864 244.886 38.9094 245.16 38.6352C245.502 38.2925 245.879 38.1211 246.291 38.1211H267.06C268.157 38.1211 268.705 38.6695 268.705 39.7662V48.5057ZM279.09 50.1508C279.57 50.1508 279.947 50.3222 280.221 50.6649C280.563 50.9391 280.735 51.2818 280.735 51.6931V96.5218C280.735 96.933 280.563 97.31 280.221 97.6527C279.947 97.9269 279.57 98.064 279.09 98.064H270.35C269.87 98.064 269.459 97.9269 269.116 97.6527C268.842 97.31 268.705 96.933 268.705 96.5218V51.6931C268.705 51.2818 268.842 50.9391 269.116 50.6649C269.459 50.3222 269.87 50.1508 270.35 50.1508H279.09ZM232.719 96.5218V51.6931C232.719 51.2818 232.856 50.9391 233.13 50.6649C233.473 50.3222 233.884 50.1508 234.364 50.1508H243.103C243.583 50.1508 243.96 50.3222 244.234 50.6649C244.577 50.9391 244.748 51.2818 244.748 51.6931V96.5218C244.748 96.933 244.577 97.31 244.234 97.6527C243.96 97.9269 243.583 98.064 243.103 98.064H234.364C233.884 98.064 233.473 97.9269 233.13 97.6527C232.856 97.31 232.719 96.933 232.719 96.5218ZM244.748 99.7091C244.748 99.2293 244.886 98.8523 245.16 98.5781C245.502 98.2354 245.879 98.064 246.291 98.064H267.06C268.157 98.064 268.705 98.6124 268.705 99.7091V108.449C268.705 109.545 268.157 110.094 267.06 110.094H246.291C245.879 110.094 245.502 109.957 245.16 109.682C244.886 109.34 244.748 108.928 244.748 108.449V99.7091Z" fill="black"/>
<path d="M100.197 50.1508C99.7857 50.1508 99.4087 50.0137 99.066 49.7395C98.7918 49.3968 98.6547 48.9855 98.6547 48.5057V39.7662C98.6547 39.2864 98.7918 38.9094 99.066 38.6352C99.4087 38.2925 99.7857 38.1211 100.197 38.1211H132.996C134.093 38.1211 134.641 38.6695 134.641 39.7662V48.5057C134.641 49.6024 134.093 50.1508 132.996 50.1508H100.197ZM97.0096 50.1508C97.4894 50.1508 97.8664 50.3222 98.1406 50.6649C98.4834 50.9391 98.6547 51.2818 98.6547 51.6931V60.5354C98.6547 60.9467 98.7918 61.3237 99.066 61.6664C99.4087 61.9406 99.7857 62.0777 100.197 62.0777H120.966C122.063 62.0777 122.611 62.6261 122.611 63.7228V72.4623C122.611 73.5591 122.063 74.1074 120.966 74.1074H100.197C99.7857 74.1074 99.4087 74.2788 99.066 74.6215C98.7918 74.8957 98.6547 75.2727 98.6547 75.7525V96.5218C98.6547 96.933 98.4834 97.31 98.1406 97.6527C97.8664 97.9269 97.4894 98.064 97.0096 98.064H88.2701C87.7903 98.064 87.379 97.9269 87.0363 97.6527C86.7621 97.31 86.625 96.933 86.625 96.5218V51.6931C86.625 51.2818 86.7621 50.9391 87.0363 50.6649C87.379 50.3222 87.7903 50.1508 88.2701 50.1508H97.0096ZM100.197 110.094C99.7857 110.094 99.4087 109.957 99.066 109.682C98.7918 109.34 98.6547 108.928 98.6547 108.449V99.7091C98.6547 99.2293 98.7918 98.8523 99.066 98.5781C99.4087 98.2354 99.7857 98.064 100.197 98.064H132.996C134.093 98.064 134.641 98.6124 134.641 99.7091V108.449C134.641 109.545 134.093 110.094 132.996 110.094H100.197Z" fill="black"/>
<path d="M28.1373 74.1074C27.0406 74.1074 26.4922 73.5591 26.4922 72.4623V39.7662C26.4922 38.6695 27.0406 38.1211 28.1373 38.1211H36.8768C37.9735 38.1211 38.5219 38.6695 38.5219 39.7662V72.4623C38.5219 73.5591 37.9735 74.1074 36.8768 74.1074H28.1373ZM72.8631 38.1211C73.9599 38.1211 74.5082 38.6695 74.5082 39.7662V108.449C74.5082 109.545 73.9599 110.094 72.8631 110.094H64.1236C63.0269 110.094 62.4785 109.545 62.4785 108.449V87.6794C62.4785 87.2681 62.3071 86.9254 61.9644 86.6512C61.6902 86.3085 61.3132 86.1371 60.8334 86.1371H40.0642C39.6529 86.1371 39.2759 86 38.9332 85.7259C38.659 85.3831 38.5219 84.9719 38.5219 84.492V75.7525C38.5219 75.2727 38.659 74.8957 38.9332 74.6215C39.2759 74.2788 39.6529 74.1074 40.0642 74.1074H60.8334C61.9301 74.1074 62.4785 73.5591 62.4785 72.4623V39.7662C62.4785 38.6695 63.0269 38.1211 64.1236 38.1211H72.8631Z" fill="black"/>
<path d="M628.781 108.449V39.7657C628.781 39.1011 628.948 38.4639 629.414 37.9983C629.88 37.5327 630.517 37.3662 631.181 37.3662V38.1207C630.085 38.1207 629.537 38.6692 629.536 39.7657V108.449L629.543 108.648C629.607 109.612 630.153 110.094 631.181 110.094H663.878L664.077 110.087C664.977 110.027 665.456 109.547 665.516 108.648L665.523 108.449V99.7088C665.523 98.6808 665.041 98.1345 664.077 98.0702L663.878 98.0638V97.3092C664.26 97.3093 664.632 97.3648 664.969 97.5C664.838 97.1945 664.768 96.8676 664.768 96.5219V87.6796C664.768 87.5148 664.714 87.3827 664.537 87.2408L664.471 87.1879L664.419 87.1229C664.303 86.9775 664.153 86.8922 663.878 86.8922H655.138C654.473 86.8922 653.836 86.7251 653.371 86.2594C652.905 85.7938 652.738 85.1567 652.738 84.492V75.7522C652.738 75.4774 652.653 75.3272 652.507 75.2109L652.441 75.1587L652.389 75.093C652.247 74.9156 652.115 74.8623 651.95 74.8623H643.108C642.933 74.8624 642.739 74.9272 642.511 75.1555C642.41 75.2561 642.321 75.4227 642.321 75.7522V96.5219C642.321 96.7261 642.379 96.9177 642.517 97.1127C642.712 97.2508 642.904 97.3092 643.108 97.3092V98.0638C642.697 98.0637 642.32 97.9268 641.977 97.6527C641.738 97.3529 641.603 97.0268 641.573 96.6746L641.566 96.5219V75.7522C641.566 75.3325 641.671 74.9913 641.881 74.729L641.977 74.6214C642.32 74.2787 642.697 74.1072 643.108 74.1072H651.95C652.362 74.1072 652.705 74.2786 652.979 74.6214C653.322 74.8955 653.493 75.2725 653.493 75.7522V84.492L653.499 84.6911C653.559 85.5908 654.039 86.0706 654.939 86.1306L655.138 86.137H663.878C664.358 86.1371 664.735 86.3085 665.009 86.6512C665.351 86.9254 665.523 87.2683 665.523 87.6796V96.5219L665.529 96.6746C665.559 97.0268 665.694 97.3529 665.934 97.6527L666.065 97.7493C666.335 97.9293 666.644 98.0317 666.991 98.0573L667.168 98.0638H675.907C676.327 98.0638 676.669 97.9593 676.931 97.7493L677.039 97.6527C677.338 97.3529 677.507 97.0268 677.544 96.6746L677.552 96.5219V75.7522C677.552 74.6556 677.004 74.1072 675.907 74.1072V73.352C676.572 73.352 677.209 73.519 677.675 73.9847C678.141 74.4504 678.307 75.0876 678.307 75.7522V96.5219C678.307 97.1687 678.029 97.7292 677.572 98.1862C677.124 98.634 676.537 98.8189 675.907 98.8189H667.168C666.784 98.8189 666.42 98.7494 666.083 98.6089C666.221 98.9477 666.277 99.3234 666.277 99.7088V108.449C666.277 109.113 666.111 109.75 665.645 110.216C665.18 110.682 664.542 110.849 663.878 110.849H631.181C630.517 110.849 629.88 110.682 629.414 110.216C628.948 109.75 628.781 109.113 628.781 108.449ZM663.878 97.3092V98.0638H643.108V97.3092H663.878ZM675.907 73.352V74.1072H667.168V73.352H675.907ZM665.523 72.4622V63.723C665.523 62.6949 665.041 62.1481 664.077 62.0838L663.878 62.0773V61.3228C664.542 61.3229 665.18 61.4893 665.645 61.9549C666.111 62.4206 666.277 63.0582 666.277 63.723V72.4622C666.277 72.8937 666.385 73.0791 666.467 73.1619C666.55 73.2446 666.736 73.352 667.168 73.352V74.1072L666.969 74.1007C666.069 74.0408 665.589 73.5611 665.529 72.6613L665.523 72.4622ZM663.878 61.3228V62.0773H643.108V61.3228H663.878ZM641.566 60.5354V39.7657C641.566 38.7378 641.084 38.1915 640.12 38.1272L639.921 38.1207V37.3662C640.586 37.3663 641.223 37.5327 641.689 37.9983C642.154 38.4639 642.321 39.1011 642.321 39.7657V60.5354C642.321 60.7396 642.379 60.9313 642.517 61.1263C642.712 61.2644 642.904 61.3228 643.108 61.3228V62.0773C642.697 62.0773 642.32 61.9404 641.977 61.6662C641.738 61.3664 641.603 61.0404 641.573 60.6881L641.566 60.5354ZM639.921 37.3662V38.1207H631.181V37.3662H639.921Z" fill="black"/>
<path d="M532.688 108.449V39.7657C532.688 39.1012 532.854 38.4639 533.32 37.9983C533.785 37.5326 534.423 37.3662 535.088 37.3662V38.1207L534.889 38.1272C533.925 38.1913 533.443 38.7377 533.443 39.7657V108.449L533.449 108.648C533.509 109.547 533.989 110.027 534.889 110.087L535.088 110.094H615.8L615.999 110.087C616.899 110.027 617.378 109.547 617.438 108.648L617.445 108.449V39.7657C617.445 38.7377 616.963 38.1914 615.999 38.1272L615.8 38.1207V37.3662C616.464 37.3662 617.101 37.5327 617.567 37.9983C618.033 38.4639 618.2 39.1011 618.2 39.7657V108.449C618.2 109.113 618.033 109.75 617.567 110.216C617.101 110.682 616.464 110.849 615.8 110.849H535.088C534.423 110.849 533.785 110.682 533.32 110.216C532.854 109.75 532.688 109.113 532.688 108.449ZM567.783 97.3092V98.0638H547.014V97.3092H567.783ZM568.674 96.5219V39.7657C568.674 39.1011 568.84 38.4639 569.306 37.9983C569.772 37.5326 570.409 37.3662 571.074 37.3662V38.1207L570.874 38.1272C569.911 38.1915 569.429 38.7378 569.428 39.7657V96.5219L569.421 96.6746C569.383 97.0268 569.215 97.3529 568.915 97.6527L568.807 97.7493C568.545 97.9593 568.203 98.0638 567.783 98.0638V97.3092C568.113 97.3092 568.28 97.2191 568.381 97.1185C568.609 96.8903 568.674 96.6974 568.674 96.5219ZM603.77 97.3092V98.0638H583.001V97.3092H603.77ZM604.66 96.5219V39.7657C604.66 39.1011 604.827 38.4639 605.292 37.9983C605.758 37.5327 606.395 37.3663 607.06 37.3662V38.1207C605.963 38.1208 605.415 38.6693 605.415 39.7657V96.5219L605.407 96.6746C605.37 97.0268 605.201 97.3529 604.901 97.6527L604.793 97.7493C604.531 97.9591 604.19 98.0638 603.77 98.0638V97.3092C604.1 97.3092 604.267 97.2191 604.367 97.1185C604.595 96.8903 604.66 96.6974 604.66 96.5219ZM581.458 96.5219V39.7657C581.458 38.6692 580.91 38.1207 579.813 38.1207V37.3662C580.478 37.3662 581.115 37.5328 581.581 37.9983C582.046 38.4639 582.213 39.1011 582.213 39.7657V96.5219C582.214 96.726 582.271 96.9178 582.409 97.1127C582.604 97.2509 582.796 97.3092 583.001 97.3092V98.0638L582.848 98.0573C582.496 98.0273 582.17 97.8925 581.87 97.6527C581.63 97.3529 581.495 97.0268 581.465 96.6746L581.458 96.5219ZM545.472 96.5219V39.7657C545.472 38.6692 544.923 38.1207 543.827 38.1207V37.3662C544.492 37.3662 545.129 37.5326 545.595 37.9983C546.061 38.4639 546.227 39.1011 546.227 39.7657V96.5219C546.227 96.726 546.285 96.9178 546.422 97.1127C546.618 97.251 546.81 97.3092 547.014 97.3092V98.0638L546.862 98.0573C546.509 98.0273 546.183 97.8925 545.884 97.6527C545.644 97.3529 545.508 97.0268 545.478 96.6746L545.472 96.5219ZM615.8 37.3662V38.1207H607.06V37.3662H615.8ZM579.813 37.3662V38.1207H571.074V37.3662H579.813ZM543.827 37.3662V38.1207H535.088V37.3662H543.827Z" fill="black"/>
<path d="M508.533 108.449V87.6796C508.533 87.5148 508.48 87.3827 508.303 87.2408L508.237 87.1879L508.185 87.1229C508.068 86.9775 507.918 86.8922 507.643 86.8922H498.904C498.498 86.8922 498.103 86.8291 497.751 86.675C497.922 86.9716 498.014 87.3092 498.014 87.6796V96.5219C498.014 97.1686 497.735 97.7292 497.279 98.1862C496.854 98.6112 496.314 98.8189 495.716 98.8189H486.874C486.698 98.819 486.505 98.8838 486.276 99.1121C486.176 99.2127 486.086 99.3793 486.086 99.7088V108.449C486.086 109.113 485.92 109.75 485.454 110.216C484.989 110.682 484.352 110.849 483.687 110.849H474.947C474.282 110.849 473.645 110.682 473.18 110.216C472.714 109.75 472.547 109.113 472.547 108.449V39.7657C472.547 39.1011 472.714 38.4639 473.18 37.9983C473.645 37.5327 474.282 37.3662 474.947 37.3662V38.1207C473.85 38.1207 473.302 38.6692 473.302 39.7657V108.449L473.308 108.648C473.373 109.612 473.919 110.094 474.947 110.094H483.687L483.886 110.087C484.786 110.027 485.265 109.547 485.325 108.648L485.332 108.449V99.7088C485.332 99.2891 485.436 98.9479 485.646 98.6856L485.743 98.5779C486.086 98.2353 486.463 98.0638 486.874 98.0638H495.716C496.076 98.0638 496.383 97.9591 496.638 97.7493L496.744 97.6527C497.044 97.3529 497.213 97.0268 497.25 96.6746L497.259 96.5219V87.6796C497.259 87.2683 497.087 86.9254 496.744 86.6512C496.505 86.3514 496.212 86.1823 495.868 86.1447L495.716 86.137V85.3818C496.086 85.3818 496.424 85.4735 496.72 85.6441C496.566 85.292 496.503 84.8972 496.503 84.492V75.7522C496.504 75.0875 496.671 74.4504 497.136 73.9847C497.602 73.5191 498.239 73.352 498.904 73.352V74.1072C497.807 74.1072 497.259 74.6556 497.259 75.7522V84.492L497.265 84.6911C497.325 85.5908 497.805 86.0706 498.705 86.1306L498.904 86.137H507.643C508.123 86.1371 508.5 86.3085 508.774 86.6512C509.117 86.9254 509.288 87.2683 509.288 87.6796V108.449L509.295 108.648C509.355 109.547 509.835 110.027 510.734 110.087L510.933 110.094H519.673C520.701 110.094 521.248 109.612 521.312 108.648L521.318 108.449V39.7657C521.318 38.6692 520.769 38.1207 519.673 38.1207V37.3662C520.337 37.3662 520.975 37.5326 521.441 37.9983C521.906 38.4639 522.073 39.1011 522.073 39.7657V108.449C522.073 109.113 521.906 109.75 521.441 110.216C520.975 110.682 520.337 110.849 519.673 110.849H510.933C510.269 110.849 509.631 110.682 509.165 110.216C508.7 109.75 508.533 109.113 508.533 108.449ZM495.716 85.3818V86.137H486.874V85.3818H495.716ZM485.332 84.492V39.7657C485.332 38.7378 484.85 38.1915 483.886 38.1272L483.687 38.1207V37.3662C484.352 37.3663 484.989 37.5327 485.454 37.9983C485.92 38.4639 486.086 39.1011 486.086 39.7657V84.492C486.086 84.7815 486.158 85.0036 486.284 85.1873C486.478 85.3245 486.67 85.3818 486.874 85.3818V86.137L486.721 86.1306C486.369 86.1005 486.043 85.9657 485.743 85.7259C485.503 85.426 485.368 85.0734 485.338 84.6686L485.332 84.492ZM507.643 73.352V74.1072H498.904V73.352H507.643ZM508.533 72.4622V39.7657C508.533 39.1012 508.7 38.4639 509.165 37.9983C509.631 37.5326 510.269 37.3662 510.933 37.3662V38.1207L510.734 38.1272C509.77 38.1914 509.289 38.7377 509.288 39.7657V72.4622L509.282 72.6613C509.222 73.561 508.742 74.0407 507.843 74.1007L507.643 74.1072V73.352C508.075 73.352 508.261 73.2446 508.343 73.1619C508.426 73.0792 508.533 72.8939 508.533 72.4622ZM519.673 37.3662V38.1207H510.933V37.3662H519.673ZM483.687 37.3662V38.1207H474.947V37.3662H483.687Z" fill="black"/>
<path d="M412.406 108.449V39.7657C412.406 39.1011 412.573 38.4639 413.039 37.9983C413.505 37.5327 414.142 37.3662 414.806 37.3662V38.1207C413.71 38.1208 413.162 38.6693 413.161 39.7657V108.449L413.168 108.648C413.232 109.612 413.778 110.094 414.806 110.094H423.546L423.745 110.087C424.645 110.027 425.125 109.547 425.185 108.648L425.191 108.449V87.6796C425.191 87.3196 425.296 87.0118 425.506 86.7569L425.602 86.6512C425.902 86.3512 426.229 86.1822 426.581 86.1447L426.733 86.137H447.503L447.702 86.1306C448.602 86.0706 449.081 85.5908 449.141 84.6911L449.148 84.492V75.7522C449.148 74.7241 448.666 74.1779 447.702 74.1136L447.503 74.1072V73.352C447.878 73.352 448.244 73.4057 448.576 73.5356C448.446 73.2039 448.393 72.8373 448.393 72.4622V51.6931C448.393 51.3401 448.466 51.0078 448.612 50.7073C448.271 50.848 447.892 50.9057 447.503 50.9057H426.733C426.558 50.9058 426.365 50.9707 426.137 51.1989C426.013 51.3223 425.946 51.4686 425.946 51.6931V72.4622C425.946 72.7516 426.017 72.9738 426.143 73.1574C426.338 73.2947 426.529 73.3519 426.733 73.352V74.1072C426.322 74.1071 425.945 73.9702 425.602 73.6961C425.362 73.3962 425.228 73.0436 425.198 72.6387L425.191 72.4622V51.6931C425.191 51.2819 425.328 50.9389 425.602 50.6648C425.945 50.3221 426.322 50.1507 426.733 50.1506H447.503L447.702 50.1441C448.602 50.0842 449.081 49.6044 449.141 48.7047L449.148 48.5056V39.7657C449.148 38.7378 448.666 38.1914 447.702 38.1272L447.503 38.1207V37.3662C448.168 37.3662 448.805 37.5327 449.27 37.9983C449.736 38.4639 449.903 39.1011 449.903 39.7657V48.5056C449.903 48.9074 449.841 49.2987 449.69 49.6486C450.025 49.4817 450.395 49.3954 450.793 49.3954V50.1506C450.313 50.1506 449.902 50.322 449.559 50.6648C449.285 50.9389 449.148 51.2819 449.148 51.6931V72.4622L449.154 72.6613C449.219 73.6253 449.765 74.1072 450.793 74.1072H459.533L459.732 74.1007C460.631 74.0407 461.111 73.561 461.171 72.6613L461.178 72.4622V51.6931C461.178 51.2819 461.006 50.9389 460.664 50.6648C460.424 50.3648 460.105 50.1964 459.707 50.159L459.533 50.1506V49.3954C460.189 49.3955 460.77 49.6327 461.197 50.1274C461.666 50.5285 461.932 51.0628 461.932 51.6931V72.4622C461.932 73.1268 461.766 73.7639 461.3 74.2296C460.834 74.6952 460.197 74.8623 459.533 74.8623H450.793C450.418 74.8623 450.052 74.8092 449.72 74.6793C449.85 75.0109 449.903 75.3772 449.903 75.7522V84.492C449.903 85.1567 449.736 85.7938 449.27 86.2594C448.805 86.7251 448.168 86.8922 447.503 86.8922H426.733C426.558 86.8923 426.365 86.9567 426.137 87.1847C426.013 87.3081 425.946 87.455 425.946 87.6796V108.449C425.946 109.113 425.779 109.75 425.314 110.216C424.848 110.682 424.211 110.849 423.546 110.849H414.806C414.142 110.849 413.505 110.682 413.039 110.216C412.573 109.75 412.406 109.113 412.406 108.449ZM447.503 73.352V74.1072H426.733V73.352H447.503ZM459.533 49.3954V50.1506H450.793V49.3954H459.533ZM447.503 37.3662V38.1207H414.806V37.3662H447.503Z" fill="black"/>
<path d="M388.244 51.6931C388.244 51.3402 388.317 51.0078 388.463 50.7073C388.122 50.8479 387.743 50.9057 387.354 50.9057H366.585C366.207 50.9057 365.851 50.823 365.522 50.6673C365.701 50.9691 365.797 51.3138 365.797 51.6931V96.5219C365.797 96.9094 365.697 97.2657 365.518 97.5876C365.84 97.4092 366.197 97.3092 366.585 97.3092V98.0638L366.432 98.0721C366.08 98.1096 365.753 98.278 365.453 98.5779C365.179 98.8521 365.042 99.2291 365.042 99.7088V108.449L365.049 108.625C365.079 109.03 365.213 109.383 365.453 109.683C365.753 109.922 366.08 110.057 366.432 110.087L366.585 110.094H387.354C388.382 110.094 388.928 109.612 388.992 108.648L388.999 108.449V99.7088C388.999 98.6122 388.45 98.0638 387.354 98.0638V97.3092C387.736 97.3092 388.109 97.3647 388.445 97.5C388.314 97.1945 388.244 96.8676 388.244 96.5219V51.6931ZM387.354 97.3092V98.0638H366.585V97.3092H387.354ZM399.384 49.3954V50.1506H390.644V49.3954H399.384ZM363.397 49.3954V50.1506H354.657V49.3954H363.397ZM387.354 37.3662V38.1207H366.585V37.3662H387.354ZM388.999 96.5219L389.005 96.6746C389.035 97.0268 389.17 97.3529 389.41 97.6527L389.542 97.7493C389.857 97.9591 390.224 98.0637 390.644 98.0638H399.384L399.559 98.0573C399.899 98.0316 400.182 97.9291 400.407 97.7493L400.514 97.6527C400.814 97.3529 400.983 97.0268 401.02 96.6746L401.029 96.5219V51.6931C401.029 51.2819 400.857 50.9389 400.514 50.6648C400.275 50.365 399.956 50.1965 399.559 50.159L399.384 50.1506V49.3954C400.04 49.3954 400.62 49.6327 401.048 50.1274C401.517 50.5285 401.784 51.0627 401.784 51.6931V96.5219C401.784 97.1686 401.505 97.7292 401.049 98.1862C400.601 98.634 400.013 98.8189 399.384 98.8189H390.644C390.26 98.8189 389.896 98.7499 389.559 98.6095C389.697 98.9481 389.754 99.3237 389.754 99.7088V108.449C389.754 109.113 389.587 109.75 389.121 110.216C388.656 110.682 388.018 110.849 387.354 110.849H366.585C365.99 110.849 365.449 110.646 364.982 110.272L364.917 110.219L364.864 110.154C364.472 109.665 364.287 109.083 364.287 108.449V99.7088C364.287 99.3002 364.365 98.9095 364.542 98.5631C364.196 98.74 363.806 98.8189 363.397 98.8189H354.657C354.023 98.8189 353.442 98.6335 352.952 98.2422L352.887 98.1901L352.834 98.1243C352.461 97.6575 352.258 97.1164 352.258 96.5219V51.6931C352.258 51.0951 352.465 50.5556 352.89 50.1306C353.373 49.6481 353.975 49.3955 354.657 49.3954V50.1506C354.178 50.1507 353.767 50.3222 353.424 50.6648L353.327 50.7711C353.118 51.0259 353.012 51.3334 353.012 51.6931V96.5219L353.019 96.6746C353.049 97.0268 353.184 97.3529 353.424 97.6527C353.767 97.9267 354.178 98.0637 354.657 98.0638H363.397C363.817 98.0638 364.158 97.9591 364.42 97.7493L364.528 97.6527C364.828 97.3529 364.997 97.0268 365.034 96.6746L365.042 96.5219V51.6931C365.042 51.2819 364.871 50.9389 364.528 50.6648C364.254 50.3221 363.877 50.1506 363.397 50.1506V49.3954C363.815 49.3954 364.203 49.4923 364.54 49.6899C364.369 49.3261 364.287 48.9275 364.287 48.5056V39.7657C364.287 39.1362 364.472 38.5491 364.92 38.1014C365.377 37.6443 365.938 37.3662 366.585 37.3662V38.1207L366.432 38.1291C366.08 38.1666 365.753 38.335 365.453 38.6349C365.179 38.909 365.042 39.2861 365.042 39.7657V48.5056C365.042 48.9854 365.179 49.3968 365.453 49.7395L365.583 49.8355C365.847 50.0156 366.13 50.1184 366.432 50.1441L366.585 50.1506H387.354C388.45 50.1506 388.999 49.6023 388.999 48.5056V39.7657C388.999 38.6692 388.45 38.1207 387.354 38.1207V37.3662C388.018 37.3662 388.656 37.5327 389.121 37.9983C389.587 38.4639 389.754 39.1011 389.754 39.7657V48.5056C389.754 48.9071 389.692 49.2983 389.541 49.648C389.877 49.4813 390.247 49.3954 390.644 49.3954V50.1506C390.164 50.1506 389.753 50.3221 389.41 50.6648C389.136 50.9389 388.999 51.2819 388.999 51.6931V96.5219Z" fill="black"/>
<path d="M292.117 108.449V51.6931C292.117 51.0951 292.324 50.5556 292.749 50.1306C293.232 49.6479 293.835 49.3954 294.517 49.3954V50.1506L294.34 50.159C293.935 50.1965 293.583 50.365 293.283 50.6648L293.187 50.7711C292.977 51.0259 292.872 51.3334 292.872 51.6931V108.449L292.879 108.648C292.939 109.547 293.418 110.027 294.318 110.087L294.517 110.094H327.213C328.241 110.094 328.787 109.612 328.852 108.648L328.858 108.449V99.7088C328.858 98.6122 328.31 98.0638 327.213 98.0638V97.3092C327.595 97.3092 327.968 97.3647 328.305 97.5C328.174 97.1945 328.104 96.8676 328.104 96.5219V87.6796C328.104 87.5149 328.05 87.3827 327.873 87.2408L327.807 87.1879L327.755 87.1229C327.639 86.9775 327.488 86.8922 327.213 86.8922H318.474C317.809 86.8922 317.172 86.7251 316.706 86.2594C316.24 85.7938 316.074 85.1566 316.074 84.492V75.7522C316.074 75.4775 315.988 75.3272 315.843 75.2109L315.777 75.1587L315.725 75.093C315.583 74.9155 315.451 74.8623 315.286 74.8623H306.444C306.269 74.8623 306.075 74.9272 305.847 75.1555C305.746 75.2561 305.657 75.4226 305.657 75.7522V96.5219C305.657 96.726 305.714 96.9178 305.852 97.1127C306.047 97.251 306.239 97.3092 306.444 97.3092V98.0638L306.291 98.0573C305.939 98.0273 305.613 97.8925 305.313 97.6527C305.073 97.3529 304.938 97.0268 304.908 96.6746L304.902 96.5219V75.7522C304.902 75.3324 305.007 74.9913 305.217 74.729L305.313 74.6214C305.613 74.3216 305.939 74.153 306.291 74.1155L306.444 74.1072H315.286C315.698 74.1072 316.041 74.2786 316.315 74.6214C316.657 74.8955 316.829 75.2725 316.829 75.7522V84.492L316.835 84.6911C316.895 85.5909 317.375 86.0707 318.275 86.1306L318.474 86.137H327.213C327.693 86.137 328.07 86.3085 328.345 86.6512C328.687 86.9254 328.858 87.2684 328.858 87.6796V96.5219L328.865 96.6746C328.895 97.0268 329.03 97.3529 329.27 97.6527L329.401 97.7493C329.671 97.9292 329.98 98.0316 330.327 98.0573L330.504 98.0638H339.243C339.663 98.0638 340.004 97.9591 340.266 97.7493L340.374 97.6527C340.674 97.3529 340.843 97.0268 340.88 96.6746L340.888 96.5219V75.7522C340.888 74.6556 340.34 74.1072 339.243 74.1072V73.352C339.908 73.352 340.545 73.5191 341.01 73.9847C341.476 74.4504 341.643 75.0875 341.643 75.7522V96.5219C341.643 97.1686 341.365 97.7292 340.908 98.1862C340.46 98.634 339.873 98.8189 339.243 98.8189H330.504C330.12 98.8189 329.755 98.7499 329.419 98.6095C329.556 98.9482 329.613 99.3236 329.613 99.7088V108.449C329.613 109.113 329.447 109.75 328.981 110.216C328.516 110.682 327.878 110.849 327.213 110.849H294.517C293.853 110.849 293.215 110.682 292.749 110.216C292.284 109.75 292.117 109.113 292.117 108.449ZM327.213 97.3092V98.0638H306.444V97.3092H327.213ZM339.243 73.352V74.1072H330.504V73.352H339.243ZM328.858 72.4622V63.723C328.858 62.6263 328.31 62.0773 327.213 62.0773V61.3228C327.595 61.3228 327.968 61.3783 328.305 61.5135C328.174 61.2081 328.104 60.8812 328.104 60.5354V51.6931C328.104 51.3402 328.176 51.0078 328.323 50.7073C327.981 50.8479 327.602 50.9057 327.213 50.9057H306.444C306.066 50.9057 305.71 50.823 305.381 50.6673C305.56 50.9691 305.657 51.3137 305.657 51.6931V60.5354C305.657 60.7396 305.714 60.9314 305.852 61.1263C306.047 61.2646 306.239 61.3228 306.444 61.3228V62.0773L306.291 62.0709C305.939 62.0409 305.613 61.9061 305.313 61.6662C305.073 61.3664 304.938 61.0404 304.908 60.6881L304.902 60.5354V51.6931C304.902 51.2819 304.731 50.9389 304.388 50.6648C304.114 50.322 303.736 50.1506 303.257 50.1506V49.3954C303.675 49.3954 304.063 49.4922 304.4 49.6899C304.229 49.3261 304.147 48.9275 304.147 48.5056V39.7657C304.147 39.1363 304.332 38.5491 304.779 38.1014C305.236 37.6443 305.797 37.3662 306.444 37.3662V38.1207L306.291 38.1291C305.939 38.1666 305.613 38.3352 305.313 38.6349L305.217 38.7425C305.007 39.0049 304.902 39.346 304.902 39.7657V48.5056C304.902 48.9854 305.039 49.3968 305.313 49.7395L305.443 49.8355C305.707 50.0154 305.989 50.1184 306.291 50.1441L306.444 50.1506H327.213C328.31 50.1506 328.858 49.6023 328.858 48.5056V39.7657C328.858 38.6692 328.31 38.1207 327.213 38.1207V37.3662C327.878 37.3662 328.516 37.5326 328.981 37.9983C329.447 38.4639 329.613 39.1011 329.613 39.7657V48.5056C329.613 48.9072 329.552 49.2983 329.401 49.648C329.736 49.4812 330.107 49.3954 330.504 49.3954V50.1506L330.327 50.159C329.922 50.1965 329.57 50.365 329.27 50.6648L329.173 50.7711C328.963 51.0259 328.858 51.3334 328.858 51.6931V60.5354L328.865 60.6881C328.895 61.0404 329.03 61.3664 329.27 61.6662L329.401 61.7629C329.671 61.9428 329.98 62.0452 330.327 62.0709L330.504 62.0773H339.243C339.723 62.0773 340.1 61.9404 340.374 61.6662C340.674 61.3664 340.843 61.0404 340.88 60.6881L340.888 60.5354V51.6931C340.888 51.2819 340.717 50.9389 340.374 50.6648C340.1 50.3221 339.723 50.1506 339.243 50.1506V49.3954C339.899 49.3954 340.48 49.6327 340.907 50.1274C341.377 50.5285 341.643 51.0627 341.643 51.6931V60.5354C341.643 61.1823 341.365 61.7433 340.908 62.2004C340.46 62.6481 339.873 62.8325 339.243 62.8325H330.504C330.12 62.8325 329.755 62.7635 329.419 62.6231C329.556 62.9618 329.613 63.3377 329.613 63.723V72.4622C329.613 72.8938 329.721 73.0792 329.803 73.1619C329.886 73.2446 330.072 73.352 330.504 73.352V74.1072L330.304 74.1007C329.34 74.0364 328.858 73.4903 328.858 72.4622ZM327.213 61.3228V62.0773H306.444V61.3228H327.213ZM339.243 49.3954V50.1506H330.504V49.3954H339.243ZM303.257 49.3954V50.1506H294.517V49.3954H303.257ZM327.213 37.3662V38.1207H306.444V37.3662H327.213Z" fill="black"/>
<path d="M267.955 51.6931C267.955 51.3402 268.028 51.0078 268.174 50.7073C267.833 50.8478 267.454 50.9057 267.065 50.9057H246.296C245.918 50.9057 245.562 50.8229 245.233 50.6673C245.412 50.9691 245.508 51.3138 245.508 51.6931V96.5219C245.508 96.9095 245.408 97.2656 245.229 97.5876C245.551 97.4091 245.908 97.3093 246.296 97.3092V98.0638C245.884 98.0638 245.508 98.2353 245.165 98.5779L245.068 98.6856C244.858 98.9479 244.754 99.2891 244.754 99.7088V108.449L244.76 108.625C244.79 109.03 244.925 109.383 245.165 109.683C245.508 109.957 245.884 110.094 246.296 110.094H267.065L267.264 110.087C268.164 110.027 268.644 109.547 268.704 108.648L268.71 108.449V99.7088C268.71 98.6808 268.228 98.1345 267.264 98.0702L267.065 98.0638V97.3092C267.447 97.3093 267.82 97.3648 268.156 97.5C268.025 97.1945 267.955 96.8676 267.955 96.5219V51.6931ZM267.065 97.3092V98.0638H246.296V97.3092H267.065ZM279.095 49.3954V50.1506H270.355V49.3954H279.095ZM243.109 49.3954V50.1506H234.369V49.3954H243.109ZM267.065 37.3662V38.1207H246.296V37.3662H267.065ZM268.71 96.5219L268.717 96.6746C268.747 97.0268 268.882 97.3529 269.121 97.6527L269.253 97.7493C269.523 97.9293 269.832 98.0317 270.179 98.0573L270.355 98.0638H279.095C279.514 98.0638 279.856 97.9593 280.118 97.7493L280.226 97.6527C280.526 97.3529 280.694 97.0268 280.732 96.6746L280.74 96.5219V51.6931C280.74 51.2819 280.569 50.9389 280.226 50.6648C279.952 50.322 279.574 50.1506 279.095 50.1506V49.3954C279.751 49.3954 280.333 49.6329 280.761 50.1287C281.229 50.5297 281.495 51.0635 281.495 51.6931V96.5219C281.495 97.1687 281.217 97.7292 280.76 98.1862C280.312 98.634 279.724 98.8189 279.095 98.8189H270.355C269.971 98.8189 269.607 98.7494 269.27 98.6089C269.408 98.9477 269.465 99.3234 269.465 99.7088V108.449C269.465 109.113 269.298 109.75 268.833 110.216C268.367 110.682 267.73 110.849 267.065 110.849H246.296C245.701 110.849 245.16 110.646 244.693 110.272L244.627 110.219L244.575 110.154C244.184 109.665 243.999 109.083 243.999 108.449V99.7088C243.999 99.3001 244.077 98.9095 244.254 98.5631C243.907 98.74 243.517 98.8189 243.109 98.8189H234.369C233.735 98.8189 233.153 98.6337 232.663 98.2422L232.598 98.1901L232.545 98.1243C232.172 97.6575 231.969 97.1164 231.969 96.5219V51.6931C231.969 51.0951 232.176 50.5556 232.601 50.1306C233.084 49.6481 233.687 49.3954 234.369 49.3954V50.1506L234.192 50.159C233.787 50.1964 233.435 50.3648 233.135 50.6648C232.861 50.9389 232.724 51.2819 232.724 51.6931V96.5219L232.73 96.6746C232.76 97.0268 232.895 97.3529 233.135 97.6527C233.435 97.8926 233.787 98.0274 234.192 98.0573L234.369 98.0638H243.109L243.283 98.0573C243.624 98.0316 243.907 97.9293 244.132 97.7493L244.24 97.6527C244.539 97.3529 244.708 97.0268 244.745 96.6746L244.754 96.5219V51.6931C244.754 51.2819 244.582 50.9389 244.24 50.6648C244 50.3648 243.681 50.1964 243.283 50.159L243.109 50.1506V49.3954C243.527 49.3955 243.914 49.4923 244.251 49.6899C244.081 49.3261 243.999 48.9275 243.999 48.5056V39.7657C243.999 39.1363 244.183 38.5491 244.631 38.1014C245.088 37.6443 245.649 37.3662 246.296 37.3662V38.1207C245.884 38.1208 245.508 38.2923 245.165 38.6349L245.068 38.7425C244.858 39.0049 244.754 39.346 244.754 39.7657V48.5056L244.76 48.6821C244.79 49.087 244.925 49.4396 245.165 49.7395L245.295 49.8355C245.602 50.0454 245.936 50.1506 246.296 50.1506H267.065L267.264 50.1441C268.164 50.0841 268.644 49.6044 268.704 48.7047L268.71 48.5056V39.7657C268.71 38.7378 268.228 38.1915 267.264 38.1272L267.065 38.1207V37.3662C267.73 37.3663 268.367 37.5327 268.833 37.9983C269.298 38.4639 269.465 39.1011 269.465 39.7657V48.5056C269.465 48.9072 269.403 49.2982 269.252 49.648C269.588 49.4812 269.958 49.3954 270.355 49.3954V50.1506L270.179 50.159C269.774 50.1964 269.421 50.3648 269.121 50.6648L269.025 50.7711C268.815 51.0259 268.71 51.3334 268.71 51.6931V96.5219Z" fill="black"/>
<path d="M97.9048 108.449V99.7088C97.9049 99.3001 97.983 98.9095 98.16 98.5631C97.8136 98.7401 97.423 98.8189 97.0144 98.8189H88.2752C87.641 98.8189 87.0589 98.6337 86.5696 98.2422L86.5039 98.1901L86.4517 98.1243C86.0782 97.6575 85.8751 97.1164 85.875 96.5219V51.6931C85.875 51.0951 86.0827 50.5556 86.5077 50.1306C86.9904 49.6481 87.593 49.3954 88.2752 49.3954V50.1506L88.0986 50.159C87.6937 50.1964 87.3412 50.3648 87.0413 50.6648C86.7671 50.9389 86.6302 51.2819 86.6302 51.6931V96.5219L86.6366 96.6746C86.6667 97.0268 86.8014 97.3529 87.0413 97.6527C87.3412 97.8926 87.6937 98.0274 88.0986 98.0573L88.2752 98.0638H97.0144C97.4342 98.0638 97.7758 97.9592 98.0382 97.7493L98.1458 97.6527C98.4456 97.3529 98.6141 97.0268 98.6516 96.6746L98.66 96.5219V75.7522C98.66 75.3325 98.7646 74.9913 98.9745 74.729L99.0711 74.6214C99.4138 74.2787 99.7907 74.1072 100.202 74.1072H120.971C121.999 74.1072 122.546 73.6253 122.61 72.6613L122.617 72.4622V63.723C122.617 62.6263 122.068 62.0773 120.971 62.0773V61.3228C121.636 61.3228 122.273 61.4892 122.739 61.9549C123.205 62.4206 123.371 63.0582 123.371 63.723V72.4622C123.371 73.1268 123.205 73.7639 122.739 74.2296C122.273 74.6953 121.636 74.8623 120.971 74.8623H100.202C100.026 74.8624 99.8329 74.9272 99.6046 75.1555C99.5042 75.2561 99.4146 75.4226 99.4145 75.7522V96.5219C99.4145 96.9095 99.3139 97.2656 99.1355 97.5876C99.4576 97.4091 99.8142 97.3093 100.202 97.3092V98.0638C99.7907 98.0638 99.4138 98.2353 99.0711 98.5779L98.9745 98.6856C98.7646 98.9479 98.66 99.289 98.66 99.7088V108.449L98.6665 108.625C98.6964 109.03 98.8312 109.383 99.0711 109.683C99.4138 109.957 99.7907 110.094 100.202 110.094H133.001C134.029 110.094 134.575 109.612 134.639 108.648L134.646 108.449V99.7088C134.646 98.6122 134.097 98.0638 133.001 98.0638V97.3092C133.666 97.3092 134.303 97.4756 134.769 97.9413C135.234 98.407 135.401 99.0442 135.401 99.7088V108.449C135.401 109.113 135.234 109.75 134.769 110.216C134.303 110.682 133.666 110.849 133.001 110.849H100.202C99.6073 110.849 99.0663 110.646 98.5994 110.272L98.5337 110.219L98.4815 110.154C98.0901 109.665 97.9049 109.083 97.9048 108.449ZM133.001 97.3092V98.0638H100.202V97.3092H133.001ZM120.971 61.3228V62.0773H100.202V61.3228H120.971ZM98.66 60.5354V51.6931C98.66 51.2819 98.4885 50.9389 98.1458 50.6648C97.8716 50.322 97.4942 50.1506 97.0144 50.1506V49.3954C97.4325 49.3954 97.8204 49.4922 98.1574 49.6899C97.9873 49.3261 97.9048 48.9275 97.9048 48.5056V39.7657C97.9049 39.1363 98.0894 38.5491 98.5369 38.1014C98.994 37.6443 99.555 37.3662 100.202 37.3662V38.1207C99.7907 38.1208 99.4138 38.2923 99.0711 38.6349L98.9745 38.7425C98.7646 39.0049 98.6601 39.346 98.66 39.7657V48.5056L98.6665 48.6821C98.6964 49.087 98.8312 49.4396 99.0711 49.7395L99.2013 49.8355C99.5086 50.0454 99.8421 50.1506 100.202 50.1506H133.001C134.098 50.1506 134.646 49.6023 134.646 48.5056V39.7657C134.646 38.6692 134.097 38.1207 133.001 38.1207V37.3662C133.666 37.3662 134.303 37.5326 134.769 37.9983C135.234 38.4639 135.401 39.1012 135.401 39.7657V48.5056C135.401 49.1702 135.234 49.8073 134.769 50.273C134.303 50.7387 133.666 50.9057 133.001 50.9057H100.202C99.824 50.9057 99.4681 50.823 99.1388 50.6673C99.3178 50.9692 99.4145 51.3137 99.4145 51.6931V60.5354C99.4146 60.7393 99.4719 60.931 99.6091 61.1256C99.8048 61.2643 99.997 61.3228 100.202 61.3228V62.0773C99.7907 62.0773 99.4138 61.9404 99.0711 61.6662C98.8312 61.3664 98.6965 61.0404 98.6665 60.6881L98.66 60.5354ZM97.0144 49.3954V50.1506H88.2752V49.3954H97.0144ZM133.001 37.3662V38.1207H100.202V37.3662H133.001Z" fill="black"/>
<path d="M61.7208 108.449V87.6796C61.7208 87.5148 61.6676 87.3827 61.4901 87.2408L61.4244 87.1879L61.3722 87.1229C61.2559 86.9775 61.1058 86.8922 60.831 86.8922H40.0613C39.4667 86.8921 38.9257 86.689 38.4588 86.3155L38.3931 86.2627L38.3409 86.1976C37.9495 85.7083 37.7642 85.1262 37.7642 84.492V75.7522C37.7642 75.3643 37.8344 74.9924 37.993 74.6594C37.6493 74.8029 37.2669 74.8623 36.8744 74.8623H28.1345C27.4698 74.8623 26.8328 74.6953 26.3671 74.2296C25.9015 73.7639 25.7344 73.1269 25.7344 72.4622V39.7657C25.7344 39.1011 25.9015 38.4639 26.3671 37.9983C26.8328 37.5327 27.4699 37.3662 28.1345 37.3662V38.1207C27.038 38.1208 26.4896 38.6692 26.4895 39.7657V72.4622C26.4895 73.5589 27.0379 74.1071 28.1345 74.1072H36.8744L37.0735 74.1007C37.9731 74.0407 38.453 73.561 38.5129 72.6613L38.5194 72.4622V39.7657C38.5193 38.7378 38.0372 38.1915 37.0735 38.1272L36.8744 38.1207V37.3662C37.539 37.3662 38.1762 37.5327 38.6418 37.9983C39.1074 38.4639 39.2739 39.1011 39.2739 39.7657V72.4622C39.2739 72.8591 39.2135 73.2457 39.0664 73.5923C39.3695 73.4379 39.7022 73.352 40.0613 73.352V74.1072C39.6501 74.1072 39.2731 74.2787 38.9305 74.6214C38.6563 74.8955 38.5194 75.2725 38.5194 75.7522V84.492L38.5258 84.6686C38.5558 85.0734 38.6906 85.426 38.9305 85.7259C39.2303 85.9657 39.5564 86.1005 39.9086 86.1306L40.0613 86.137H60.831C61.3107 86.1371 61.6877 86.3085 61.9618 86.6512C62.3045 86.9254 62.476 87.2683 62.476 87.6796V108.449L62.4824 108.648C62.5424 109.547 63.0221 110.027 63.9219 110.087L64.121 110.094H72.8602C73.8884 110.094 74.4351 109.612 74.4994 108.648L74.5058 108.449V39.7657C74.5057 38.6692 73.9568 38.1207 72.8602 38.1207V37.3662C73.5249 37.3662 74.1625 37.5326 74.6283 37.9983C75.0939 38.4639 75.2603 39.1011 75.2603 39.7657V108.449C75.2603 109.113 75.0938 109.75 74.6283 110.216C74.1625 110.682 73.5249 110.849 72.8602 110.849H64.121C63.4563 110.849 62.8193 110.682 62.3536 110.216C61.8879 109.75 61.7208 109.113 61.7208 108.449ZM60.831 73.352V74.1072H40.0613V73.352H60.831ZM61.7208 72.4622V39.7657C61.7209 39.1011 61.8879 38.4639 62.3536 37.9983C62.8192 37.5327 63.4563 37.3662 64.121 37.3662V38.1207L63.9219 38.1272C62.958 38.1914 62.4761 38.7377 62.476 39.7657V72.4622L62.4695 72.6613C62.4096 73.561 61.9297 74.0407 61.0301 74.1007L60.831 74.1072V73.352C61.2628 73.352 61.4481 73.2446 61.5307 73.1619C61.6134 73.0792 61.7208 72.894 61.7208 72.4622ZM72.8602 37.3662V38.1207H64.121V37.3662H72.8602ZM36.8744 37.3662V38.1207H28.1345V37.3662H36.8744Z" fill="black"/>
<path d="M695.806 50.2446C695.395 50.2446 695.018 50.1075 694.675 49.8333C694.401 49.4906 694.264 49.0793 694.264 48.5995V39.8599C694.264 39.3801 694.401 39.0031 694.675 38.7289C695.018 38.3862 695.395 38.2148 695.806 38.2148H716.576C717.672 38.2148 718.221 38.7632 718.221 39.8599V48.5995C718.221 49.6962 717.672 50.2446 716.576 50.2446H695.806ZM683.879 62.1715C683.4 62.1715 682.988 62.0344 682.646 61.7602C682.371 61.4175 682.234 61.0405 682.234 60.6292V51.7868C682.234 51.3756 682.371 51.0328 682.646 50.7586C682.988 50.4159 683.4 50.2446 683.879 50.2446H692.619C693.099 50.2446 693.476 50.4159 693.75 50.7586C694.093 51.0328 694.264 51.3756 694.264 51.7868V60.6292C694.264 61.0405 694.093 61.4175 693.75 61.7602C693.476 62.0344 693.099 62.1715 692.619 62.1715H683.879ZM728.605 50.2446C729.085 50.2446 729.462 50.4159 729.736 50.7586C730.079 51.0328 730.25 51.3756 730.25 51.7868V72.5561C730.25 73.6528 729.702 74.2012 728.605 74.2012H719.866C718.769 74.2012 718.221 73.6528 718.221 72.5561V51.7868C718.221 51.3756 718.358 51.0328 718.632 50.7586C718.975 50.4159 719.386 50.2446 719.866 50.2446H728.605ZM694.264 75.8463C694.264 75.3664 694.401 74.9894 694.675 74.7153C695.018 74.3725 695.395 74.2012 695.806 74.2012H716.576C717.672 74.2012 718.221 74.7495 718.221 75.8463V84.5858C718.221 85.6825 717.672 86.2309 716.576 86.2309H695.806C695.395 86.2309 695.018 86.0938 694.675 85.8196C694.401 85.4769 694.264 85.0656 694.264 84.5858V75.8463ZM695.806 110.187C695.395 110.187 695.018 110.05 694.675 109.776C694.401 109.433 694.264 109.022 694.264 108.542V99.8029C694.264 99.323 694.401 98.946 694.675 98.6719C695.018 98.3291 695.395 98.1578 695.806 98.1578H704.649C705.06 98.1578 705.403 98.3291 705.677 98.6719C706.02 98.946 706.191 99.323 706.191 99.8029V108.542C706.191 109.022 706.02 109.433 705.677 109.776C705.403 110.05 705.06 110.187 704.649 110.187H695.806Z" fill="black"/>
<path d="M693.522 108.543V99.8035C693.522 99.1739 693.707 98.5869 694.155 98.1392C694.612 97.6821 695.172 97.404 695.819 97.404V98.1585C695.408 98.1586 695.031 98.33 694.688 98.6727C694.414 98.9468 694.277 99.3238 694.277 99.8035V108.543L694.284 108.72C694.314 109.125 694.448 109.477 694.688 109.777C695.031 110.051 695.408 110.188 695.819 110.188H704.661C705.021 110.188 705.329 110.083 705.584 109.873L705.69 109.777C705.99 109.477 706.159 109.125 706.196 108.72L706.204 108.543V99.8035C706.204 99.3238 706.032 98.9468 705.69 98.6727C705.416 98.33 705.073 98.1585 704.661 98.1585V97.404C705.291 97.404 705.825 97.6698 706.227 98.1385C706.722 98.5661 706.959 99.1472 706.959 99.8035V108.543C706.959 109.226 706.706 109.828 706.224 110.311C705.799 110.736 705.259 110.944 704.661 110.944H695.819C695.225 110.943 694.683 110.74 694.217 110.367L694.151 110.314L694.099 110.249C693.707 109.76 693.522 109.178 693.522 108.543ZM704.661 97.404V98.1585H695.819V97.404H704.661ZM693.522 84.5867V75.8469C693.522 75.2173 693.707 74.6303 694.155 74.1826C694.612 73.7255 695.172 73.4468 695.819 73.4467V74.2019C695.408 74.202 695.031 74.3734 694.688 74.7161C694.414 74.9902 694.277 75.3672 694.277 75.8469V84.5867L694.284 84.7633C694.314 85.1682 694.448 85.5208 694.688 85.8207C694.988 86.0605 695.314 86.1953 695.666 86.2253L695.819 86.2317H716.589L716.788 86.2253C717.687 86.1653 718.167 85.6855 718.227 84.7858L718.234 84.5867V75.8469C718.234 74.8189 717.752 74.2726 716.788 74.2083L716.589 74.2019V73.4467C716.964 73.4468 717.33 73.5005 717.662 73.6304C717.532 73.2986 717.479 72.9321 717.479 72.5569V51.7879C717.479 51.4349 717.551 51.1025 717.698 50.802C717.357 50.9425 716.978 51.0005 716.589 51.0005H695.819C695.441 51.0004 695.086 50.9176 694.757 50.7621C694.936 51.0638 695.032 51.4085 695.032 51.7879V60.6301C695.032 61.277 694.754 61.838 694.297 62.2951C693.849 62.7427 693.262 62.9272 692.632 62.9272H683.892C683.258 62.9272 682.676 62.742 682.187 62.3505L682.122 62.2983L682.069 62.2326C681.695 61.7657 681.492 61.2247 681.492 60.6301V51.7879C681.492 51.1898 681.7 50.6504 682.125 50.2253C682.608 49.7428 683.21 49.4902 683.892 49.4901V50.2453C683.413 50.2453 683.001 50.4168 682.658 50.7595C682.384 51.0337 682.247 51.3766 682.247 51.7879V60.6301L682.254 60.7829C682.284 61.1351 682.419 61.4612 682.658 61.761C683.001 62.0351 683.413 62.172 683.892 62.1721H692.632L692.807 62.1656C693.147 62.1399 693.43 62.0376 693.655 61.8576L693.763 61.761C694.063 61.4612 694.231 61.1351 694.269 60.7829L694.277 60.6301V51.7879C694.277 51.3766 694.106 51.0337 693.763 50.7595C693.523 50.4595 693.204 50.2911 692.807 50.2537L692.632 50.2453V49.4901C693.05 49.4902 693.437 49.5866 693.774 49.784C693.604 49.4204 693.522 49.0219 693.522 48.6003V39.8605C693.522 39.2309 693.707 38.6439 694.155 38.1961C694.612 37.7391 695.172 37.461 695.819 37.4609V38.2155C695.408 38.2155 695.031 38.387 694.688 38.7296C694.414 39.0038 694.277 39.3808 694.277 39.8605V48.6003L694.284 48.7769C694.314 49.1818 694.448 49.5343 694.688 49.8342L694.818 49.9302C695.126 50.1402 695.459 50.2453 695.819 50.2453H716.589L716.788 50.2389C717.688 50.1789 718.167 49.6991 718.227 48.7994L718.234 48.6003V39.8605C718.234 38.8325 717.752 38.2862 716.788 38.2219L716.589 38.2155V37.4609C717.253 37.461 717.891 37.6274 718.356 38.093C718.822 38.5587 718.989 39.1958 718.989 39.8605V48.6003C718.989 49.0019 718.927 49.393 718.776 49.7427C719.111 49.5759 719.481 49.4901 719.879 49.4901V50.2453L719.702 50.2537C719.297 50.2911 718.945 50.4596 718.645 50.7595C718.371 51.0337 718.234 51.3766 718.234 51.7879V72.5569L718.24 72.756C718.3 73.6558 718.78 74.1355 719.68 74.1955L719.879 74.2019H728.618C729.646 74.2019 730.193 73.72 730.257 72.756L730.264 72.5569V51.7879C730.264 51.3766 730.092 51.0337 729.749 50.7595C729.475 50.4168 729.098 50.2453 728.618 50.2453V49.4901C729.274 49.4901 729.855 49.7273 730.283 50.2221C730.752 50.6232 731.018 51.1575 731.018 51.7879V72.5569C731.018 73.2215 730.852 73.8586 730.386 74.3243C729.92 74.79 729.283 74.9571 728.618 74.9571H719.879C719.503 74.9571 719.137 74.9036 718.805 74.7734C718.935 75.1053 718.989 75.4716 718.989 75.8469V84.5867C718.989 85.2514 718.822 85.8885 718.356 86.3542C717.891 86.8198 717.253 86.9869 716.589 86.9869H695.819C695.225 86.9869 694.683 86.7837 694.217 86.4102L694.151 86.3574L694.099 86.2923C693.707 85.803 693.522 85.2209 693.522 84.5867ZM716.589 73.4467V74.2019H695.819V73.4467H716.589ZM728.618 49.4901V50.2453H719.879V49.4901H728.618ZM692.632 49.4901V50.2453H683.892V49.4901H692.632ZM716.589 37.4609V38.2155H695.819V37.4609H716.589Z" fill="black"/>
<path d="M99.8919 24.1868C98.86 23.1549 98.86 21.4818 99.8919 20.4499L104.705 15.6372C105.736 14.6053 107.41 14.6053 108.441 15.6372L113.297 20.4926C114.329 21.5245 114.329 23.1976 113.297 24.2295L108.484 29.0422C107.452 30.0741 105.779 30.0741 104.747 29.0422L99.8919 24.1868Z" fill="black"/>
<path d="M112.763 23.6957L113.297 24.2292L108.484 29.0419L107.95 28.5084L112.763 23.6957ZM112.763 21.0267L107.908 16.1712C107.171 15.4341 105.976 15.4341 105.239 16.1712L100.426 20.9839C99.6888 21.7209 99.6888 22.9158 100.426 23.6529L105.281 28.5084C106.019 29.2453 107.213 29.2454 107.95 28.5084L108.484 29.0419L108.386 29.1358C107.382 30.0427 105.85 30.043 104.846 29.1362L104.747 29.0424L99.8919 24.1868C98.8922 23.1872 98.8608 21.5856 99.7981 20.5483L99.8919 20.4499L104.705 15.6372L104.803 15.5433C105.84 14.6062 107.442 14.6375 108.442 15.6372L113.297 20.4927L113.391 20.5916C114.297 21.5954 114.297 23.1271 113.391 24.1308L113.297 24.2292L112.763 23.6957C113.5 22.9587 113.5 21.7638 112.763 21.0267Z" fill="black"/>
<path d="M118.947 24.1868C117.915 23.1549 117.915 21.4818 118.947 20.4499L123.759 15.6372C124.791 14.6053 126.464 14.6053 127.496 15.6372L132.351 20.4926C133.383 21.5245 133.383 23.1976 132.351 24.2295L127.539 29.0422C126.507 30.0741 124.834 30.0741 123.802 29.0422L118.947 24.1868Z" fill="black"/>
<path d="M131.818 23.6957L132.351 24.2292L127.539 29.0419L127.005 28.5084L131.818 23.6957ZM131.818 21.0267L126.962 16.1712C126.225 15.4341 125.03 15.4341 124.293 16.1712L119.481 20.9839C118.744 21.7209 118.744 22.9158 119.481 23.6529L124.336 28.5084C125.073 29.2453 126.268 29.2454 127.005 28.5084L127.539 29.0419L127.44 29.1358C126.436 30.0427 124.904 30.043 123.901 29.1362L123.802 29.0424L118.947 24.1868C117.947 23.1872 117.916 21.5856 118.853 20.5483L118.947 20.4499L123.759 15.6372L123.858 15.5433C124.895 14.6062 126.497 14.6375 127.496 15.6372L132.352 20.4927L132.445 20.5916C133.352 21.5954 133.352 23.1271 132.445 24.1308L132.351 24.2292L131.818 23.6957C132.555 22.9587 132.555 21.7638 131.818 21.0267Z" fill="black"/>
<path d="M193.977 39.5888C193.977 38.4956 194.863 37.6094 195.956 37.6094H223.008C224.101 37.6094 224.987 38.4956 224.987 39.5888V48.8261C224.987 49.9193 224.101 50.8055 223.008 50.8055H195.956C194.863 50.8055 193.977 49.9193 193.977 48.8261V39.5888Z" fill="black"/>
<path d="M193.317 49.4854C194.411 49.4854 195.297 50.3716 195.297 51.4648L195.297 108.868C195.297 109.961 194.411 110.847 193.317 110.847L184.08 110.847C182.987 110.847 182.101 109.961 182.101 108.868L182.101 51.4648C182.101 50.3716 182.987 49.4854 184.08 49.4854L193.317 49.4854Z" fill="black"/>
</svg>
