<svg width="202" height="143" viewBox="0 0 202 143" fill="none" xmlns="http://www.w3.org/2000/svg">
<path d="M0 10.7801C0 4.82641 4.83089 0 10.7901 0H190.384C196.343 0 201.174 4.82641 201.174 10.7801V131.96C201.174 137.914 196.343 142.74 190.384 142.74H10.7901C4.8309 142.74 0 137.914 0 131.96V10.7801Z" fill="#FF7F39"/>
<path d="M89.8339 54.5453C89.4218 54.5453 89.044 54.4079 88.7006 54.1332C88.4258 53.7898 88.2885 53.3777 88.2885 52.8969V44.1396C88.2885 43.6588 88.4258 43.2811 88.7006 43.0063C89.044 42.6629 89.4218 42.4912 89.8339 42.4912H122.699C123.798 42.4912 124.348 43.0407 124.348 44.1396V52.8969C124.348 53.9958 123.798 54.5453 122.699 54.5453H89.8339ZM86.64 54.5453C87.1208 54.5453 87.4986 54.717 87.7733 55.0604C88.1168 55.3352 88.2885 55.6786 88.2885 56.0907V64.951C88.2885 65.3631 88.4258 65.7409 88.7006 66.0843C89.044 66.359 89.4218 66.4964 89.8339 66.4964H110.645C111.744 66.4964 112.294 67.0459 112.294 68.1448V76.9021C112.294 78.001 111.744 78.5505 110.645 78.5505H89.8339C89.4218 78.5505 89.044 78.7222 88.7006 79.0656C88.4258 79.3403 88.2885 79.7181 88.2885 80.1989V101.01C88.2885 101.422 88.1168 101.8 87.7733 102.144C87.4986 102.418 87.1208 102.556 86.64 102.556H77.8828C77.402 102.556 76.9899 102.418 76.6465 102.144C76.3717 101.8 76.2344 101.422 76.2344 101.01V56.0907C76.2344 55.6786 76.3717 55.3352 76.6465 55.0604C76.9899 54.717 77.402 54.5453 77.8828 54.5453H86.64ZM89.8339 114.61C89.4218 114.61 89.044 114.472 88.7006 114.198C88.4258 113.854 88.2885 113.442 88.2885 112.961V104.204C88.2885 103.723 88.4258 103.346 88.7006 103.071C89.044 102.727 89.4218 102.556 89.8339 102.556H122.699C123.798 102.556 124.348 103.105 124.348 104.204V112.961C124.348 114.06 123.798 114.61 122.699 114.61H89.8339Z" fill="black"/>
<path d="M17.625 78.5505C16.526 78.5505 15.9766 78.001 15.9766 76.9021V44.1396C15.9766 43.0407 16.526 42.4912 17.625 42.4912H26.3822C27.4812 42.4912 28.0307 43.0407 28.0307 44.1396V76.9021C28.0307 78.001 27.4812 78.5505 26.3822 78.5505H17.625ZM62.4415 42.4912C63.5405 42.4912 64.0899 43.0407 64.0899 44.1396V112.961C64.0899 114.06 63.5405 114.61 62.4415 114.61H53.6843C52.5853 114.61 52.0358 114.06 52.0358 112.961V92.15C52.0358 91.7379 51.8641 91.3944 51.5207 91.1197C51.246 90.7763 50.8682 90.6046 50.3874 90.6046H29.5761C29.164 90.6046 28.7862 90.4672 28.4428 90.1925C28.168 89.849 28.0307 89.4369 28.0307 88.9561V80.1989C28.0307 79.7181 28.168 79.3403 28.4428 79.0656C28.7862 78.7222 29.164 78.5505 29.5761 78.5505H50.3874C51.4864 78.5505 52.0358 78.001 52.0358 76.9021V44.1396C52.0358 43.0407 52.5853 42.4912 53.6843 42.4912H62.4415Z" fill="black"/>
<path d="M87.5308 112.961V104.204C87.5308 103.795 87.6085 103.404 87.7853 103.057C87.4385 103.234 87.0476 103.312 86.6388 103.312H77.8815C77.246 103.312 76.6629 103.126 76.1726 102.734L76.107 102.681L76.0545 102.616C75.6802 102.148 75.4766 101.606 75.4766 101.01V56.0903C75.4766 55.4911 75.6844 54.951 76.1103 54.5251C76.5939 54.0415 77.1978 53.7885 77.8815 53.7884V54.545C77.4007 54.545 76.9886 54.7167 76.6452 55.0601L76.5953 55.1125C76.3539 55.3781 76.2331 55.704 76.2331 56.0903V101.01L76.2347 101.087C76.2508 101.469 76.3877 101.821 76.6452 102.143C76.9672 102.401 77.3495 102.538 77.7922 102.554L77.8815 102.555H86.6388L86.7277 102.554C87.1518 102.538 87.4912 102.41 87.746 102.169L87.772 102.143C88.1047 101.811 88.2763 101.446 88.2867 101.049L88.2872 101.01V80.1986C88.2872 79.7178 88.4245 79.34 88.6993 79.0652C89.0427 78.7218 89.4205 78.5501 89.8325 78.5501H110.644C111.709 78.5501 112.258 78.0345 112.291 77.0031L112.292 76.9017V68.1445C112.292 67.0456 111.743 66.496 110.644 66.496V65.7395C111.31 65.7395 111.949 65.9066 112.415 66.3732C112.882 66.8399 113.049 67.4785 113.049 68.1445V76.9017C113.049 77.5678 112.882 78.2063 112.415 78.6729C111.949 79.1396 111.31 79.3066 110.644 79.3066H89.8325C89.6566 79.3067 89.463 79.3714 89.2342 79.6002C89.1335 79.7009 89.0437 79.868 89.0437 80.1986V101.01C89.0437 101.398 88.9438 101.755 88.7656 102.077C89.0879 101.899 89.4447 101.799 89.8325 101.799V102.555L89.794 102.556C89.3969 102.566 89.032 102.738 88.6993 103.07L88.674 103.097C88.4161 103.369 88.2872 103.738 88.2872 104.204V112.961L88.2888 113.05C88.3049 113.493 88.4417 113.875 88.6993 114.197C89.0427 114.472 89.4204 114.609 89.8325 114.609H122.698C123.763 114.609 124.312 114.094 124.345 113.062L124.346 112.961V104.204C124.346 103.139 123.831 102.59 122.799 102.557L122.698 102.555V101.799C123.364 101.799 124.003 101.966 124.469 102.433C124.936 102.899 125.103 103.538 125.103 104.204V112.961C125.103 113.627 124.936 114.266 124.469 114.732C124.003 115.199 123.364 115.366 122.698 115.366H89.8325C89.2367 115.366 88.6946 115.162 88.2267 114.788L88.1611 114.735L88.1086 114.67C87.7164 114.18 87.5308 113.597 87.5308 112.961ZM122.698 101.799V102.555H89.8325V101.799H122.698ZM110.644 65.7395V66.496H89.8325V65.7395H110.644ZM88.2872 64.9507V56.0903C88.2871 55.6783 88.1154 55.3348 87.772 55.0601C87.5059 54.7274 87.1431 54.5559 86.6836 54.5455L86.6388 54.545V53.7884C87.0572 53.7884 87.4453 53.8845 87.7828 54.0821C87.6127 53.718 87.5308 53.3189 87.5308 52.8966V44.1393C87.5308 43.5084 87.7156 42.9198 88.1643 42.4711C88.6224 42.0131 89.1843 41.7344 89.8325 41.7344V42.4909L89.794 42.4914C89.3969 42.5018 89.032 42.6734 88.6993 43.006L88.674 43.0321C88.4161 43.3045 88.2872 43.6735 88.2872 44.1393V52.8966L88.2888 52.9859C88.3049 53.4286 88.4417 53.8109 88.6993 54.1329C89.0427 54.4076 89.4204 54.545 89.8325 54.545H122.698C123.763 54.545 124.312 54.0293 124.345 52.998L124.346 52.8966V44.1393C124.346 43.0747 123.831 42.5258 122.799 42.4925L122.698 42.4909V41.7344C123.364 41.7344 124.003 41.9014 124.469 42.3681C124.936 42.8347 125.103 43.4732 125.103 44.1393V52.8966C125.103 53.5627 124.936 54.2012 124.469 54.6678C124.003 55.1344 123.364 55.3015 122.698 55.3015H89.8325C89.4544 55.3015 89.0981 55.2194 88.7685 55.0638C88.9473 55.3659 89.0437 55.7108 89.0437 56.0903V64.9507C89.0437 65.1555 89.101 65.3482 89.2392 65.5437C89.4349 65.6821 89.6276 65.7395 89.8325 65.7395V66.496C89.4204 66.496 89.0427 66.3586 88.6993 66.0839C88.4417 65.762 88.3049 65.4098 88.2888 65.0275L88.2872 64.9507ZM86.6388 53.7884V54.545H77.8815V53.7884H86.6388ZM122.698 41.7344V42.4909H89.8325V41.7344H122.698Z" fill="black"/>
<path d="M51.2703 112.961V92.1497C51.2703 91.9846 51.2169 91.8524 51.0391 91.7101L50.9734 91.6576L50.9209 91.592C50.8043 91.4463 50.6538 91.3607 50.3783 91.3607H29.5669C28.9711 91.3607 28.4289 91.1572 27.9611 90.7829L27.8955 90.7304L27.843 90.6648C27.4507 90.1745 27.2651 89.5913 27.2651 88.9558V80.1986C27.2651 79.8104 27.3352 79.4383 27.4936 79.1049C27.1494 79.2484 26.7661 79.3066 26.3732 79.3066H17.6158C16.9498 79.3066 16.3113 79.1396 15.8446 78.6729C15.378 78.2063 15.2109 77.5678 15.2109 76.9017V44.1393C15.2109 43.4732 15.378 42.8347 15.8446 42.3681C16.3113 41.9015 16.9498 41.7344 17.6158 41.7344V42.4909L17.5145 42.4925C16.4831 42.5258 15.9675 43.0747 15.9675 44.1393V76.9017L15.9691 77.0031C16.0024 78.0345 16.5513 78.5501 17.6158 78.5501H26.3732L26.4745 78.5486C27.4726 78.5164 27.9877 78.0012 28.0199 77.0031L28.0215 76.9017V44.1393C28.0215 43.0747 27.5059 42.5258 26.4745 42.4925L26.3732 42.4909V41.7344C27.0392 41.7344 27.6777 41.9014 28.1444 42.3681C28.611 42.8347 28.7781 43.4732 28.7781 44.1393V76.9017C28.7781 77.2991 28.7186 77.6865 28.5716 78.0336C28.8748 77.8793 29.2076 77.7937 29.5669 77.7937V78.5501C29.1548 78.5501 28.7771 78.7218 28.4337 79.0652C28.1589 79.34 28.0215 79.7178 28.0215 80.1986V88.9558C28.0215 89.4366 28.1589 89.8487 28.4337 90.1922C28.7556 90.4497 29.1078 90.5866 29.4901 90.6027L29.5669 90.6043H50.3783C50.8591 90.6043 51.2369 90.776 51.5117 91.1194C51.8551 91.3941 52.0268 91.7376 52.0268 92.1497V112.961L52.0283 113.062C52.0616 114.094 52.6106 114.609 53.6752 114.609H62.4324C63.497 114.609 64.046 114.094 64.0792 113.062L64.0809 112.961V44.1393C64.0808 43.0747 63.5652 42.5258 62.5339 42.4925L62.4324 42.4909V41.7344C63.0984 41.7344 63.737 41.9014 64.2037 42.3681C64.6703 42.8347 64.8374 43.4732 64.8374 44.1393V112.961C64.8374 113.627 64.6703 114.266 64.2037 114.732C63.737 115.199 63.0984 115.366 62.4324 115.366H53.6752C53.0091 115.366 52.3706 115.199 51.904 114.732C51.4373 114.266 51.2703 113.627 51.2703 112.961ZM50.3783 77.7937V78.5501H29.5669V77.7937H50.3783ZM51.2703 76.9017V44.1393C51.2703 43.4732 51.4373 42.8347 51.904 42.3681C52.3706 41.9015 53.0091 41.7344 53.6752 41.7344V42.4909L53.5738 42.4925C52.5424 42.5258 52.0268 43.0747 52.0268 44.1393V76.9017L52.0252 77.0031C51.9919 78.0345 51.4429 78.5501 50.3783 78.5501V77.7937C50.8111 77.7937 50.9969 77.686 51.0797 77.6032C51.1625 77.5203 51.2703 77.3346 51.2703 76.9017ZM62.4324 41.7344V42.4909H53.6752V41.7344H62.4324ZM26.3732 41.7344V42.4909H17.6158V41.7344H26.3732Z" fill="black"/>
<path d="M147.437 54.4551C147.025 54.4551 146.646 54.3174 146.302 54.0421C146.027 53.698 145.89 53.2851 145.89 52.8033V44.0287C145.89 43.5469 146.027 43.1684 146.302 42.8931C146.646 42.549 147.025 42.377 147.437 42.377H168.275C169.375 42.377 169.926 42.9275 169.926 44.0287V52.8033C169.926 53.9045 169.375 54.4551 168.275 54.4551H147.437ZM135.471 66.4299C134.989 66.4299 134.577 66.2923 134.233 66.017C133.958 65.6729 133.82 65.2944 133.82 64.8814V56.0035C133.82 55.5906 133.958 55.2465 134.233 54.9712C134.577 54.6271 134.989 54.4551 135.471 54.4551H144.239C144.721 54.4551 145.099 54.6271 145.374 54.9712C145.718 55.2465 145.89 55.5906 145.89 56.0035V64.8814C145.89 65.2944 145.718 65.6729 145.374 66.017C145.099 66.2923 144.721 66.4299 144.239 66.4299H135.471ZM180.345 54.4551C180.826 54.4551 181.204 54.6271 181.479 54.9712C181.823 55.2465 181.995 55.5906 181.995 56.0035V76.8563C181.995 77.9574 181.445 78.508 180.345 78.508H171.576C170.476 78.508 169.926 77.9574 169.926 76.8563V56.0035C169.926 55.5906 170.063 55.2465 170.338 54.9712C170.682 54.6271 171.095 54.4551 171.576 54.4551H180.345ZM145.89 80.1597C145.89 79.678 146.027 79.2995 146.302 79.0242C146.646 78.6801 147.025 78.508 147.437 78.508H168.275C169.375 78.508 169.926 79.0586 169.926 80.1597V88.9344C169.926 90.0355 169.375 90.5861 168.275 90.5861H147.437C147.025 90.5861 146.646 90.4485 146.302 90.1732C146.027 89.8291 145.89 89.4162 145.89 88.9344V80.1597ZM147.437 114.639C147.025 114.639 146.646 114.501 146.302 114.226C146.027 113.882 145.89 113.469 145.89 112.987V104.213C145.89 103.731 146.027 103.352 146.302 103.077C146.646 102.733 147.025 102.561 147.437 102.561H156.309C156.721 102.561 157.065 102.733 157.34 103.077C157.684 103.352 157.856 103.731 157.856 104.213V112.987C157.856 113.469 157.684 113.882 157.34 114.226C157.065 114.501 156.721 114.639 156.309 114.639H147.437Z" fill="black"/>
<path d="M145.065 113.128V104.374C145.065 103.744 145.251 103.155 145.702 102.707C146.164 102.249 146.729 101.971 147.382 101.971V102.727L147.343 102.727C146.943 102.738 146.576 102.909 146.241 103.242L146.216 103.268C145.956 103.54 145.826 103.909 145.826 104.374V113.128L145.828 113.217C145.844 113.66 145.982 114.042 146.241 114.364C146.587 114.638 146.967 114.776 147.382 114.776H156.302C156.716 114.776 157.062 114.638 157.339 114.364C157.674 114.031 157.846 113.634 157.857 113.173L157.857 113.128V104.374C157.857 103.894 157.684 103.516 157.339 103.242C157.071 102.909 156.738 102.738 156.34 102.727L156.302 102.727V101.971C156.937 101.971 157.476 102.236 157.88 102.706C158.38 103.134 158.619 103.717 158.619 104.374V113.128C158.619 113.811 158.364 114.415 157.877 114.899C157.449 115.324 156.905 115.532 156.302 115.532H147.382C146.782 115.532 146.236 115.328 145.765 114.954L145.699 114.902L145.646 114.836C145.252 114.346 145.065 113.763 145.065 113.128ZM156.302 101.971V102.727H147.382V101.971H156.302ZM145.065 89.133V80.3795C145.065 79.7489 145.251 79.1606 145.702 78.712C146.164 78.2542 146.729 77.9757 147.382 77.9756V78.7317C146.967 78.7318 146.587 78.9034 146.241 79.2466C145.964 79.5213 145.826 79.8989 145.826 80.3795V89.133C145.826 89.6136 145.964 90.0256 146.241 90.3689C146.565 90.6263 146.92 90.7631 147.305 90.7792L147.382 90.7808H168.333L168.435 90.7792C169.44 90.747 169.958 90.2321 169.991 89.2345L169.992 89.133V80.3795C169.992 79.281 169.439 78.7317 168.333 78.7317V77.9756C168.711 77.9756 169.081 78.0287 169.415 78.1589C169.284 77.8266 169.231 77.4598 169.231 77.0841V56.2815C169.231 55.9285 169.303 55.596 169.451 55.2953C169.107 55.4358 168.725 55.493 168.333 55.493H147.382C147.001 55.493 146.642 55.4109 146.311 55.2554C146.491 55.5574 146.588 55.9021 146.588 56.2815V65.1381C146.588 65.7861 146.307 66.3477 145.846 66.8056C145.394 67.2541 144.802 67.439 144.167 67.439H135.351C134.711 67.439 134.124 67.2535 133.63 66.8614L133.564 66.8089L133.512 66.7432C133.135 66.2756 132.93 65.7337 132.93 65.1381V56.2815C132.93 55.6826 133.139 55.1427 133.568 54.717C134.055 54.2335 134.662 53.9806 135.351 53.9806V54.7368C134.867 54.7368 134.452 54.9085 134.106 55.2517L134.056 55.3041C133.813 55.5695 133.691 55.8953 133.691 56.2815V65.1381L133.693 65.2149C133.709 65.597 133.847 65.949 134.106 66.2708C134.452 66.5455 134.867 66.6828 135.351 66.6828H144.167L144.256 66.6812C144.698 66.6651 145.048 66.5283 145.308 66.2708C145.642 65.9383 145.815 65.5736 145.826 65.1766L145.826 65.1381V56.2815C145.826 55.8696 145.653 55.5263 145.308 55.2517C145.04 54.9192 144.674 54.7477 144.212 54.7373L144.167 54.7368V53.9806C144.588 53.9806 144.979 54.0766 145.318 54.2741C145.147 53.9101 145.065 53.5112 145.065 53.0891V44.3355C145.065 43.7049 145.251 43.1165 145.702 42.668C146.164 42.2102 146.729 41.9317 147.382 41.9316V42.6879L147.343 42.6884C146.943 42.6988 146.576 42.8702 146.241 43.2028L146.216 43.2288C145.956 43.5011 145.826 43.87 145.826 44.3355V53.0891L145.828 53.1784C145.844 53.6209 145.982 54.003 146.241 54.3249C146.587 54.5995 146.967 54.7368 147.382 54.7368H168.333C169.404 54.7368 169.957 54.2214 169.991 53.1905L169.992 53.0891V44.3355C169.992 43.2714 169.473 42.7227 168.435 42.6895L168.333 42.6879V41.9316C169.003 41.9316 169.646 42.0986 170.116 42.5651C170.586 43.0315 170.754 43.6698 170.754 44.3355V53.0891C170.754 53.4911 170.692 53.8829 170.54 54.233C170.878 54.0663 171.251 53.9806 171.652 53.9806V54.7368C171.168 54.7368 170.753 54.9084 170.407 55.2517C170.13 55.5263 169.992 55.8696 169.992 56.2815V77.0841L169.994 77.1854C170.027 78.2163 170.58 78.7317 171.652 78.7317H180.468C181.539 78.7317 182.092 78.2163 182.125 77.1854L182.127 77.0841V56.2815C182.127 55.8696 181.954 55.5263 181.609 55.2517C181.332 54.9084 180.952 54.7368 180.468 54.7368V53.9806C181.13 53.9806 181.717 54.2179 182.149 54.7146C182.621 55.1162 182.889 55.651 182.889 56.2815V77.0841C182.889 77.7499 182.72 78.3881 182.251 78.8545C181.781 79.321 181.138 79.4879 180.468 79.4879H171.652C171.273 79.4879 170.904 79.4346 170.569 79.3045C170.7 79.6368 170.754 80.0038 170.754 80.3795V89.133C170.754 89.7988 170.586 90.4371 170.116 90.9036C169.646 91.37 169.003 91.5369 168.333 91.5369H147.382C146.782 91.5369 146.236 91.3334 145.765 90.9593L145.699 90.9068L145.646 90.8413C145.251 90.3512 145.065 89.7682 145.065 89.133ZM168.333 77.9756V78.7317H147.382V77.9756H168.333ZM180.468 53.9806V54.7368H171.652V53.9806H180.468ZM144.167 53.9806V54.7368H135.351V53.9806H144.167ZM168.333 41.9316V42.6879H147.382V41.9316H168.333Z" fill="black"/>
<path d="M89.5129 28.8664C88.4789 27.8324 88.4789 26.1559 89.5129 25.1219L94.3353 20.2995C95.3693 19.2655 97.0457 19.2655 98.0798 20.2995L102.945 25.1647C103.979 26.1987 103.979 27.8751 102.945 28.9091L98.1225 33.7316C97.0885 34.7656 95.4121 34.7656 94.378 33.7316L89.5129 28.8664Z" fill="black"/>
<path d="M102.41 28.3742L102.945 28.9091L98.1225 33.7316L97.5875 33.1966L102.41 28.3742ZM102.41 25.6997L97.5448 20.8344C96.8062 20.0959 95.6088 20.0959 94.8703 20.8344L90.0478 25.6569C89.3092 26.3955 89.3092 27.5928 90.0478 28.3314L94.913 33.1966C95.6516 33.9352 96.849 33.9352 97.5875 33.1966L98.1225 33.7316C97.1046 34.7494 95.4643 34.7653 94.427 33.7793L94.3781 33.7316L89.5128 28.8663C88.4789 27.8323 88.4789 26.1559 89.5128 25.1219L94.3353 20.2994L94.3843 20.2517C95.4215 19.2657 97.0619 19.2816 98.0797 20.2994L102.945 25.1647L102.993 25.2136C103.963 26.2345 103.963 27.8393 102.993 28.8602L102.945 28.9091L102.41 28.3742C103.149 27.6356 103.149 26.4382 102.41 25.6997Z" fill="black"/>
<path d="M108.63 28.8654C107.596 27.8314 107.596 26.1549 108.63 25.1209L113.452 20.2985C114.486 19.2645 116.163 19.2645 117.197 20.2985L122.062 25.1637C123.096 26.1977 123.096 27.8742 122.062 28.9082L117.24 33.7306C116.206 34.7646 114.529 34.7646 113.495 33.7306L108.63 28.8654Z" fill="black"/>
<path d="M121.527 28.3732L122.062 28.9081L117.24 33.7306L116.705 33.1957L121.527 28.3732ZM121.527 25.6987L116.662 20.8334C115.923 20.0949 114.726 20.0949 113.987 20.8334L109.165 25.6559C108.426 26.3945 108.426 27.5918 109.165 28.3304L114.03 33.1957C114.769 33.9342 115.966 33.9342 116.705 33.1957L117.24 33.7306C116.222 34.7484 114.582 34.7643 113.544 33.7783L113.495 33.7306L108.63 28.8654C107.596 27.8314 107.596 26.155 108.63 25.121L113.453 20.2985L113.501 20.2508C114.539 19.2648 116.179 19.2807 117.197 20.2985L122.062 25.1637L122.11 25.2127C123.08 26.2335 123.08 27.8384 122.11 28.8592L122.062 28.9081L121.527 28.3732C122.266 27.6346 122.266 26.4372 121.527 25.6987Z" fill="black"/>
</svg>
