<svg width="550" height="313" viewBox="0 0 550 313" fill="none" xmlns="http://www.w3.org/2000/svg">
<path d="M1.29602 25.776H3.41678L8.38485 37.9114H8.56158L13.5297 25.776H15.7191V40.4053H13.9813V29.2909H13.8438L9.23904 40.4053H7.64847L3.10259 29.2909H2.96513V40.4053H1.29602V25.776ZM22.7 40.6409C21.6461 40.6409 20.733 40.4053 19.9607 39.934C19.1948 39.4627 18.6057 38.8049 18.1934 37.9605C17.781 37.1096 17.5748 36.1245 17.5748 35.0052C17.5748 33.8794 17.7777 32.8877 18.1835 32.0302C18.5894 31.1728 19.1588 30.5019 19.8919 30.0175C20.6316 29.5331 21.4956 29.2909 22.484 29.2909C23.0534 29.2909 23.6196 29.3858 24.1825 29.5757C24.7454 29.7655 25.256 30.0731 25.7142 30.4986C26.1789 30.924 26.5487 31.487 26.8237 32.1873C27.0986 32.8877 27.236 33.7484 27.236 34.7696V35.4961H18.7726V34.043H26.3229L25.5473 34.5928C25.5473 33.8597 25.4327 33.2084 25.2036 32.639C24.9745 32.0695 24.6309 31.6211 24.1727 31.2939C23.7211 30.9666 23.1582 30.803 22.484 30.803C21.8098 30.803 21.2305 30.9699 20.7461 31.3037C20.2683 31.631 19.9017 32.0597 19.6465 32.5899C19.3912 33.1201 19.2636 33.6895 19.2636 34.2983V35.2605C19.2636 36.0918 19.4076 36.7954 19.6956 37.3714C19.9836 37.9474 20.3861 38.386 20.9032 38.6871C21.4203 38.9816 22.0192 39.1289 22.7 39.1289C23.1385 39.1289 23.5378 39.0667 23.8978 38.9423C24.2578 38.8114 24.5687 38.6183 24.8305 38.3631C25.0924 38.1012 25.292 37.7805 25.4295 37.4009L27.0593 37.8721C26.8891 38.422 26.6011 38.9063 26.1953 39.3253C25.796 39.7376 25.2985 40.0616 24.7029 40.2973C24.1073 40.5264 23.4396 40.6409 22.7 40.6409ZM34.8158 38.1274L38.6449 29.4284H40.2355L35.5031 40.4053H34.1285L29.4746 29.4284H31.0455L34.8158 38.1274ZM30.4957 29.4284V40.4053H28.8266V29.4284H30.4957ZM39.1358 40.4053V29.4284H40.805V40.4053H39.1358ZM50.2895 34.1412V35.7121H44.2414V34.1412H50.2895ZM44.6341 29.4284V40.4053H42.965V29.4284H44.6341ZM51.5855 29.4284V40.4053H49.8967V29.4284H51.5855ZM55.1986 33.4146H58.3405C59.6234 33.4081 60.6052 33.7321 61.286 34.3866C61.9667 35.0412 62.3071 35.8692 62.3071 36.8707C62.3071 37.5252 62.1533 38.1209 61.8456 38.6576C61.5445 39.1878 61.0994 39.6133 60.5103 39.934C59.9212 40.2482 59.1979 40.4053 58.3405 40.4053H53.7455V29.4284H55.4146V38.8343H58.3405C59.0016 38.8343 59.5449 38.6609 59.9703 38.314C60.4023 37.9605 60.6183 37.5056 60.6183 36.9492C60.6183 36.3667 60.4023 35.8921 59.9703 35.5256C59.5449 35.159 59.0016 34.979 58.3405 34.9856H55.1986V33.4146ZM64.0547 40.4053V29.4284H65.7239V40.4053H64.0547ZM69.553 37.9114L74.8353 29.4284H76.7793V40.4053H75.1102V31.9222L69.8476 40.4053H67.8839V29.4284H69.553V37.9114ZM72.3218 28.1226C71.4447 28.1226 70.7312 27.8771 70.1814 27.3862C69.6381 26.8887 69.3665 26.244 69.3665 25.452H70.9374C70.9374 25.8774 71.065 26.2243 71.3203 26.4927C71.5756 26.7611 71.9094 26.8953 72.3218 26.8953C72.7341 26.8953 73.068 26.7611 73.3232 26.4927C73.5785 26.2243 73.7062 25.8774 73.7062 25.452H75.2771C75.2771 26.244 75.0022 26.8887 74.4524 27.3862C73.9091 27.8771 73.1989 28.1226 72.3218 28.1226Z" fill="#F4F5F8"/>
<path d="M0.502698 132.26V127.897H1.40755C1.55501 127.629 1.70917 127.267 1.87004 126.811C2.0309 126.355 2.17166 125.839 2.2923 125.263C2.41295 124.686 2.47998 124.083 2.49338 123.453L2.63414 114.767H10.1545V127.897H11.5621V132.26H9.95342V129.445H2.11133V132.26H0.502698ZM3.2977 127.897H8.34479V116.375H4.36342L4.26288 123.453C4.24948 124.485 4.13553 125.397 3.92105 126.188C3.70656 126.979 3.49878 127.548 3.2977 127.897ZM18.0893 129.646C17.2179 129.646 16.4538 129.472 15.797 129.124C15.1535 128.775 14.6508 128.286 14.2889 127.656C13.9403 127.012 13.7661 126.268 13.7661 125.424V122.408C13.7661 121.55 13.9403 120.806 14.2889 120.176C14.6508 119.546 15.1535 119.056 15.797 118.708C16.4538 118.359 17.2179 118.185 18.0893 118.185C18.9606 118.185 19.718 118.359 20.3615 118.708C21.0183 119.056 21.521 119.546 21.8696 120.176C22.2315 120.806 22.4125 121.55 22.4125 122.408V124.358H15.5356V125.424C15.5356 126.295 15.7568 126.965 16.1991 127.435C16.6415 127.89 17.2716 128.118 18.0893 128.118C18.7864 128.118 19.3494 127.998 19.7783 127.756C20.2073 127.502 20.4687 127.126 20.5626 126.63H22.3723C22.2516 127.555 21.7958 128.292 21.0049 128.842C20.2274 129.378 19.2555 129.646 18.0893 129.646ZM20.643 123.152V122.408C20.643 121.536 20.4218 120.866 19.9794 120.397C19.5505 119.928 18.9204 119.693 18.0893 119.693C17.2716 119.693 16.6415 119.928 16.1991 120.397C15.7568 120.866 15.5356 121.536 15.5356 122.408V122.991H20.7837L20.643 123.152ZM25.9637 133.065V118.386H27.7734V120.497H28.1354L27.7734 120.92C27.7734 120.075 28.0483 119.411 28.5979 118.929C29.1609 118.433 29.8982 118.185 30.8097 118.185C31.9224 118.185 32.8071 118.554 33.464 119.291C34.1343 120.015 34.4694 121.013 34.4694 122.287V125.524C34.4694 126.369 34.3152 127.099 34.0069 127.716C33.712 128.333 33.2897 128.809 32.7401 129.144C32.2039 129.479 31.5604 129.646 30.8097 129.646C29.9116 129.646 29.181 129.398 28.618 128.902C28.055 128.406 27.7734 127.743 27.7734 126.912L28.1354 127.334H27.7332L27.7734 129.847V133.065H25.9637ZM30.2065 128.078C30.9706 128.078 31.5671 127.85 31.9961 127.394C32.4385 126.939 32.6597 126.282 32.6597 125.424V122.408C32.6597 121.55 32.4385 120.893 31.9961 120.437C31.5671 119.981 30.9706 119.753 30.2065 119.753C29.4692 119.753 28.8794 119.988 28.437 120.457C27.9946 120.926 27.7734 121.576 27.7734 122.408V125.424C27.7734 126.255 27.9946 126.905 28.437 127.374C28.8794 127.843 29.4692 128.078 30.2065 128.078ZM41.6803 129.586C40.514 129.586 39.5555 129.338 38.8048 128.842C38.0676 128.346 37.6252 127.676 37.4777 126.831H39.388C39.4818 127.166 39.7298 127.441 40.132 127.656C40.5475 127.87 41.0636 127.977 41.6803 127.977H42.6254C43.2822 127.977 43.7916 127.823 44.1536 127.515C44.5289 127.207 44.7166 126.804 44.7166 126.308C44.7166 125.772 44.5356 125.35 44.1737 125.042C43.8251 124.733 43.309 124.579 42.6254 124.579H40.1923V123.011H42.565C43.1817 123.011 43.6509 122.863 43.9726 122.568C44.2943 122.273 44.4552 121.885 44.4552 121.402C44.4552 121.067 44.3814 120.785 44.234 120.558C44.0999 120.33 43.8922 120.155 43.6106 120.035C43.3291 119.914 42.9873 119.854 42.5851 119.854H41.5797C41.0435 119.854 40.581 119.974 40.1923 120.216C39.8035 120.457 39.5689 120.752 39.4885 121.101H37.5783C37.7123 120.269 38.148 119.586 38.8853 119.05C39.6226 118.513 40.5207 118.245 41.5797 118.245H42.5851C43.376 118.245 44.053 118.373 44.616 118.627C45.1791 118.869 45.608 119.217 45.9029 119.673C46.2113 120.129 46.3654 120.672 46.3654 121.302C46.3654 121.958 46.1509 122.501 45.722 122.93C45.293 123.346 44.6898 123.581 43.9123 123.634V123.715C44.864 123.782 45.5544 124.036 45.9834 124.479C46.4123 124.921 46.6268 125.558 46.6268 126.389C46.6268 127.367 46.2649 128.145 45.541 128.721C44.8171 129.298 43.8452 129.586 42.6254 129.586H41.6803ZM50.1781 129.445V118.386H51.9878V122.95H53.8779L57.0952 118.386H59.1663L55.4464 123.654L59.2266 129.445H57.1153L53.898 124.519H51.9878V129.445H50.1781ZM62.1747 129.445V118.386H63.9039V124.418C63.9039 124.807 63.8905 125.216 63.8637 125.645C63.8503 126.074 63.8235 126.483 63.7833 126.871C63.7565 127.247 63.723 127.569 63.6827 127.837L68.1467 118.386H70.4591V129.445H68.7298V123.413C68.7298 123.024 68.7365 122.615 68.7499 122.186C68.7768 121.757 68.8103 121.349 68.8505 120.96C68.8907 120.558 68.9242 120.229 68.951 119.974L64.4871 129.445H62.1747ZM74.2316 129.445V118.386H75.9608V124.418C75.9608 124.807 75.9474 125.216 75.9206 125.645C75.9072 126.074 75.8804 126.483 75.8402 126.871C75.8134 127.247 75.7799 127.569 75.7397 127.837L80.2036 118.386H82.516V129.445H80.7867V123.413C80.7867 123.024 80.7934 122.615 80.8069 122.186C80.8337 121.757 80.8672 121.349 80.9074 120.96C80.9476 120.558 80.9811 120.229 81.0079 119.974L76.544 129.445H74.2316ZM78.4542 116.576C77.489 116.576 76.7115 116.308 76.1217 115.772C75.5319 115.236 75.237 114.532 75.237 113.661H76.6646C76.6646 114.183 76.8255 114.606 77.1472 114.927C77.4689 115.249 77.8979 115.41 78.4341 115.41C78.9837 115.41 79.4194 115.249 79.7411 114.927C80.0763 114.606 80.2438 114.183 80.2438 113.661H81.6715C81.6715 114.532 81.3766 115.236 80.7867 115.772C80.1969 116.308 79.4194 116.576 78.4542 116.576Z" fill="#F4F5F8"/>
<path d="M1.89015 219.127V204.448H10.1746V219.127H8.3649V206.097H3.69986V219.127H1.89015ZM17.1241 219.328C15.9578 219.328 15.0396 219.033 14.3693 218.443C13.699 217.84 13.3639 217.029 13.3639 216.01C13.3639 214.978 13.699 214.167 14.3693 213.577C15.0396 212.987 15.9444 212.692 17.0839 212.692H20.5022V211.586C20.5022 210.903 20.2944 210.38 19.8789 210.018C19.4767 209.643 18.9003 209.455 18.1496 209.455C17.4927 209.455 16.9431 209.596 16.5008 209.877C16.0584 210.145 15.8037 210.514 15.7367 210.983H13.9269C14.0476 210.031 14.4967 209.274 15.2742 208.711C16.0517 208.148 17.0236 207.867 18.1898 207.867C19.4633 207.867 20.4687 208.195 21.206 208.852C21.9433 209.509 22.3119 210.4 22.3119 211.526V219.127H20.5424V217.016H20.2408L20.5424 216.714C20.5424 217.518 20.2274 218.155 19.5974 218.624C18.9807 219.093 18.1563 219.328 17.1241 219.328ZM17.5665 217.9C18.4244 217.9 19.1282 217.686 19.6778 217.257C20.2274 216.828 20.5022 216.278 20.5022 215.608V214.04H17.1241C16.5209 214.04 16.045 214.207 15.6964 214.542C15.3479 214.877 15.1736 215.333 15.1736 215.91C15.1736 216.526 15.3814 217.016 15.797 217.378C16.2259 217.726 16.8158 217.9 17.5665 217.9ZM24.4757 219.127L26.8887 213.457L24.6366 208.068H26.386L28.3164 212.893H29.3821V208.068H30.9103V212.893H31.9358L33.9265 208.068H35.6558L33.4037 213.396L35.8166 219.127H34.0069L31.9961 214.1H30.9103V219.127H29.3821V214.1H28.2963L26.2654 219.127H24.4757ZM38.0609 219.127V208.068H39.7901V214.1C39.7901 214.489 39.7767 214.898 39.7499 215.327C39.7365 215.756 39.7097 216.164 39.6695 216.553C39.6427 216.928 39.6092 217.25 39.5689 217.518L44.0329 208.068H46.3453V219.127H44.616V213.095C44.616 212.706 44.6227 212.297 44.6361 211.868C44.663 211.439 44.6965 211.03 44.7367 210.641C44.7769 210.239 44.8104 209.911 44.8372 209.656L40.3733 219.127H38.0609ZM48.7303 219.268V217.579H49.0922C49.7089 217.579 50.1379 217.337 50.3792 216.855C50.6339 216.372 50.7679 215.508 50.7813 214.261L50.902 208.068H58.4022V219.127H56.5925V209.716H52.6916L52.591 214.341C52.5642 215.508 52.4302 216.453 52.1889 217.176C51.961 217.9 51.599 218.43 51.103 218.765C50.6205 219.1 49.9837 219.268 49.1928 219.268H48.7303ZM61.5915 219.127V208.068H63.2806V212.129H64.1854C65.3785 212.129 66.3169 212.444 67.0006 213.074C67.6976 213.691 68.0462 214.542 68.0462 215.628C68.0462 216.714 67.6976 217.572 67.0006 218.202C66.3169 218.819 65.3785 219.127 64.1854 219.127H61.5915ZM63.2806 217.679H64.1854C64.8959 217.679 65.4455 217.498 65.8343 217.136C66.2365 216.774 66.4375 216.272 66.4375 215.628C66.4375 214.985 66.2365 214.482 65.8343 214.12C65.4455 213.758 64.8959 213.577 64.1854 213.577H63.2806V217.679ZM69.3532 219.127V208.068H71.0422V219.127H69.3532ZM78.3738 219.328C77.5025 219.328 76.7383 219.154 76.0815 218.805C75.438 218.457 74.9353 217.967 74.5734 217.337C74.2249 216.694 74.0506 215.95 74.0506 215.105V212.089C74.0506 211.231 74.2249 210.487 74.5734 209.857C74.9353 209.227 75.438 208.738 76.0815 208.389C76.7383 208.041 77.5025 207.867 78.3738 207.867C79.2451 207.867 80.0025 208.041 80.646 208.389C81.3028 208.738 81.8055 209.227 82.1541 209.857C82.516 210.487 82.697 211.231 82.697 212.089V214.04H75.8201V215.105C75.8201 215.977 76.0413 216.647 76.4836 217.116C76.926 217.572 77.5561 217.8 78.3738 217.8C79.0709 217.8 79.6339 217.679 80.0629 217.438C80.4918 217.183 80.7532 216.808 80.8471 216.312H82.6568C82.5361 217.237 82.0804 217.974 81.2894 218.524C80.5119 219.06 79.5401 219.328 78.3738 219.328ZM80.9275 212.833V212.089C80.9275 211.218 80.7063 210.548 80.2639 210.078C79.835 209.609 79.2049 209.375 78.3738 209.375C77.5561 209.375 76.926 209.609 76.4836 210.078C76.0413 210.548 75.8201 211.218 75.8201 212.089V212.672H81.0683L80.9275 212.833Z" fill="#F4F5F8"/>
<path d="M1.0054 308.696L4.8259 294.018H7.25896L11.0594 308.696H9.22954L8.26436 304.795H3.82051L2.85533 308.696H1.0054ZM4.18245 303.267H7.88231L6.75626 298.743C6.54178 297.885 6.37421 297.168 6.25357 296.591C6.13292 296.015 6.05919 295.64 6.03238 295.465C6.00557 295.64 5.93184 296.015 5.81119 296.591C5.69054 297.168 5.52298 297.878 5.30849 298.723L4.18245 303.267ZM14.0074 308.696V297.637H15.8171V302.201H17.7072L20.9245 297.637H22.9956L19.2756 302.905L23.0559 308.696H20.9446L17.7273 303.77H15.8171V308.696H14.0074ZM29.181 308.897C28.0147 308.897 27.0965 308.602 26.4262 308.013C25.756 307.409 25.4208 306.598 25.4208 305.58C25.4208 304.547 25.756 303.736 26.4262 303.147C27.0965 302.557 28.0013 302.262 29.1408 302.262H32.5591V301.156C32.5591 300.472 32.3514 299.949 31.9358 299.587C31.5336 299.212 30.9572 299.024 30.2065 299.024C29.5496 299.024 29 299.165 28.5577 299.447C28.1153 299.715 27.8606 300.083 27.7936 300.553H25.9838C26.1045 299.601 26.5536 298.843 27.3311 298.28C28.1086 297.717 29.0805 297.436 30.2467 297.436C31.5202 297.436 32.5256 297.764 33.2629 298.421C34.0002 299.078 34.3688 299.969 34.3688 301.095V308.696H32.5993V306.585H32.2977L32.5993 306.283C32.5993 307.088 32.2843 307.724 31.6543 308.194C31.0376 308.663 30.2132 308.897 29.181 308.897ZM29.6234 307.47C30.4813 307.47 31.1851 307.255 31.7347 306.826C32.2843 306.397 32.5591 305.848 32.5591 305.177V303.609H29.181C28.5778 303.609 28.1019 303.777 27.7533 304.112C27.4048 304.447 27.2305 304.903 27.2305 305.479C27.2305 306.096 27.4383 306.585 27.8539 306.947C28.2828 307.295 28.8727 307.47 29.6234 307.47ZM36.7739 311.511V307.148H37.6788C37.9067 306.92 38.1413 306.471 38.3826 305.801C38.6373 305.13 38.7713 304.279 38.7847 303.247L38.9054 297.637H46.1241V307.148H47.5317V311.511H45.9231V308.696H38.3826V311.511H36.7739ZM39.5891 307.148H44.3144V299.246H40.6146L40.5341 303.287C40.5207 304.346 40.4068 305.204 40.1923 305.861C39.9778 306.518 39.7767 306.947 39.5891 307.148ZM54.26 308.897C53.3886 308.897 52.6245 308.723 51.9677 308.375C51.3242 308.026 50.8215 307.537 50.4596 306.907C50.1111 306.263 49.9368 305.519 49.9368 304.675V301.659C49.9368 300.801 50.1111 300.057 50.4596 299.427C50.8215 298.796 51.3242 298.307 51.9677 297.959C52.6245 297.61 53.3886 297.436 54.26 297.436C55.1313 297.436 55.8887 297.61 56.5322 297.959C57.189 298.307 57.6917 298.796 58.0403 299.427C58.4022 300.057 58.5832 300.801 58.5832 301.659V303.609H51.7063V304.675C51.7063 305.546 51.9275 306.216 52.3698 306.685C52.8122 307.141 53.4423 307.369 54.26 307.369C54.9571 307.369 55.5201 307.249 55.9491 307.007C56.378 306.753 56.6394 306.377 56.7333 305.881H58.543C58.4223 306.806 57.9665 307.543 57.1756 308.093C56.3981 308.629 55.4262 308.897 54.26 308.897ZM56.8137 302.403V301.659C56.8137 300.787 56.5925 300.117 56.1501 299.648C55.7212 299.179 55.0911 298.944 54.26 298.944C53.4423 298.944 52.8122 299.179 52.3698 299.648C51.9275 300.117 51.7063 300.787 51.7063 301.659V302.242H56.9544L56.8137 302.403ZM61.8127 308.696V297.637H64.2659L65.7136 301.88C65.8611 302.309 65.9952 302.738 66.1158 303.167C66.2365 303.582 66.3236 303.904 66.3772 304.132C66.4308 303.904 66.5113 303.582 66.6185 303.167C66.7392 302.738 66.8665 302.302 67.0006 301.86L68.3679 297.637H70.8211V308.696H69.0717V306.987C69.0717 306.384 69.0784 305.727 69.0918 305.017C69.1052 304.306 69.1186 303.589 69.132 302.865C69.1588 302.141 69.1856 301.457 69.2124 300.814C69.2392 300.157 69.2593 299.581 69.2728 299.085L67.3022 305.378H65.3919L63.4012 299.125C63.428 299.728 63.4482 300.479 63.4616 301.377C63.4884 302.275 63.5085 303.214 63.5219 304.192C63.5487 305.171 63.5621 306.102 63.5621 306.987V308.696H61.8127ZM74.2316 308.696V297.637H75.9608V303.669C75.9608 304.058 75.9474 304.467 75.9206 304.896C75.9072 305.325 75.8804 305.734 75.8402 306.122C75.8134 306.498 75.7799 306.82 75.7397 307.088L80.2036 297.637H82.516V308.696H80.7867V302.664C80.7867 302.275 80.7934 301.866 80.8069 301.437C80.8337 301.008 80.8672 300.599 80.9074 300.211C80.9476 299.809 80.9811 299.48 81.0079 299.225L76.544 308.696H74.2316ZM92.6426 308.696V304.675C92.4281 304.728 92.0997 304.782 91.6573 304.836C91.2283 304.876 90.7725 304.896 90.2899 304.896C88.9226 304.909 87.8569 304.581 87.0928 303.911C86.3421 303.227 85.9667 302.275 85.9667 301.055V297.637H87.7764V301.055C87.7764 301.739 88.0043 302.282 88.4601 302.684C88.9293 303.073 89.5728 303.267 90.3905 303.267C90.9535 303.267 91.4294 303.247 91.8181 303.207C92.2203 303.153 92.4951 303.106 92.6426 303.066V297.637H94.4523V308.696H92.6426ZM98.3454 308.696V297.637H100.155V302.242H104.82V297.637H106.63V308.696H104.82V303.89H100.155V308.696H98.3454ZM109.819 308.696V297.637H111.508V301.699H112.413C113.606 301.699 114.544 302.014 115.228 302.644C115.925 303.26 116.274 304.112 116.274 305.198C116.274 306.283 115.925 307.141 115.228 307.771C114.544 308.388 113.606 308.696 112.413 308.696H109.819ZM111.508 307.249H112.413C113.124 307.249 113.673 307.068 114.062 306.706C114.464 306.344 114.665 305.841 114.665 305.198C114.665 304.554 114.464 304.051 114.062 303.689C113.673 303.327 113.124 303.147 112.413 303.147H111.508V307.249ZM117.581 308.696V297.637H119.27V308.696H117.581ZM126.601 308.897C125.73 308.897 124.966 308.723 124.309 308.375C123.666 308.026 123.163 307.537 122.801 306.907C122.452 306.263 122.278 305.519 122.278 304.675V301.659C122.278 300.801 122.452 300.057 122.801 299.427C123.163 298.796 123.666 298.307 124.309 297.959C124.966 297.61 125.73 297.436 126.601 297.436C127.473 297.436 128.23 297.61 128.874 297.959C129.53 298.307 130.033 298.796 130.382 299.427C130.744 300.057 130.925 300.801 130.925 301.659V303.609H124.048V304.675C124.048 305.546 124.269 306.216 124.711 306.685C125.154 307.141 125.784 307.369 126.601 307.369C127.298 307.369 127.861 307.249 128.29 307.007C128.719 306.753 128.981 306.377 129.075 305.881H130.884C130.764 306.806 130.308 307.543 129.517 308.093C128.74 308.629 127.768 308.897 126.601 308.897ZM129.155 302.403V301.659C129.155 300.787 128.934 300.117 128.492 299.648C128.063 299.179 127.433 298.944 126.601 298.944C125.784 298.944 125.154 299.179 124.711 299.648C124.269 300.117 124.048 300.787 124.048 301.659V302.242H129.296L129.155 302.403Z" fill="#F4F5F8"/>
<path d="M446.777 40.6064C445.892 40.6064 445.121 40.4388 444.464 40.1037C443.821 39.7685 443.318 39.2859 442.956 38.6559C442.608 38.0124 442.434 37.255 442.434 36.3837V29.7481C442.434 28.8633 442.608 28.1059 442.956 27.4759C443.318 26.8458 443.821 26.3632 444.464 26.0281C445.121 25.693 445.892 25.5254 446.777 25.5254C447.662 25.5254 448.426 25.6997 449.069 26.0482C449.713 26.3833 450.209 26.8659 450.557 27.496C450.906 28.126 451.08 28.8767 451.08 29.7481H449.27C449.27 28.9169 449.049 28.2802 448.607 27.8378C448.178 27.382 447.568 27.1541 446.777 27.1541C445.986 27.1541 445.363 27.3753 444.907 27.8177C444.464 28.2601 444.243 28.8968 444.243 29.728V36.3837C444.243 37.2148 444.464 37.8583 444.907 38.314C445.363 38.7564 445.986 38.9776 446.777 38.9776C447.568 38.9776 448.178 38.7564 448.607 38.314C449.049 37.8583 449.27 37.2148 449.27 36.3837H451.08C451.08 37.2416 450.906 37.9923 450.557 38.6358C450.209 39.2658 449.713 39.7551 449.069 40.1037C448.426 40.4388 447.662 40.6064 446.777 40.6064ZM458.753 40.6064C457.882 40.6064 457.118 40.4321 456.461 40.0835C455.818 39.735 455.315 39.2457 454.953 38.6157C454.604 37.9722 454.43 37.2282 454.43 36.3837V33.3675C454.43 32.5096 454.604 31.7656 454.953 31.1355C455.315 30.5055 455.818 30.0162 456.461 29.6676C457.118 29.3191 457.882 29.1448 458.753 29.1448C459.625 29.1448 460.382 29.3191 461.026 29.6676C461.682 30.0162 462.185 30.5055 462.534 31.1355C462.896 31.7656 463.077 32.5096 463.077 33.3675V35.318H456.2V36.3837C456.2 37.255 456.421 37.9253 456.863 38.3945C457.306 38.8503 457.936 39.0782 458.753 39.0782C459.45 39.0782 460.013 38.9575 460.442 38.7162C460.871 38.4615 461.133 38.0862 461.227 37.5902H463.036C462.916 38.5151 462.46 39.2524 461.669 39.802C460.891 40.3382 459.92 40.6064 458.753 40.6064ZM461.307 34.1115V33.3675C461.307 32.4962 461.086 31.8259 460.643 31.3567C460.215 30.8875 459.584 30.6529 458.753 30.6529C457.936 30.6529 457.306 30.8875 456.863 31.3567C456.421 31.8259 456.2 32.4962 456.2 33.3675V33.9506H461.448L461.307 34.1115ZM466.628 44.0247V29.3459H468.438V31.4572H468.799L468.438 31.8795C468.438 31.035 468.712 30.3714 469.262 29.8888C469.825 29.3928 470.562 29.1448 471.474 29.1448C472.586 29.1448 473.471 29.5135 474.128 30.2508C474.798 30.9747 475.133 31.9733 475.133 33.2469V36.4842C475.133 37.3288 474.979 38.0593 474.671 38.676C474.376 39.2926 473.954 39.7685 473.404 40.1037C472.868 40.4388 472.225 40.6064 471.474 40.6064C470.576 40.6064 469.845 40.3584 469.282 39.8624C468.719 39.3664 468.438 38.7028 468.438 37.8717L468.799 38.2939H468.397L468.438 40.8074V44.0247H466.628ZM470.871 39.0379C471.635 39.0379 472.231 38.81 472.66 38.3543C473.103 37.8985 473.324 37.2416 473.324 36.3837V33.3675C473.324 32.5096 473.103 31.8527 472.66 31.3969C472.231 30.9411 471.635 30.7133 470.871 30.7133C470.133 30.7133 469.543 30.9478 469.101 31.417C468.659 31.8862 468.438 32.5364 468.438 33.3675V36.3837C468.438 37.2148 468.659 37.865 469.101 38.3342C469.543 38.8033 470.133 39.0379 470.871 39.0379ZM478.805 40.4053V29.3459H480.615V33.4077H483.873C485.119 33.4077 486.098 33.7227 486.808 34.3528C487.532 34.9694 487.894 35.8207 487.894 36.9065C487.894 37.9789 487.532 38.8302 486.808 39.4602C486.084 40.0902 485.106 40.4053 483.873 40.4053H478.805ZM480.615 38.7564H483.873C484.57 38.7564 485.099 38.6023 485.461 38.2939C485.836 37.9722 486.024 37.5097 486.024 36.9065C486.024 36.3033 485.836 35.8475 485.461 35.5392C485.099 35.2174 484.57 35.0566 483.873 35.0566H480.615V38.7564ZM494.924 40.6064C494.053 40.6064 493.289 40.4321 492.632 40.0835C491.988 39.735 491.486 39.2457 491.124 38.6157C490.775 37.9722 490.601 37.2282 490.601 36.3837V33.3675C490.601 32.5096 490.775 31.7656 491.124 31.1355C491.486 30.5055 491.988 30.0162 492.632 29.6676C493.289 29.3191 494.053 29.1448 494.924 29.1448C495.795 29.1448 496.553 29.3191 497.196 29.6676C497.853 30.0162 498.356 30.5055 498.704 31.1355C499.066 31.7656 499.247 32.5096 499.247 33.3675V35.318H492.37V36.3837C492.37 37.255 492.592 37.9253 493.034 38.3945C493.476 38.8503 494.106 39.0782 494.924 39.0782C495.621 39.0782 496.184 38.9575 496.613 38.7162C497.042 38.4615 497.303 38.0862 497.397 37.5902H499.207C499.086 38.5151 498.631 39.2524 497.84 39.802C497.062 40.3382 496.09 40.6064 494.924 40.6064ZM497.478 34.1115V33.3675C497.478 32.4962 497.257 31.8259 496.814 31.3567C496.385 30.8875 495.755 30.6529 494.924 30.6529C494.106 30.6529 493.476 30.8875 493.034 31.3567C492.592 31.8259 492.37 32.4962 492.37 33.3675V33.9506H497.619L497.478 34.1115ZM506.458 40.546C505.292 40.546 504.333 40.298 503.583 39.802C502.845 39.306 502.403 38.6358 502.256 37.7912H504.166C504.26 38.1264 504.508 38.4012 504.91 38.6157C505.325 38.8302 505.841 38.9374 506.458 38.9374H507.403C508.06 38.9374 508.569 38.7832 508.931 38.4749C509.307 38.1666 509.494 37.7644 509.494 37.2684C509.494 36.7322 509.313 36.31 508.952 36.0016C508.603 35.6933 508.087 35.5392 507.403 35.5392H504.97V33.9707H507.343C507.96 33.9707 508.429 33.8233 508.75 33.5284C509.072 33.2334 509.233 32.8447 509.233 32.3621C509.233 32.027 509.159 31.7455 509.012 31.5176C508.878 31.2897 508.67 31.1154 508.389 30.9948C508.107 30.8741 507.765 30.8138 507.363 30.8138H506.358C505.821 30.8138 505.359 30.9344 504.97 31.1757C504.581 31.417 504.347 31.7119 504.266 32.0605H502.356C502.49 31.2294 502.926 30.5457 503.663 30.0095C504.4 29.4733 505.299 29.2052 506.358 29.2052H507.363C508.154 29.2052 508.831 29.3325 509.394 29.5872C509.957 29.8285 510.386 30.177 510.681 30.6328C510.989 31.0886 511.143 31.6315 511.143 32.2616C511.143 32.9184 510.929 33.4613 510.5 33.8903C510.071 34.3059 509.468 34.5405 508.69 34.5941V34.6745C509.642 34.7415 510.332 34.9962 510.761 35.4386C511.19 35.881 511.405 36.5177 511.405 37.3489C511.405 38.3275 511.043 39.105 510.319 39.6814C509.595 40.2578 508.623 40.546 507.403 40.546H506.458ZM514.896 40.4053V29.3459H516.705V33.9506H521.37V29.3459H523.18V40.4053H521.37V35.5995H516.705V40.4053H514.896ZM526.369 40.4053V29.3459H528.058V33.4077H528.963C530.156 33.4077 531.095 33.7227 531.778 34.3528C532.476 34.9694 532.824 35.8207 532.824 36.9065C532.824 37.9923 532.476 38.8503 531.778 39.4803C531.095 40.097 530.156 40.4053 528.963 40.4053H526.369ZM528.058 38.9575H528.963C529.674 38.9575 530.223 38.7765 530.612 38.4146C531.014 38.0526 531.215 37.5499 531.215 36.9065C531.215 36.263 531.014 35.7603 530.612 35.3984C530.223 35.0365 529.674 34.8555 528.963 34.8555H528.058V38.9575ZM534.131 40.4053V29.3459H535.82V40.4053H534.131ZM539.009 40.4053V29.3459H540.739V35.3783C540.739 35.767 540.725 36.1759 540.698 36.6049C540.685 37.0338 540.658 37.4427 540.618 37.8315C540.591 38.2068 540.558 38.5285 540.518 38.7966L544.981 29.3459H547.294V40.4053H545.565V34.3729C545.565 33.9841 545.571 33.5753 545.585 33.1463C545.612 32.7173 545.645 32.3085 545.685 31.9197C545.725 31.5176 545.759 31.1891 545.786 30.9344L541.322 40.4053H539.009ZM543.232 27.5362C542.267 27.5362 541.489 27.2681 540.9 26.7319C540.31 26.1957 540.015 25.4919 540.015 24.6205H541.442C541.442 25.1434 541.603 25.5656 541.925 25.8873C542.247 26.2091 542.676 26.3699 543.212 26.3699C543.762 26.3699 544.197 26.2091 544.519 25.8873C544.854 25.5656 545.022 25.1434 545.022 24.6205H546.449C546.449 25.4919 546.154 26.1957 545.565 26.7319C544.975 27.2681 544.197 27.5362 543.232 27.5362Z" fill="#F4F5F8"/>
<path d="M408.309 129.445L409.797 125.645L405.474 114.767H407.445L410.079 121.945C410.253 122.401 410.394 122.837 410.501 123.252C410.608 123.654 410.675 123.956 410.702 124.157C410.729 123.956 410.789 123.654 410.883 123.252C410.977 122.837 411.098 122.401 411.245 121.945L413.558 114.767H415.528L410.24 129.445H408.309ZM418.416 129.445V118.386H423.201C424.354 118.386 425.246 118.647 425.876 119.17C426.506 119.68 426.821 120.397 426.821 121.322C426.821 122.086 426.56 122.702 426.037 123.172C425.514 123.627 424.824 123.855 423.966 123.855V123.694C424.904 123.694 425.655 123.929 426.218 124.398C426.794 124.867 427.082 125.497 427.082 126.288C427.082 127.28 426.747 128.058 426.077 128.621C425.407 129.171 424.468 129.445 423.262 129.445H418.416ZM420.185 127.857H423.262C423.905 127.857 424.401 127.716 424.75 127.435C425.112 127.153 425.293 126.758 425.293 126.248C425.293 125.725 425.112 125.323 424.75 125.042C424.401 124.76 423.905 124.619 423.262 124.619H420.185V127.857ZM420.185 123.051H423.201C423.765 123.051 424.207 122.917 424.529 122.649C424.864 122.381 425.031 122.005 425.031 121.523C425.031 121.04 424.87 120.665 424.549 120.397C424.227 120.115 423.778 119.974 423.201 119.974H420.185V123.051ZM433.65 129.646C432.483 129.646 431.565 129.351 430.895 128.762C430.225 128.158 429.89 127.347 429.89 126.329C429.89 125.296 430.225 124.485 430.895 123.896C431.565 123.306 432.47 123.011 433.61 123.011H437.028V121.905C437.028 121.221 436.82 120.698 436.405 120.336C436.002 119.961 435.426 119.773 434.675 119.773C434.018 119.773 433.469 119.914 433.026 120.196C432.584 120.464 432.329 120.832 432.262 121.302H430.453C430.573 120.35 431.022 119.592 431.8 119.029C432.577 118.466 433.549 118.185 434.715 118.185C435.989 118.185 436.994 118.513 437.732 119.17C438.469 119.827 438.838 120.718 438.838 121.845V129.445H437.068V127.334H436.766L437.068 127.032C437.068 127.837 436.753 128.473 436.123 128.943C435.506 129.412 434.682 129.646 433.65 129.646ZM434.092 128.219C434.95 128.219 435.654 128.004 436.203 127.575C436.753 127.146 437.028 126.597 437.028 125.926V124.358H433.65C433.047 124.358 432.571 124.526 432.222 124.861C431.874 125.196 431.699 125.652 431.699 126.228C431.699 126.845 431.907 127.334 432.323 127.696C432.752 128.044 433.341 128.219 434.092 128.219ZM441.001 129.445L443.414 123.775L441.162 118.386H442.912L444.842 123.212H445.908V118.386H447.436V123.212H448.461L450.452 118.386H452.181L449.929 123.715L452.342 129.445H450.533L448.522 124.418H447.436V129.445H445.908V124.418H444.822L442.791 129.445H441.001ZM454.587 129.445V118.386H456.316V124.418C456.316 124.807 456.302 125.216 456.276 125.645C456.262 126.074 456.235 126.483 456.195 126.871C456.168 127.247 456.135 127.569 456.095 127.837L460.559 118.386H462.871V129.445H461.142V123.413C461.142 123.024 461.148 122.615 461.162 122.186C461.189 121.757 461.222 121.349 461.262 120.96C461.303 120.558 461.336 120.229 461.363 119.974L456.899 129.445H454.587ZM469.881 129.445V119.974H465.859V118.386H475.712V119.974H471.69V129.445H469.881ZM482.843 129.646C481.971 129.646 481.207 129.472 480.55 129.124C479.907 128.775 479.404 128.286 479.042 127.656C478.694 127.012 478.519 126.268 478.519 125.424V122.408C478.519 121.55 478.694 120.806 479.042 120.176C479.404 119.546 479.907 119.056 480.55 118.708C481.207 118.359 481.971 118.185 482.843 118.185C483.714 118.185 484.471 118.359 485.115 118.708C485.772 119.056 486.274 119.546 486.623 120.176C486.985 120.806 487.166 121.55 487.166 122.408V124.358H480.289V125.424C480.289 126.295 480.51 126.965 480.952 127.435C481.395 127.89 482.025 128.118 482.843 128.118C483.54 128.118 484.103 127.998 484.532 127.756C484.961 127.502 485.222 127.126 485.316 126.63H487.126C487.005 127.555 486.549 128.292 485.758 128.842C484.981 129.378 484.009 129.646 482.843 129.646ZM485.396 123.152V122.408C485.396 121.536 485.175 120.866 484.733 120.397C484.304 119.928 483.674 119.693 482.843 119.693C482.025 119.693 481.395 119.928 480.952 120.397C480.51 120.866 480.289 121.536 480.289 122.408V122.991H485.537L485.396 123.152ZM489.37 129.586V127.897H489.732C490.348 127.897 490.777 127.656 491.019 127.173C491.273 126.691 491.407 125.826 491.421 124.579L491.541 118.386H499.042V129.445H497.232V120.035H493.331L493.23 124.66C493.204 125.826 493.07 126.771 492.828 127.495C492.6 128.219 492.238 128.748 491.742 129.083C491.26 129.419 490.623 129.586 489.832 129.586H489.37ZM502.895 129.445V118.386H504.704V122.448H507.962C509.208 122.448 510.187 122.763 510.897 123.393C511.621 124.009 511.983 124.861 511.983 125.947C511.983 127.019 511.621 127.87 510.897 128.5C510.174 129.13 509.195 129.445 507.962 129.445H502.895ZM504.704 127.796H507.962C508.659 127.796 509.188 127.642 509.55 127.334C509.926 127.012 510.113 126.55 510.113 125.947C510.113 125.343 509.926 124.888 509.55 124.579C509.188 124.257 508.659 124.097 507.962 124.097H504.704V127.796ZM514.871 129.445V118.386H516.681V122.991H521.346V118.386H523.155V129.445H521.346V124.64H516.681V129.445H514.871ZM526.345 129.445V118.386H528.034V122.448H528.939C530.132 122.448 531.07 122.763 531.754 123.393C532.451 124.009 532.799 124.861 532.799 125.947C532.799 127.032 532.451 127.89 531.754 128.52C531.07 129.137 530.132 129.445 528.939 129.445H526.345ZM528.034 127.998H528.939C529.649 127.998 530.199 127.817 530.588 127.455C530.99 127.093 531.191 126.59 531.191 125.947C531.191 125.303 530.99 124.8 530.588 124.438C530.199 124.076 529.649 123.896 528.939 123.896H528.034V127.998ZM534.106 129.445V118.386H535.796V129.445H534.106ZM538.985 129.445V118.386H540.714V124.418C540.714 124.807 540.701 125.216 540.674 125.645C540.66 126.074 540.634 126.483 540.593 126.871C540.567 127.247 540.533 127.569 540.493 127.837L544.957 118.386H547.269V129.445H545.54V123.413C545.54 123.024 545.547 122.615 545.56 122.186C545.587 121.757 545.62 121.349 545.661 120.96C545.701 120.558 545.734 120.229 545.761 119.974L541.297 129.445H538.985ZM543.207 116.576C542.242 116.576 541.465 116.308 540.875 115.772C540.285 115.236 539.99 114.532 539.99 113.661H541.418C541.418 114.183 541.579 114.606 541.9 114.927C542.222 115.249 542.651 115.41 543.187 115.41C543.737 115.41 544.173 115.249 544.494 114.927C544.83 114.606 544.997 114.183 544.997 113.661H546.425C546.425 114.532 546.13 115.236 545.54 115.772C544.95 116.308 544.173 116.576 543.207 116.576Z" fill="#F4F5F8"/>
<path d="M466.317 219.127V204.448H468.69L470.218 209.194C470.366 209.623 470.5 210.052 470.62 210.481C470.741 210.896 470.828 211.218 470.882 211.446C470.949 211.218 471.036 210.896 471.143 210.481C471.25 210.052 471.371 209.616 471.505 209.174L472.953 204.448H475.326V219.127H473.556V213.798C473.556 213.209 473.576 212.538 473.616 211.788C473.657 211.037 473.71 210.273 473.777 209.495C473.844 208.704 473.911 207.954 473.978 207.243C474.059 206.519 474.126 205.889 474.179 205.353L471.807 212.692H469.896L467.504 205.353C467.571 205.876 467.638 206.486 467.705 207.183C467.772 207.867 467.832 208.597 467.886 209.375C467.939 210.139 467.986 210.903 468.026 211.667C468.067 212.431 468.087 213.141 468.087 213.798V219.127H466.317ZM482.878 219.288C481.994 219.288 481.229 219.12 480.586 218.785C479.943 218.45 479.44 217.967 479.078 217.337C478.729 216.694 478.555 215.936 478.555 215.065V212.129C478.555 211.245 478.729 210.487 479.078 209.857C479.44 209.227 479.943 208.745 480.586 208.409C481.229 208.074 481.994 207.907 482.878 207.907C483.763 207.907 484.527 208.074 485.171 208.409C485.814 208.745 486.31 209.227 486.659 209.857C487.021 210.487 487.202 211.238 487.202 212.109V215.065C487.202 215.936 487.021 216.694 486.659 217.337C486.31 217.967 485.814 218.45 485.171 218.785C484.527 219.12 483.763 219.288 482.878 219.288ZM482.878 217.679C483.669 217.679 484.286 217.458 484.728 217.016C485.171 216.573 485.392 215.923 485.392 215.065V212.129C485.392 211.271 485.171 210.621 484.728 210.179C484.286 209.737 483.669 209.515 482.878 209.515C482.101 209.515 481.484 209.737 481.028 210.179C480.586 210.621 480.365 211.271 480.365 212.129V215.065C480.365 215.923 480.586 216.573 481.028 217.016C481.484 217.458 482.101 217.679 482.878 217.679ZM489.406 219.268V217.579H489.768C490.384 217.579 490.813 217.337 491.054 216.855C491.309 216.372 491.443 215.508 491.457 214.261L491.577 208.068H499.077V219.127H497.268V209.716H493.367L493.266 214.341C493.239 215.508 493.105 216.453 492.864 217.176C492.636 217.9 492.274 218.43 491.778 218.765C491.296 219.1 490.659 219.268 489.868 219.268H489.406ZM506.992 219.288C506.107 219.288 505.343 219.12 504.7 218.785C504.056 218.45 503.554 217.967 503.192 217.337C502.843 216.694 502.669 215.936 502.669 215.065V212.129C502.669 211.245 502.843 210.487 503.192 209.857C503.554 209.227 504.056 208.745 504.7 208.409C505.343 208.074 506.107 207.907 506.992 207.907C507.877 207.907 508.641 208.074 509.284 208.409C509.928 208.745 510.424 209.227 510.772 209.857C511.134 210.487 511.315 211.238 511.315 212.109V215.065C511.315 215.936 511.134 216.694 510.772 217.337C510.424 217.967 509.928 218.45 509.284 218.785C508.641 219.12 507.877 219.288 506.992 219.288ZM506.992 217.679C507.783 217.679 508.4 217.458 508.842 217.016C509.284 216.573 509.506 215.923 509.506 215.065V212.129C509.506 211.271 509.284 210.621 508.842 210.179C508.4 209.737 507.783 209.515 506.992 209.515C506.215 209.515 505.598 209.737 505.142 210.179C504.7 210.621 504.479 211.271 504.479 212.129V215.065C504.479 215.923 504.7 216.573 505.142 217.016C505.598 217.458 506.215 217.679 506.992 217.679ZM513.62 221.942V217.579H514.525C514.753 217.351 514.987 216.902 515.229 216.231C515.483 215.561 515.617 214.71 515.631 213.678L515.751 208.068H522.97V217.579H524.378V221.942H522.769V219.127H515.229V221.942H513.62ZM516.435 217.579H521.16V209.676H517.461L517.38 213.718C517.367 214.777 517.253 215.635 517.038 216.292C516.824 216.949 516.623 217.378 516.435 217.579ZM526.381 219.127V208.068H528.07V212.129H528.975C530.168 212.129 531.106 212.444 531.79 213.074C532.487 213.691 532.835 214.542 532.835 215.628C532.835 216.714 532.487 217.572 531.79 218.202C531.106 218.819 530.168 219.127 528.975 219.127H526.381ZM528.07 217.679H528.975C529.685 217.679 530.235 217.498 530.623 217.136C531.026 216.774 531.227 216.272 531.227 215.628C531.227 214.985 531.026 214.482 530.623 214.12C530.235 213.758 529.685 213.577 528.975 213.577H528.07V217.679ZM534.142 219.127V208.068H535.831V219.127H534.142ZM543.163 219.328C542.292 219.328 541.527 219.154 540.871 218.805C540.227 218.457 539.724 217.967 539.362 217.337C539.014 216.694 538.84 215.95 538.84 215.105V212.089C538.84 211.231 539.014 210.487 539.362 209.857C539.724 209.227 540.227 208.738 540.871 208.389C541.527 208.041 542.292 207.867 543.163 207.867C544.034 207.867 544.792 208.041 545.435 208.389C546.092 208.738 546.595 209.227 546.943 209.857C547.305 210.487 547.486 211.231 547.486 212.089V214.04H540.609V215.105C540.609 215.977 540.83 216.647 541.273 217.116C541.715 217.572 542.345 217.8 543.163 217.8C543.86 217.8 544.423 217.679 544.852 217.438C545.281 217.183 545.542 216.808 545.636 216.312H547.446C547.325 217.237 546.869 217.974 546.079 218.524C545.301 219.06 544.329 219.328 543.163 219.328ZM545.717 212.833V212.089C545.717 211.218 545.495 210.548 545.053 210.078C544.624 209.609 543.994 209.375 543.163 209.375C542.345 209.375 541.715 209.609 541.273 210.078C540.83 210.548 540.609 211.218 540.609 212.089V212.672H545.857L545.717 212.833Z" fill="#F4F5F8"/>
<path d="M406.359 308.696V294.018H414.643V308.696H412.834V295.666H408.169V308.696H406.359ZM418.376 312.316V297.637H420.185V299.748H420.547L420.185 300.171C420.185 299.326 420.46 298.662 421.01 298.18C421.573 297.684 422.31 297.436 423.222 297.436C424.334 297.436 425.219 297.804 425.876 298.542C426.546 299.266 426.881 300.264 426.881 301.538V304.775C426.881 305.62 426.727 306.35 426.419 306.967C426.124 307.584 425.702 308.06 425.152 308.395C424.616 308.73 423.972 308.897 423.222 308.897C422.323 308.897 421.593 308.649 421.03 308.153C420.467 307.657 420.185 306.994 420.185 306.163L420.547 306.585H420.145L420.185 309.098V312.316H418.376ZM422.618 307.329C423.382 307.329 423.979 307.101 424.408 306.645C424.85 306.19 425.072 305.533 425.072 304.675V301.659C425.072 300.801 424.85 300.144 424.408 299.688C423.979 299.232 423.382 299.004 422.618 299.004C421.881 299.004 421.291 299.239 420.849 299.708C420.406 300.177 420.185 300.827 420.185 301.659V304.675C420.185 305.506 420.406 306.156 420.849 306.625C421.291 307.094 421.881 307.329 422.618 307.329ZM433.65 308.897C432.483 308.897 431.565 308.602 430.895 308.013C430.225 307.409 429.89 306.598 429.89 305.58C429.89 304.547 430.225 303.736 430.895 303.147C431.565 302.557 432.47 302.262 433.61 302.262H437.028V301.156C437.028 300.472 436.82 299.949 436.405 299.587C436.002 299.212 435.426 299.024 434.675 299.024C434.018 299.024 433.469 299.165 433.026 299.447C432.584 299.715 432.329 300.083 432.262 300.553H430.453C430.573 299.601 431.022 298.843 431.8 298.28C432.577 297.717 433.549 297.436 434.715 297.436C435.989 297.436 436.994 297.764 437.732 298.421C438.469 299.078 438.838 299.969 438.838 301.095V308.696H437.068V306.585H436.766L437.068 306.283C437.068 307.088 436.753 307.724 436.123 308.194C435.506 308.663 434.682 308.897 433.65 308.897ZM434.092 307.47C434.95 307.47 435.654 307.255 436.203 306.826C436.753 306.397 437.028 305.848 437.028 305.177V303.609H433.65C433.047 303.609 432.571 303.777 432.222 304.112C431.874 304.447 431.699 304.903 431.699 305.479C431.699 306.096 431.907 306.585 432.323 306.947C432.752 307.295 433.341 307.47 434.092 307.47ZM442.59 308.696V297.637H444.4V302.201H446.29L449.507 297.637H451.578L447.858 302.905L451.638 308.696H449.527L446.31 303.77H444.4V308.696H442.59ZM457.824 308.696V299.225H453.802V297.637H463.655V299.225H459.634V308.696H457.824ZM466.643 308.696V297.637H468.373V303.669C468.373 304.058 468.359 304.467 468.332 304.896C468.319 305.325 468.292 305.734 468.252 306.122C468.225 306.498 468.192 306.82 468.151 307.088L472.615 297.637H474.928V308.696H473.199V302.664C473.199 302.275 473.205 301.866 473.219 301.437C473.246 301.008 473.279 300.599 473.319 300.211C473.359 299.809 473.393 299.48 473.42 299.225L468.956 308.696H466.643ZM478.761 308.696V297.637H480.57V302.201H482.46L485.678 297.637H487.749L484.029 302.905L487.809 308.696H485.698L482.481 303.77H480.57V308.696H478.761ZM492.446 312.316L494.075 308.013L489.973 297.637H491.984L494.558 304.474C494.651 304.702 494.739 304.976 494.819 305.298C494.899 305.606 494.966 305.868 495.02 306.082C495.074 305.868 495.141 305.606 495.221 305.298C495.302 304.976 495.382 304.702 495.462 304.474L497.875 297.637H499.826L494.377 312.316H492.446ZM508.686 308.897C507.761 308.897 507.017 308.582 506.454 307.952C505.891 307.322 505.609 306.498 505.609 305.479V303.81H503.84V308.696H502.171V297.637H503.84V302.362H505.609V300.854C505.609 299.822 505.884 298.998 506.434 298.381C506.997 297.751 507.747 297.436 508.686 297.436C509.678 297.436 510.475 297.751 511.078 298.381C511.682 298.998 511.983 299.822 511.983 300.854V305.479C511.983 306.498 511.682 307.322 511.078 307.952C510.475 308.582 509.678 308.897 508.686 308.897ZM508.686 307.49C509.195 307.49 509.59 307.316 509.872 306.967C510.167 306.605 510.314 306.109 510.314 305.479V300.854C510.314 300.224 510.167 299.735 509.872 299.386C509.59 299.024 509.195 298.843 508.686 298.843C508.19 298.843 507.801 299.024 507.519 299.386C507.238 299.735 507.097 300.224 507.097 300.854V305.479C507.097 306.109 507.238 306.605 507.519 306.967C507.801 307.316 508.19 307.49 508.686 307.49ZM522.934 311.511V308.696H514.268V297.637H515.897V307.168H518.229V297.637H519.637V307.168H521.969V297.637H523.598V307.168H524.543V311.511H522.934ZM526.928 308.696V297.637H528.657V303.669C528.657 304.058 528.644 304.467 528.617 304.896C528.604 305.325 528.577 305.734 528.537 306.122C528.51 306.498 528.476 306.82 528.436 307.088L532.9 297.637H535.212V308.696H533.483V302.664C533.483 302.275 533.49 301.866 533.503 301.437C533.53 301.008 533.564 300.599 533.604 300.211C533.644 299.809 533.677 299.48 533.704 299.225L529.24 308.696H526.928ZM543.127 308.897C542.256 308.897 541.492 308.723 540.835 308.375C540.191 308.026 539.689 307.537 539.327 306.907C538.978 306.263 538.804 305.519 538.804 304.675V301.659C538.804 300.801 538.978 300.057 539.327 299.427C539.689 298.796 540.191 298.307 540.835 297.959C541.492 297.61 542.256 297.436 543.127 297.436C543.998 297.436 544.756 297.61 545.399 297.959C546.056 298.307 546.559 298.796 546.907 299.427C547.269 300.057 547.45 300.801 547.45 301.659V303.609H540.573V304.675C540.573 305.546 540.795 306.216 541.237 306.685C541.679 307.141 542.309 307.369 543.127 307.369C543.824 307.369 544.387 307.249 544.816 307.007C545.245 306.753 545.506 306.377 545.6 305.881H547.41C547.289 306.806 546.834 307.543 546.043 308.093C545.265 308.629 544.293 308.897 543.127 308.897ZM545.681 302.403V301.659C545.681 300.787 545.46 300.117 545.017 299.648C544.588 299.179 543.958 298.944 543.127 298.944C542.309 298.944 541.679 299.179 541.237 299.648C540.795 300.117 540.573 300.787 540.573 301.659V302.242H545.822L545.681 302.403Z" fill="#F4F5F8"/>
<line x1="549.898" y1="12.4869" x2="-0.00158691" y2="12.4869" stroke="#FF7F39" stroke-width="0.893686"/>
<line x1="549.898" y1="101.406" x2="-0.00158691" y2="101.406" stroke="#FF7F39" stroke-width="0.893686"/>
<line x1="549.898" y1="191.497" x2="-0.00158691" y2="191.497" stroke="#FF7F39" stroke-width="0.893686"/>
<line x1="549.898" y1="280.416" x2="-0.00158691" y2="280.416" stroke="#FF7F39" stroke-width="0.893686"/>
<path d="M160.883 9.58887L164.862 13.5903" stroke="#FF7F39" stroke-width="1.34053"/>
<path d="M164.875 9.58887L160.896 13.5903" stroke="#FF7F39" stroke-width="1.34053"/>
<path d="M152.352 2.47603V0.677734H154.139" stroke="#FF7F39" stroke-width="1.34053"/>
<path d="M154.14 21.8906H152.352V20.0935" stroke="#FF7F39" stroke-width="1.34053"/>
<path d="M173.422 20.0923L173.414 21.8906L171.627 21.8825" stroke="#FF7F39" stroke-width="1.34053"/>
<path d="M171.72 0.670569L173.508 0.678711L173.5 2.47584" stroke="#FF7F39" stroke-width="1.34053"/>
<path d="M207.023 99.4688L211.003 103.47" stroke="#FF7F39" stroke-width="1.34053"/>
<path d="M211.008 99.4688L207.029 103.47" stroke="#FF7F39" stroke-width="1.34053"/>
<path d="M198.477 92.3559V90.5576H200.264" stroke="#FF7F39" stroke-width="1.34053"/>
<path d="M200.265 111.77H198.477V109.972" stroke="#FF7F39" stroke-width="1.34053"/>
<path d="M219.539 109.971L219.531 111.77L217.744 111.761" stroke="#FF7F39" stroke-width="1.34053"/>
<path d="M217.845 90.5505L219.633 90.5586L219.625 92.3557" stroke="#FF7F39" stroke-width="1.34053"/>
<path d="M382.703 189.141L386.682 193.142" stroke="#FF7F39" stroke-width="1.34053"/>
<path d="M386.688 189.141L382.708 193.142" stroke="#FF7F39" stroke-width="1.34053"/>
<path d="M374.18 182.028V180.229H375.967" stroke="#FF7F39" stroke-width="1.34053"/>
<path d="M375.968 201.443H374.18V199.646" stroke="#FF7F39" stroke-width="1.34053"/>
<path d="M395.227 199.645L395.219 201.443L393.432 201.435" stroke="#FF7F39" stroke-width="1.34053"/>
<path d="M393.532 180.222L395.32 180.23L395.312 182.028" stroke="#FF7F39" stroke-width="1.34053"/>
<path d="M314.625 278.711L318.604 282.712" stroke="#FF7F39" stroke-width="1.34053"/>
<path d="M318.609 278.711L314.63 282.712" stroke="#FF7F39" stroke-width="1.34053"/>
<path d="M306.094 271.599V269.801H307.881" stroke="#FF7F39" stroke-width="1.34053"/>
<path d="M307.882 291.015H306.094V289.218" stroke="#FF7F39" stroke-width="1.34053"/>
<path d="M327.157 289.216L327.148 291.015L325.361 291.007" stroke="#FF7F39" stroke-width="1.34053"/>
<path d="M325.454 269.794L327.242 269.802L327.234 271.599" stroke="#FF7F39" stroke-width="1.34053"/>
</svg>
